<?xml version="1.0" encoding="utf-8"?>
<!-- Generator: Adobe Illustrator 28.2.0, SVG Export Plug-In . SVG Version: 6.00 Build 0)  -->
<svg version="1.1" id="Layer_1" xmlns="http://www.w3.org/2000/svg" xmlns:xlink="http://www.w3.org/1999/xlink" x="0px" y="0px"
	 viewBox="0 0 1728 1296" style="enable-background:new 0 0 1728 1296;" xml:space="preserve">
<style type="text/css">
	.st0{fill:#3DD9EB;}
	.st1{fill:#7DEBF5;}
</style>
<g>
	<g>
		<path class="st0" d="M599.2,673.2c-131.2,2-226.9-55.7-288.2-170.3c-19.6-36.6-28.8-76.8-30.9-118.5
			c-3.6-73.8,16.2-140.6,60.4-199.4C388.5,121.2,452,81.3,530.7,67.4c86.3-15.2,165.5,3.1,235.9,55.4
			c64.4,47.9,104.7,112,118.2,191.5c17.1,100.5-9.5,188.7-78.5,263.6c-44.3,48.1-99.5,77.5-163.3,90.4
			C628.9,671.1,614.3,671.6,599.2,673.2z M478.3,150.3c-29.9,15.3-57.1,34.4-77.8,61.2c-12.6,16.3-24.1,33.6-33.8,51.8
			c-13.7,25.6-20.1,53.7-23.2,82.5c-0.8,7.2-0.1,14.5-0.1,21.7c20.5,0,39.9,0,58.6,0c12.2-110.4,73-170.8,182.2-182.6
			c0-19.4,0-38.8,0-58.5c-17.8-1.7-34.8,0.6-51.1,5.1C514.8,136.4,497.1,143.5,478.3,150.3z"/>
		<path class="st1" d="M478.8,150c18.3-6.5,36-13.6,54.2-18.6c16.4-4.5,33.4-6.7,51.1-5.1c0,19.7,0,39.1,0,58.5
			c-109.3,11.8-170,72.2-182.2,182.6c-18.7,0-38.1,0-58.6,0c0-7.2-0.7-14.5,0.1-21.7c3.1-28.8,9.5-56.9,23.2-82.5
			c9.7-18.1,21.2-35.5,33.8-51.8C421.2,184.7,448.4,165.6,478.8,150z"/>
	</g>
</g>
<g>
	<g>
		<path class="st0" d="M1044.6,1044.3c-15.4,0.6-30.3-0.8-44.9-4.3c-55.2-13.2-95.6-45.4-121.5-95.7c-9.5-18.4-15-38.1-17.3-58.8
			c-5.1-47.2,6.1-90.1,34.5-128c28.1-37.5,65.5-61,111.8-69.2c50.9-9,97.7,1.8,139.2,32.6c37.7,28.1,61.2,65.6,69.4,112.1
			c9,51-1.9,97.7-32.8,139.1c-28.1,37.7-65.7,60.9-112.2,69.2C1062.3,1043.1,1053.5,1043.4,1044.6,1044.3z M1010.3,762.4
			c9.4-1.7,18.9-3.3,28.5-5c0-11.2,0-22.7,0-35.4c-9,1.1-17.6,1.9-26,3.3c-28.3,4.8-52.3,18.1-72.9,37.7
			c-13.9,13.3-24.4,29.1-32,46.7c-6.2,14.3-9.8,29.4-10.8,44.9c-0.6,10.3-0.3,10.3,10.1,10.3c8.2,0,16.4,0,24.8,0
			c0.7-6,1.2-11.5,2-17c3-19.4,10.9-36.7,23.6-51.5C971.7,780.2,988.9,768.6,1010.3,762.4z"/>
		<path class="st1" d="M1010,762.5c-21.1,6.1-38.3,17.7-52.3,34c-12.7,14.8-20.6,32.1-23.6,51.5c-0.9,5.5-1.3,11-2,17
			c-8.4,0-16.6,0-24.8,0c-10.3,0-10.7,0-10.1-10.3c1-15.6,4.6-30.6,10.8-44.9c7.6-17.7,18-33.5,32-46.7
			c20.6-19.6,44.6-32.9,72.9-37.7c8.5-1.4,17-2.2,26-3.3c0,12.7,0,24.2,0,35.4C1029.2,759.1,1019.7,760.8,1010,762.5z"/>
	</g>
</g>
<g>
	<g>
		<path class="st0" d="M1115.4,537.2c-10.2,0.4-20.1-0.5-29.7-2.8c-36.6-8.7-63.4-30.1-80.5-63.4c-6.3-12.2-10-25.3-11.4-38.9
			c-3.4-31.3,4.1-59.7,22.9-84.8c18.6-24.9,43.4-40.4,74.1-45.8c33.8-6,64.7,1.2,92.2,21.6c25,18.6,40.5,43.5,46,74.3
			c6,33.8-1.3,64.8-21.8,92.2c-18.6,25-43.6,40.4-74.4,45.9C1127.1,536.4,1121.3,536.6,1115.4,537.2z M1092.7,350.4
			c6.2-1.1,12.5-2.2,18.9-3.3c0-7.4,0-15,0-23.5c-6,0.8-11.6,1.3-17.2,2.2c-18.7,3.2-34.7,12-48.3,25c-9.2,8.8-16.2,19.3-21.2,31
			c-4.1,9.5-6.5,19.5-7.1,29.8c-0.4,6.8-0.2,6.9,6.7,6.9c5.4,0,10.9,0,16.5,0c0.5-4,0.8-7.6,1.4-11.3c2-12.8,7.2-24.3,15.6-34.1
			C1067.1,362.2,1078.5,354.5,1092.7,350.4z"/>
		<path class="st1" d="M1092.4,350.4c-14,4.1-25.4,11.8-34.6,22.5c-8.4,9.8-13.6,21.3-15.6,34.1c-0.6,3.6-0.9,7.3-1.4,11.3
			c-5.6,0-11,0-16.5,0c-6.8,0-7.1,0-6.7-6.9c0.6-10.3,3.1-20.3,7.1-29.8c5-11.7,11.9-22.2,21.2-31c13.7-13,29.6-21.8,48.3-25
			c5.6-1,11.3-1.5,17.2-2.2c0,8.4,0,16.1,0,23.5C1105.2,348.2,1098.9,349.3,1092.4,350.4z"/>
	</g>
</g>
<g>
	<g>
		<path class="st0" d="M933.9,239.6c-4.9,0.2-9.6-0.2-14.2-1.4c-17.4-4.2-30.2-14.3-38.4-30.2c-3-5.8-4.7-12-5.5-18.6
			c-1.6-14.9,1.9-28.4,10.9-40.4c8.9-11.8,20.7-19.2,35.3-21.8c16.1-2.8,30.8,0.6,43.9,10.3c11.9,8.9,19.3,20.7,21.9,35.4
			c2.8,16.1-0.6,30.8-10.4,43.9c-8.9,11.9-20.8,19.2-35.4,21.8C939.5,239.2,936.8,239.3,933.9,239.6z M923.1,150.6
			c3-0.5,6-1.1,9-1.6c0-3.5,0-7.2,0-11.2c-2.8,0.4-5.5,0.6-8.2,1.1c-8.9,1.5-16.5,5.7-23,11.9c-4.4,4.2-7.7,9.2-10.1,14.8
			c-1.9,4.5-3.1,9.3-3.4,14.2c-0.2,3.3-0.1,3.3,3.2,3.3c2.6,0,5.2,0,7.8,0c0.2-1.9,0.4-3.6,0.6-5.4c1-6.1,3.4-11.6,7.5-16.3
			C910.9,156.2,916.4,152.6,923.1,150.6z"/>
		<path class="st1" d="M923,150.6c-6.7,1.9-12.1,5.6-16.5,10.7c-4,4.7-6.5,10.1-7.5,16.3c-0.3,1.7-0.4,3.5-0.6,5.4
			c-2.6,0-5.2,0-7.8,0c-3.3,0-3.4,0-3.2-3.3c0.3-4.9,1.5-9.7,3.4-14.2c2.4-5.6,5.7-10.6,10.1-14.8c6.5-6.2,14.1-10.4,23-11.9
			c2.7-0.5,5.4-0.7,8.2-1.1c0,4,0,7.6,0,11.2C929.1,149.6,926.1,150.1,923,150.6z"/>
	</g>
</g>
</svg>
