<?xml version="1.0" encoding="utf-8"?>
<!-- Generator: Adobe Illustrator 28.2.0, SVG Export Plug-In . SVG Version: 6.00 Build 0)  -->
<svg version="1.1" id="Layer_1" xmlns="http://www.w3.org/2000/svg" xmlns:xlink="http://www.w3.org/1999/xlink" x="0px" y="0px"
	 viewBox="0 0 1728 1296" style="enable-background:new 0 0 1728 1296;" xml:space="preserve">
<style type="text/css">
	.st0{fill:#FFFFFF;}
	.st1{fill:#F45577;}
	.st2{fill:#F45477;}
	.st3{fill:#F45476;}
	.st4{fill:#EB0101;}
	.st5{fill:#C68FA4;}
	.st6{fill:#ED5E7E;}
	.st7{fill:#F0597B;}
	.st8{fill:#EB0102;}
</style>
<g>
	<path class="st0" d="M930,125.4c-0.3-0.5-0.7-0.8-2.3-2.3c-14.6-11.8-31.1-16.8-51.2-13.9c-1.2,0.6-2.5,1.2-5.5,2
		c-17.2,7.3-30,18.6-34.9,39.6c-0.4,5.4-1,10.9-1,16.3c-0.2,60.6-0.3,121.3-2.3,181.9c-57.2-8.4-90.2-42.6-100.6-98.2
		c-3.8-20.1-3.1-41.1-3.7-61.7c-0.8-28.1-20.8-50.9-48.6-54.3c-25.9-3.2-52,14.4-57.8,40.5c-2.7,12.2-3.6,25.2-2.5,37.7
		c2.6,29.6,7,59,10.7,89.4c-36.4,17.4-73.2,16.1-108.8-7c-28.2-18.3-48.8-43.6-66-72.1c-4.5-7.5-9.3-15.4-15.7-21.1
		c-19.8-17.6-48.1-18-68.4-2c-21.1,16.6-27.3,43.8-14.5,68.1c16.9,31.9,39,59.9,64.7,85.2c72.9,71.5,165.2,88.2,257.8,45.7
		c6.8-3.1,11.1-2.7,16.5,2.3c39.3,35.7,86.6,52.5,139.2,59.3c0.1,48.7,0.3,97.4,0.2,146.1c0,2.8-2.2,5.6-4.1,7.5
		c-1.1-0.1-2.1-0.3-5-1.3c-33.5-10.4-61.6-29-85.3-54.9c-5.4-5.9-13.5-9.3-21-14.8c-1.2-0.2-2.3-0.4-5.2-1.4
		c-1.2-0.1-2.4-0.3-5.2-1.5c-6.3,0.3-12.6,0.7-20.7,1c-1.1,0.4-2.3,0.7-4.6,0.9c-1,0.6-2,1.2-4.8,2.1c-14.3,6.7-25.1,16.7-30.1,33.5
		c-0.2,1.3-0.4,2.6-1.2,5.7c-0.1,2-0.3,3.9-1.3,7.2c0.3,3,0.7,5.9,0.9,10.7c0.3,1.2,0.6,2.4,0.7,4.9c0.6,1.3,1.2,2.5,1.8,5.6
		c3,5.5,5.3,11.6,9.2,16.2c34.5,40.5,76.8,69.6,128.6,86.3c1.2,0.2,2.3,0.4,5.1,1.4c0.6,0.1,1.2,0.1,2.8,1.2c2,0.3,3.9,0.7,7.2,1.6
		c0.5,0,1,0,2.3,1c1.2,0.2,2.5,0.3,5.5,1.2c1.2,0.1,2.5,0.2,4.9,1.4c2,0.3,4.1,0.5,7.6,1.4c0.5,0,1.1,0,2.9,1.1
		c2.8,0.5,5.6,1.1,8.9,3.9c0,21,0.2,42,0.1,62.9c-0.2,50.8-0.4,101.5-3,152.5c-121.6,1.6-235.1-23.6-333.7-99.4
		c1-1.9,1.4-2.7,1.8-3.3c2.5-3.4,5.1-6.7,7.7-10c44.8-58.9,71.1-124.1,65.8-199.4c-3.2-45.5-17.1-87.6-45.1-124.1
		c-18.9-24.7-50.9-29.5-75.2-12.1c-24.2,17.4-30.4,49.9-12.3,75c43.4,60.4,26.6,140-20.2,194.1c-19.1-24.5-34.1-51-45.9-79.5
		c-13.2-31.8-43.4-45.9-72.4-33.8c-29.1,12.1-41.2,43.5-27.5,75c34.9,80.5,88,147.3,156.6,201.4c99.5,78.4,213.9,116.6,341.5,123.4
		c20.5,0.5,41,0.9,61.8,3.7c0,44.1,0,88.1,0,132.6c37.2,0,72.3,0,108.5,0c0-50.5,0-100.2,1.8-150.7c29.2-9.4,58.4-18.9,87.8-27.8
		c3.5-1.1,9.2,0.1,12.2,2.4c100.8,77.3,232.3,68.3,331.7,5.6c18.2-11.5,27-29.2,24.4-50.7c-5.1-41.7-46.9-61.7-83.2-40.1
		c-29.8,17.8-61.6,29-96.2,31.8c-23.8,1.9-47-1.1-70.8-11c5.5-4.2,9.1-7.1,12.8-9.8c35.5-26.3,66.1-57.4,91.3-93.7
		c18.7-27,14-60.2-10.5-77.6c-26.1-18.5-58.4-13.2-77.5,14.4c-28.9,41.9-67,73.1-110.8,97.8c-35.3,19.9-72.6,34.8-113.2,46.3
		c0-66.2,0-131,1.7-196.9c45.5-7.2,89.5-19.4,130.8-40c140.3-70.3,233.7-178.4,267.7-334.3c5-22.9,9.1-45.9-9.7-66.2
		c-0.3-0.5-0.6-0.6-2.1-2.1c-16.6-15.3-35.8-20-57-12.1c-20.7,7.8-31.1,24-35.4,45.4c-4.2,21-9.1,41.9-15.7,62.2
		c-5.7,17.3-14.3,33.7-22.1,51.6c-42.3-26.5-65.1-62.2-69.1-109.4c-1.9-23.1-12.4-40.2-33.8-49.1c-20.8-8.7-40.2-5.3-57.7,10.5
		c-0.5,0.3-0.7,0.7-1.4,1.6c0,0-0.4,0.8-1.1,0.8c-0.5,0.2-0.6,0.6-1.9,2.3c-9.3,11.2-13.3,24.1-12.3,38.7
		c3.9,59,25.6,110.4,66,153.4c12.8,13.6,27.7,25.2,41.6,37.7c-43.8,46.6-121.8,87.3-188.6,95.8c-0.1-52.3-0.2-104.7-0.1-159.4
		c-0.1-34.6-0.2-69.2,0.1-106.1c0-57.6,0.7-115.2-0.5-172.8c-0.4-16.3,1.3-34.4-11.3-48.7c0,0-0.8-0.3-1.2-1.2
		C930.9,126.7,930.1,126.2,930,125.4z"/>
	<path class="st1" d="M771.8,1050.6c-125.8-5.9-240.1-44-339.7-122.5C363.5,874,310.5,807.2,275.5,726.7
		c-13.6-31.4-1.6-62.9,27.5-75c29-12,59.2,2.1,72.4,33.8c11.8,28.4,26.8,54.9,45.9,79.5c46.8-54.1,63.7-133.8,20.2-194.1
		c-18.1-25.1-11.9-57.6,12.3-75c24.3-17.4,56.3-12.7,75.2,12.1c28,36.5,41.9,78.6,45.1,124.1c5.3,75.3-21,140.5-65.8,199.4
		c-2.5,3.4-5.1,6.7-7.7,10c-0.5,0.7-0.8,1.5-1.8,3.3c98.6,75.8,212.1,101,335.2,99.5c1.4,0.1,1.9,0.6,1.7,1.7
		c-0.1,35.5-0.1,70-1.3,104.4C812.8,1050.5,792.3,1050.5,771.8,1050.6z"/>
	<path class="st2" d="M834.8,458.3c-52.2-4.5-99.4-21.3-138.7-57c-5.5-5-9.7-5.4-16.5-2.3c-92.6,42.5-184.9,25.9-257.8-45.7
		c-25.8-25.3-47.9-53.3-64.7-85.2c-12.8-24.3-6.6-51.5,14.5-68.1c20.3-16,48.6-15.7,68.4,2c6.4,5.7,11.2,13.6,15.7,21.1
		c17.2,28.5,37.8,53.8,66,72.1c35.5,23.1,72.4,24.3,108.8,7c-3.8-30.4-8.1-59.9-10.7-89.4c-1.1-12.4-0.2-25.5,2.5-37.7
		c5.8-26.1,32-43.6,57.8-40.5c27.7,3.4,47.8,26.2,48.6,54.3c0.6,20.6-0.1,41.6,3.7,61.7c10.5,55.7,43.4,89.8,102.5,97.7
		c2.2-3.1,2.9-5.5,2.9-8c0-63.7,0-127.5,0-191.2c3.5-19.4,16.3-30.7,35.1-38c2.8-0.6,4.1-1.1,5.3-1.7c18.7-3.1,35.2,1.9,50.5,14.8
		c0.9,1.5,1.3,1.8,1.7,2c0,0,0.7,0.5,1,1.1c0.2,0.5,0.6,1,0.6,1c12.9,13.9,11.2,32,11.6,48.3c1.2,57.6,0.5,115.2-0.8,173.8
		c-36.1,1-70.8,1-106.7,1c0,36.2,0,71-0.3,106.1C835.3,457.8,834.8,458.3,834.8,458.3z"/>
	<path class="st2" d="M943.8,728.9c0,64.8,0,129.6,0,195.8c40.6-11.6,77.9-26.5,113.2-46.3c43.8-24.7,81.9-55.9,110.8-97.8
		c19-27.6,51.3-32.9,77.5-14.4c24.5,17.4,29.2,50.6,10.5,77.6c-25.2,36.4-55.9,67.4-91.3,93.7c-3.7,2.7-7.3,5.6-12.8,9.8
		c23.9,9.9,47,13,70.8,11c34.6-2.8,66.4-14,96.2-31.8c36.3-21.7,78-1.6,83.2,40.1c2.6,21.5-6.2,39.1-24.4,50.7
		c-99.4,62.7-230.9,71.6-331.7-5.6c-3-2.3-8.6-3.5-12.2-2.4c-29.4,8.9-58.5,18.5-88.9,28c-1.1,0.2-1.5-0.2-1.3-1.4
		c0.2-37.1,0.2-73,0.2-107.3c-36.7,5.5-72.1,10.9-107.6,16.2c0,0-0.5-0.5-0.7-0.7c0-51,0.2-101.8,0.4-152.5c0.1-21-0.1-42-0.1-64.4
		c0-1.4,0.5-2,1.5-1.7c35.8,7.1,70.7,6.1,105.9,2.4C943.2,728.4,943.8,728.9,943.8,728.9z"/>
	<path class="st2" d="M1334.3,288.1c18.7,19.5,14.6,42.6,9.6,65.5c-33.9,155.8-127.4,264-267.7,334.3
		c-41.3,20.7-85.3,32.8-131.6,40.6c-0.8,0.6-1.4,0-1.4-1.3c0-37.2-0.1-73,0-109.1c0.2-0.2,0.7-0.7,0.7-0.7
		c66.5-10.9,144.5-51.5,188.3-98.1c-13.9-12.5-28.9-24.1-41.6-37.7c-40.4-43-62.1-94.5-66-153.4c-1-14.6,3-27.5,13.3-39.5
		c1-0.8,1.6-1.6,1.6-1.6s0.4-0.8,1-1.1c0.7-0.4,1.4-1.3,1.4-1.3c16.8-15.7,36.2-19.1,57-10.4c21.3,8.9,31.8,26,33.8,49.1
		c3.9,47.3,26.7,83,69.1,109.4c7.8-17.9,16.4-34.3,22.1-51.6c6.6-20.3,11.5-41.3,15.7-62.2c4.3-21.5,14.7-37.7,35.4-45.4
		c21.2-8,40.4-3.2,57.6,13.1C1333.4,287.3,1334.3,288.1,1334.3,288.1z"/>
	<path class="st3" d="M685.7,542.5c1.1-0.4,2.3-0.7,5.4-1.1c8.1,0,14.2,0,20.2,0c1.2,0.1,2.4,0.3,4.9,1.2c2.4,1.1,3.5,1.3,4.6,1.6
		c6.8,4.5,14.9,7.9,20.3,13.8c23.7,25.9,51.7,44.6,86.6,55.7c2.4,1,3.4,1.2,4.5,1.4c1.2-2.8,3.3-5.6,3.3-8.4
		c0.1-48.7-0.1-97.4-0.4-147.2c-0.3-1.1,0.3-1.7,1.6-1.6c36.5,0,71.7,0,106.8,0c0.1,52.3,0.2,104.7,0.4,158.2
		c0.1,1.2-0.4,1.6-1.6,1.9c-36,7.7-70.9,4.4-106.9-1.4c0,37.4,0,72.4-1,107.3c-3.7,0-6.4,0-9.1,0c-0.5,0-1.1,0-2.9-0.9
		c-3.3-1.1-5.4-1.3-7.5-1.6c-1.2-0.1-2.5-0.2-5.1-1.1c-2.6-1-3.8-1.2-5.1-1.4c-0.5,0-1,0-2.6-0.9c-3.1-1.2-5.1-1.5-7.1-1.8
		c-0.6-0.1-1.2-0.1-2.9-0.9c-2.4-1-3.5-1.3-4.6-1.6c-51-15.8-93.3-44.9-127.9-85.4c-4-4.7-6.2-10.8-9.2-17.9
		c-0.6-2.9-1.1-4.1-1.7-5.4c-0.3-1.2-0.6-2.4-0.8-5.5c0-4.6,0-7.3-0.1-10.1c0.1-2,0.3-3.9,1.2-7.3c1-2.7,1.2-4,1.4-5.2
		c4-16,14.8-25.9,30.6-32.8C683.6,543.5,684.7,543,685.7,542.5z"/>
	<path class="st1" d="M943.8,1037.8c0.2,49.9,0.2,99.6,0.2,150.1c-36.2,0-71.3,0-108.5,0c0-44.5,0-88.6,0.1-134.1
		c0.1-1.5,0.7-2.2,1.7-1.9c35.9-4.7,70.8-9.7,105.8-14.8C943.1,1037.1,943.5,1037.5,943.8,1037.8z"/>
	<path class="st4" d="M943.6,456.7c-35.3,1.2-70.4,1.2-106.7,0.9c-1.1-35.1-1.1-69.9-1.1-106.1c35.9,0,70.6,0,106.5,0.2
		C943.6,386.4,943.7,420.9,943.6,456.7z"/>
	<path class="st5" d="M836.8,150c0.7,62.9,0.7,126.7,0.7,190.4c0,2.5-0.7,4.9-1.9,8c-0.8-60-0.7-120.7-0.5-181.3
		C835.2,161.6,835.8,156.2,836.8,150z"/>
	<path class="st1" d="M772.7,1051c19.6-0.5,40-0.6,61.9-0.4c1.4,0.3,1.7,0.9,1.7,0.9s-0.6,0.7-0.9,1
		C814.6,1052.4,794.1,1052,772.7,1051z"/>
	<path class="st1" d="M710.6,540.8c-5.3,0.6-11.3,0.6-18.5,0.6C697.2,541,703.5,540.7,710.6,540.8z"/>
	<path class="st1" d="M825.9,724.3c2-0.5,4.7-0.5,8.6-0.1c1.2,0.4,1.5,1.2,1.5,1.2s-0.5,0.5-0.8,0.8
		C832.2,725.9,829.4,725.3,825.9,724.3z"/>
	<path class="st1" d="M647.5,590.2c0.5,2.1,0.5,4.8,0.6,8.5C647.7,596.7,647.4,593.8,647.5,590.2z"/>
	<path class="st1" d="M815.5,721.9c1.5-0.3,3.5,0,6.1,0.7C820.2,722.9,818.2,722.6,815.5,721.9z"/>
	<path class="st1" d="M795.7,716.7c1.4-0.2,3.4,0.1,5.9,1C800.1,717.9,798.1,717.5,795.7,716.7z"/>
	<path class="st6" d="M877.2,109.3c-0.5,0.7-1.7,1.2-3.7,1.8C874,110.4,875.3,109.8,877.2,109.3z"/>
	<path class="st1" d="M805.2,719.3c0.8-0.3,2-0.1,3.7,0.5C808.2,720.1,806.9,720,805.2,719.3z"/>
	<path class="st1" d="M787.9,714.1c0.8-0.2,1.9,0,3.5,0.7C790.6,715.1,789.5,714.8,787.9,714.1z"/>
	<path class="st1" d="M831.8,614.6c-0.7,0.2-1.7,0.1-3.2-0.5C829.3,613.9,830.3,614,831.8,614.6z"/>
	<path class="st1" d="M648.7,605.7c0.6,0.5,1.2,1.8,1.7,3.8C649.8,609,649.2,607.7,648.7,605.7z"/>
	<path class="st1" d="M650,577.4c0.3,0.8,0.1,2.1-0.6,3.8C649.2,580.5,649.3,579.2,650,577.4z"/>
	<path class="st1" d="M720.5,543.6c-0.8,0.2-1.9,0-3.4-0.7C717.8,542.7,719,542.9,720.5,543.6z"/>
	<path class="st1" d="M685.1,542.4c-0.4,0.6-1.4,1.1-3,1.7C682.4,543.5,683.4,542.9,685.1,542.4z"/>
	<path class="st1" d="M1039.3,286.9c0.3,0-0.3,0.9-0.6,1C1038.4,287.5,1038.5,287.1,1039.3,286.9z"/>
	<path class="st1" d="M1041.8,284.4c0.4,0-0.4,0.9-0.7,1.1C1040.7,285.1,1040.9,284.7,1041.8,284.4z"/>
	<path class="st7" d="M931.9,128.1c-0.2,0.2-0.5-0.3-0.6-0.4C931.2,127.6,932,127.9,931.9,128.1z"/>
	<path class="st7" d="M930.1,125.8c-0.4,0.2-0.8-0.1-1.2-0.8C929.3,124.6,929.7,124.9,930.1,125.8z"/>
	<path class="st1" d="M1334.3,287.7c0,0.3-0.9-0.4-1-0.6C1333.7,286.7,1334.1,286.9,1334.3,287.7z"/>
	<path class="st4" d="M837.3,1051.9c-1-0.3-1.3-0.9-1.5-1.2c-0.2-34.7-0.2-69.1-0.1-104.7c35.6-6.5,71-11.8,107.7-17.4
		c0,34.3,0,70.3-0.2,107.3C908.2,1042.1,873.2,1047.1,837.3,1051.9z"/>
	<path class="st8" d="M837,725.7c-1-0.3-1.3-1.1-1.4-1.5c-0.2-35.3-0.2-70.3-0.2-107.7c36.1,5.8,70.9,9.1,106.7,1.7
		c1.1,35.8,1.1,71.7,0.9,108.6C907.7,731.8,872.8,732.7,837,725.7z"/>
</g>
</svg>
