<?xml version="1.0" encoding="utf-8"?>
<!-- Generator: Adobe Illustrator 28.2.0, SVG Export Plug-In . SVG Version: 6.00 Build 0)  -->
<svg version="1.1" id="Layer_1" xmlns="http://www.w3.org/2000/svg" xmlns:xlink="http://www.w3.org/1999/xlink" x="0px" y="0px"
	 viewBox="0 0 1728 1296" style="enable-background:new 0 0 1728 1296;" xml:space="preserve">
<style type="text/css">
	.st0{fill:#FA91AD;}
	.st1{fill:#F45477;}
	.st2{fill:#F45577;}
	.st3{fill:#EB0102;}
	.st4{fill:#EB0101;}
	.st5{fill:#F693AE;}
	.st6{fill:#F55477;}
</style>
<g>
	<g>
		<path class="st0" d="M1307,822.5c-20,29.9-40,59.9-61.2,90.8c-50.7,55.2-108.1,98.8-176.2,126.7c-11.7,4.8-15.6,10.4-15,22.9
			c1.1,24.3,0.4,48.8,0.4,73.2c-0.8-4.3-2.4-8.6-2.4-12.9c-0.2-24.4-0.1-48.8-0.1-74.7c-124.9,45.6-248.9,46-375.1-0.7
			c0,30.3,0,58.7-0.8,86.5c-0.8-26.3-1.1-51.9-0.6-77.6c0.2-8.1-2.9-11.9-10-15c-17.3-7.6-34.6-15.3-51.1-24.5
			c-44.9-25.2-85.5-55.9-119.8-94.8c-3.1-3.5-9.2-4.3-13.9-6.3c0.3-2.6,1.8-6,0.7-7.7c-18.5-28.1-37.3-55.9-55.3-85.1
			c1.6-2.1,2.8-2.8,3.4-3.8c18.5-28.1,37-56.1,55.3-84.3c1-1.6,0.8-4,1.1-6.1c10.4-10.9,20.8-21.8,31.1-32.8
			c44.1-47.3,95-85.1,155.8-111.6c2.9-0.1,4-0.1,5.5,0.7c1.5,3.1,2.6,5.3,3.7,7.6c14.1,28.1,46.2,38.3,73.7,23.6
			c23-12.3,31.8-34.7,26.1-64.7c2-0.7,3.2-1.4,4.5-2.1c13.2-1.8,26.4-5.2,39.6-5.2c34.8,0,69.6,1.3,104.4,2.4
			c3.7,0.1,7.3,1.5,12.5,3.1c2.9,1.2,4.3,1.5,5.5,2.9c-12.9,38.1,21.6,73.4,53.9,70.1c25.3-2.6,40.4-16,50.3-38.4c2,0,3.1,0,4.2,0
			c30.1,17.3,62.9,31.3,89.7,52.9c34.5,27.7,64,61.6,96.6,94.1c19.7,30,38.5,58.8,57.5,87.3C1302.1,820.8,1304.9,821.4,1307,822.5z"
			/>
		<path class="st1" d="M480.2,916.3c5.6,1.8,11.8,2.6,14.8,6.1c34.2,38.9,74.9,69.6,119.8,94.8c16.4,9.2,33.8,16.9,51.1,24.5
			c7.1,3.1,10.1,6.9,10,15c-0.5,25.7-0.2,51.4-0.3,78.2c-35.3,1.2-70.6,1.2-107.3,1.2c0-45.3,0-90.3,0-137.3
			c-25.8,9.8-49.7,18.6-73.3,28.3c-2.4,1-4.1,6.8-4.1,10.4c-0.3,27.4-0.2,54.8-0.2,82.2c0,4.1,0,8.3,0,13.3c-36.2,0-71.3,0-107.5,0
			c-0.3-3.5-0.8-7.1-0.8-10.7c-0.1-52.7,0.2-105.4-0.3-158.1c-0.1-8.8,2.9-12.4,10.9-15.2C422,938.5,450.6,927.4,480.2,916.3z"/>
		<path class="st1" d="M1056.1,1136.2c-1.2-24.6-0.4-49-1.6-73.3c-0.6-12.5,3.3-18,15-22.9c68.2-28,125.5-71.5,175.9-125.9
			c31.8,11.7,62.9,23.3,93.6,35.7c3.9,1.6,8.7,7.2,8.7,11c0.5,55.6,0.4,111.3,0.3,166.9c0,1.6-0.5,3.2-0.9,5.3
			c-35.5,0-70.6,0-107.3,0c0-25.6,0-50.7,0-75.9c0-29.1,0-29.1-26.8-39.4c-15.3-5.9-30.7-11.5-46.1-17.2c-0.7-0.3-1.6,0-4,0
			c0,44.7,0,89.4,0,135.9C1126.7,1136.4,1092,1136.4,1056.1,1136.2z"/>
		<path class="st2" d="M1269.9,407.8c0-80.4,0-160.8,0-243.1c54.3,0.1,99.4,18.8,135.8,57c49.9,52.4,64.4,114.4,44.7,185.1
			C1389.1,407.7,1329.5,407.7,1269.9,407.8z"/>
		<path class="st1" d="M281.3,410.3c-40.8-126.5,60.2-248.4,179.8-244.8c0,79.9,0,159.8-1.2,240.9c-55.6,1.2-110.1,1.1-164.5,1.3
			C290.7,407.7,286,409.4,281.3,410.3z"/>
		<path class="st1" d="M1307.6,821.9c-2.6-0.5-5.5-1.1-6.7-2.9c-19-28.6-37.8-57.3-56.8-86.9c37.9-43.3,76-85.8,115.1-129.4
			c-16.1-20.8-32.1-41.5-47.9-63.4c38-9.6,69.7-28.4,96.5-55.9c1.8,4,3,8.6,5.6,12c26.1,34.1,52.4,68,78.7,101.9
			c2.5,3.3,4.8,6.8,8,11.2C1436,679.6,1372.1,750.4,1307.6,821.9z"/>
		<path class="st1" d="M485.8,728.5c0.2,2.7,0.5,5.2-0.6,6.8c-18.3,28.2-36.8,56.3-55.3,84.3c-0.7,1-1.8,1.7-3.6,2.9
			c-44.6-48-88.5-96.3-132.3-144.7c-20.6-22.8-41.1-45.7-62.6-69.6c31.1-40.3,62.2-80.5,94.3-121.2c9.1,6.3,16.1,14.7,25.2,19.4
			c22.8,11.9,46.4,22,69.7,32.9c-15.8,21.1-31.6,42.2-47.9,64C410.5,645,447.9,686.4,485.8,728.5z"/>
		<path class="st3" d="M1408.4,482.7c-27.4,28.1-59.1,47-97.6,55.9c-13.5,1.5-26.3,2.5-40,2.1c-1-45.3-1.1-89-1.2-132.8
			c0,0,0-0.1,0.1-0.1c59.7,0,119.3-0.1,180.1-0.1C1443.5,436.2,1428.7,460.5,1408.4,482.7z"/>
		<path class="st4" d="M421.7,539.1c-24.4-10.8-48-20.9-70.8-32.8c-9-4.7-16.1-13.2-24.8-20.3c-20-22.1-35.8-45.9-44.7-74.9
			c4.5-1.9,9.2-3.5,13.9-3.6c54.4-0.2,108.9-0.1,164.5-0.1c1.2,0,1.1,0,1.1,1.2c0.1,45.1,0.1,89.1,0.1,133
			C448.4,540.8,435.6,540,421.7,539.1z"/>
		<path class="st1" d="M462.3,541.8c-1.1-44-1.1-88-1.2-133.2c45-1.2,89.9-1.2,134.9-1.2C592.5,466.7,539.3,533.6,462.3,541.8z"/>
		<path class="st1" d="M1268.5,407.7c1.3,43.9,1.3,87.6,1.3,132.6c-51.4-0.4-106.8-43.4-126.4-97.3c-4-11-6.4-22.5-9.9-35.4
			C1179.2,407.6,1223.3,407.6,1268.5,407.7z"/>
		<path class="st5" d="M785.9,549.7c-0.4,0.9-1.6,1.6-4.6,2.2c-14.3,2.6-27.3,4-39.4,8.2c-21.5,7.4-42.4,16.4-63.5,24.7
			c-1.1,0-2.2,0-4.2,0c0-4.4,1.6-8.9,1.6-13.3c0.5-26.2,15.6-47.5,38.9-54.2c24.7-7.1,47.9,1.9,62.9,24.3
			C779.6,544.5,782.5,546.8,785.9,549.7z"/>
		<path class="st5" d="M1056.7,583.8c-0.7,0.9-1.8,1-4.2,0.2c-33.8-16.3-67.8-27.2-103.6-32c-1.4-0.4-2.8-0.7-4.6-1.6
			c3-3.8,7.1-6.7,9.8-10.5c14.3-21,38.1-29.8,62.3-22.5c22.7,6.8,38,28.1,38.3,53.2C1054.7,574.7,1055.7,578.8,1056.7,583.8z"/>
		<path class="st6" d="M678.8,585.5c20.8-9.1,41.7-18.1,63.1-25.5c12.1-4.1,25-5.5,38.6-8.1c7.4,30-1.4,52.5-24.3,64.7
			c-27.5,14.7-59.6,4.5-73.7-23.6C681.4,590.9,680.3,588.6,678.8,585.5z"/>
		<path class="st6" d="M948.8,553c36,3.7,69.9,14.6,102.9,31c-8.6,23.1-23.7,36.5-48.9,39.1C970.4,626.4,935.9,591.1,948.8,553z"/>
	</g>
</g>
</svg>
