<?xml version="1.0" encoding="utf-8"?>
<!-- Generator: Adobe Illustrator 28.2.0, SVG Export Plug-In . SVG Version: 6.00 Build 0)  -->
<svg version="1.1" id="Layer_1" xmlns="http://www.w3.org/2000/svg" xmlns:xlink="http://www.w3.org/1999/xlink" x="0px" y="0px"
	 viewBox="0 0 1728 1296" style="enable-background:new 0 0 1728 1296;" xml:space="preserve">
<style type="text/css">
	.st0{fill:#3ED8EB;}
	.st1{fill:#3FD8EA;}
	.st2{fill:#3DD9EB;}
	.st3{fill:#9BA4BF;}
	.st4{fill:#7CAAD2;}
	.st5{fill:#00B3D7;}
	.st6{fill:#6B1CFF;}
</style>
<g>
	<g>
		<path class="st0" d="M1080,594.4c0-113.3,0-226.6,0-344.4c37,19.9,71.7,36.8,104.6,56.7c135.9,82.3,240.8,194.7,317.9,333.5
			c4.2,7.6,4.1,13.3-0.1,20.8c-46.4,84-104.2,159.2-174.2,224.8c-69.1,64.6-146.7,116.8-232.7,156.2c-4.5,2-9.2,3.6-15.3,5.9
			c0-113.9,0-226.3,0-340.8c-0.1-2.4-0.1-3,1.1-3.4c36.3,0,71.3,0,106.5,0c0-36.4,0-70.7,0-106.3c-36.5,0-72.1,0-107.7-0.8
			C1080.1,595.4,1080,594.9,1080,594.4z M1298.6,569.5c19.9-1.6,33.9-11.8,38.8-28.6c4.8-16.2-0.9-33.8-14.1-44
			c-13.6-10.4-31.5-11.3-46-2.2c-14.7,9.2-21.4,25.5-17.9,43.8C1262.5,554.5,1276.9,566.6,1298.6,569.5z"/>
		<path class="st1" d="M623.1,706.4c0,44.1,0,88.3,0,133.1c-36.9,0-72.1,0-108.5,0c0-44.2,0-87.8,0-133.2c-18.3,0-35.4-0.4-52.5,0.4
			c-3.1,0.1-6.6,4.5-9,7.7c-45.9,61.8-91.7,123.8-137.5,185.7c-2.2,3-4.8,5.8-8.3,9.9c-28.8-21.3-57.3-42.5-86.9-64.4
			c19.7-26.6,38.8-52.6,58-78.6c26.8-36.2,53.5-72.5,80.6-108.4c4.8-6.4,3.9-10.5-0.6-16.5c-44.1-59-87.8-118.3-131.6-177.5
			c-2-2.6-3.6-5.5-6-9.2c29-21.5,57.5-42.7,86.9-64.6c19.9,26.7,39,52.3,58,77.9c30.3,41,60.4,82,90.9,122.8c2.2,3,7.1,5.3,10.9,5.6
			c11.3,0.7,22.7-0.3,34.1,0.4c10.2,0.6,13-3.6,12.9-13.3c-0.4-35.8-0.2-71.7-0.2-107.5c0-4.6,0-9.2,0-14.8c35.9,0,71.1,0,108.5,0
			c0,43.2,0,86.8,0,132.2c0,2.2,0,2.7-1.2,3.1c-32.3,0-63.4,0.4-94.5-0.2c-10.8-0.2-13.5,3.4-13.2,13.7c0.6,26.9,0.7,53.9,0,80.8
			c-0.3,10.5,3.6,12.6,13.1,12.5c31.9-0.5,63.9-0.2,95.8,0.5C623,705.5,623.1,706,623.1,706.4z"/>
		<path class="st2" d="M893.1,245.9c34.5-0.1,69.1-0.2,104.8,1c1.2,14.8,1.2,28.3,1.2,41.7c0.1,102.8,0.2,205.5-0.9,308.4
			c-36,0-70.8,0-105.5-1.3C893,478.4,893.1,362.2,893.1,245.9z"/>
		<path class="st2" d="M999.1,1055.1c-34.5,0.1-69.1,0.2-104.8-1c-1.2-14.8-1.2-28.3-1.2-41.7c-0.1-102.8-0.2-205.5,0.9-308.4
			c36,0,70.8,0,105.5,1.3C999.2,822.7,999.2,938.9,999.1,1055.1z"/>
		<path class="st2" d="M704,946.4c-0.2-71.2-0.3-142.5-0.5-213.7c0-8-0.1-16-0.1-25.8c0-2.3,0-2.7,1.2-3.1
			c35.9,0.2,70.7,0.3,105.4,1.6c-0.1,80.9-0.1,160.7-0.1,241.1C772.9,946.4,738.5,946.4,704,946.4z"/>
		<path class="st2" d="M703.2,594.7c0.2-79.2,0.3-158.5,1.8-238.9c35.6-1.2,69.8-1.2,105.1-1.2c0,82.3,0,162.3-1.2,242.4
			c-36,0.2-70.7,0.3-105.4-0.4C703.3,595.5,703.3,595.1,703.2,594.7z"/>
		<path class="st3" d="M892.7,704.1c0.1,102.8,0.2,205.5,0.3,308.3c0,13.5,0,27,0.1,41.6c-0.8-3.5-2.5-8.2-2.5-12.8
			c-0.1-105.9-0.1-211.7-0.1-317.6c0-5,0-10.1,0-17.3c-25.6,0-50.6,0-76.9-0.5c-1.2-0.5-1.3-1.7-1.3-1.8c0-0.1-0.2-0.3,1-0.3
			C840.6,703.8,866.6,703.9,892.7,704.1C892.7,704.1,892.7,704.1,892.7,704.1z"/>
		<path class="st3" d="M999.5,596.9c-0.1-102.8-0.2-205.5-0.3-308.3c0-13.5,0-27-0.1-41.6c0.8,3.5,2.5,8.2,2.5,12.8
			c0.1,106,0.1,212.1,0.1,318.1c0,5,0,10,0,16.7c25.9,0,51,0,77.1-0.2c1.2,0.3,1.2,0.8,1.2,2.1c0,0.7,0,0.8-1.2,0.8
			C1051.6,597.3,1025.6,597.1,999.5,596.9C999.5,597,999.5,596.9,999.5,596.9z"/>
		<path class="st3" d="M1000,1054.6c-0.8-115.7-0.8-232-0.6-349.4c0.1-1.2,0.1-1.2,1.3-1.3c27.2-0.2,53.3-0.2,79.4-0.3c0,0,0,0,0,0
			c0,0.5,0,1,0,2.3c-25.6,0.8-51.1,0.8-78.4,0.8c0,5.5,0,10.4,0,15.3c0,106.1,0,212.2,0,318.3
			C1001.6,1044.9,1001.2,1049.5,1000,1054.6z"/>
		<path class="st3" d="M892.2,246.4c0.8,115.7,0.8,231.9,0.6,349.4c-0.1,1.2-0.1,1.2-1.3,1.3c-27.2,0.2-53.3,0.2-79.3,0.2
			c0.1-0.1,0.2-0.3,0.2-0.9s0.1-1.8,0.1-1.8c25.5,0,51,0,78,0c0-6,0-10.9,0-15.8c0-106,0-212,0-318.1
			C890.6,256.1,891,251.5,892.2,246.4z"/>
		<path class="st4" d="M812.4,593.4c0.1,1.2,0,2.4-0.6,3c-0.6,0.6-1.7,0.4-1.7,0.4c0-80,0-160,0-242.3c-35.3,0-69.5,0-104.9,0
			c0.1-0.8,1.4-2.4,2.7-2.4c34-0.1,68.1-0.1,104.5-0.1C812.3,432.6,812.3,512.4,812.4,593.4z"/>
		<path class="st4" d="M812.4,704.1c0,0,0.1,1.2,0.1,1.8c0.1,80.7,0.1,160.8,0.1,242.5c-36.5,0-72,0-108-0.9
			c34-0.9,68.4-0.9,105.4-0.9c0-80.4,0-160.2,0.7-241.2C811.2,704,812.4,704.1,812.4,704.1z"/>
		<path class="st3" d="M702.1,594.7c1.2,0.4,1.3,0.8,1.4,1.9c0.1,0.7,0,0.6-1.2,0.7c-27.3,0-53.4,0-79.5,0c0,0,0.1,0,0.1,0
			c0-0.4,0-0.9,0.1-2C649,594.7,675,594.8,702.1,594.7z"/>
		<path class="st3" d="M703.4,703.8c0,0.4,0,0.9-0.1,2c-26,0.6-52,0.6-79,0.6c-1.2-0.4-1.3-0.8-1.4-1.9c-0.1-0.7,0-0.6,1.1-0.7
			C651.3,703.8,677.4,703.8,703.4,703.8C703.5,703.8,703.4,703.8,703.4,703.8z"/>
		<path class="st5" d="M1080,597.4c35.6,0,71.2,0,107.7,0c0,35.5,0,69.8,0,106.3c-35.2,0-70.3,0-106.5,0c-1.2,0-1.2,0-1.2-1.2
			C1080.1,666.7,1080.1,632,1080,597.4C1080.1,597.4,1080,597.4,1080,597.4z"/>
		<path class="st6" d="M1297.5,569.5c-20.6-2.9-35-15-38-31c-3.5-18.3,3.2-34.5,17.9-43.8c14.5-9.1,32.4-8.2,46,2.2
			c13.2,10.1,18.8,27.8,14.1,44C1332.4,557.7,1318.5,568,1297.5,569.5z"/>
		<path class="st5" d="M622.8,703.8c-31.9,0-63.8-0.3-95.8,0.2c-9.5,0.1-13.4-1.9-13.1-12.5c0.7-26.9,0.7-53.9,0-80.8
			c-0.2-10.2,2.4-13.9,13.2-13.7c31.1,0.7,62.2,0.2,94.5,0.2c1.2,0,1.1,0,1.1,1.2C622.8,634.4,622.8,669.1,622.8,703.8
			C622.8,703.8,622.8,703.8,622.8,703.8z"/>
		<path class="st5" d="M999.5,704.1c-34.8,0-69.6-0.1-105.6-0.1c-1.2,0.1-1.2,0-1.1-1.2c0-36.1-0.1-70.9-0.1-105.8c0,0,0,0,0-0.1
			c34.8,0,69.6,0.1,105.6,0.1c1.2-0.1,1.2,0,1.1,1.2C999.4,634.3,999.5,669.2,999.5,704.1C999.6,704,999.5,704.1,999.5,704.1z"/>
		<path class="st5" d="M812.3,704c0,0.1-1.1,0.1-1.7,0.2c-35.3,0-70.1-0.2-106-0.3c-1.2,0-1.1,0-1.1-1.2c0-35.9,0-70.6,0-105.4
			c0,0,0,0.1,0,0.1c34.7-0.1,69.4-0.1,105.4-0.3c1.2-0.2,2.3,0.1,2.9,0c0.6,0,0.5,0.2,0.4,1.5c-0.1,35.9-0.1,70.5,0,105.1
			C812.1,703.6,812.3,703.8,812.3,704z"/>
		<path class="st2" d="M813.3,703.7c-1.2-34.6-1.2-69.2-1.2-105c26.1-1.3,52.2-1.3,79.4-1.5c1.2,34.8,1.3,69.6,1.2,105.7
			C866.6,703.9,840.6,703.8,813.3,703.7z"/>
		<path class="st2" d="M1000.7,703.9c-1.2-34.8-1.3-69.6-1.2-105.7c26.1-1.1,52.2-1,79.4-0.8c1.2,34.6,1.2,69.3,1.2,105.1
			C1054,703.7,1027.9,703.8,1000.7,703.9z"/>
		<path class="st2" d="M702.3,597.3c1.2,34.7,1.2,69.4,1.2,105.3c-26.1,1.2-52.2,1.1-79.5,1.1c-1.2-34.7-1.2-69.4-1.2-105.3
			C648.9,597.3,675,597.3,702.3,597.3z"/>
	</g>
</g>
</svg>
