<?xml version="1.0" encoding="utf-8"?>
<!-- Generator: Adobe Illustrator 28.2.0, SVG Export Plug-In . SVG Version: 6.00 Build 0)  -->
<svg version="1.1" id="Layer_1" xmlns="http://www.w3.org/2000/svg" xmlns:xlink="http://www.w3.org/1999/xlink" x="0px" y="0px"
	 viewBox="0 0 1728 1296" style="enable-background:new 0 0 1728 1296;" xml:space="preserve">
<style type="text/css">
	.st0{fill:#3ED8EA;}
	.st1{fill:#03B3D7;}
	.st2{fill:#3ED7EA;}
	.st3{fill:#01B4D7;}
	.st4{fill:#41D5E9;}
	.st5{fill:#51CCE2;}
	.st6{fill:#02B4D7;}
	.st7{fill:#04B5D8;}
	.st8{fill:#1C19C7;}
</style>
<g>
	<path class="st0" d="M874.6,998.8c-45.9-15.4-91.9-30.8-141-52.7c-0.9-0.4-1.6-1.1-1.9-2c-2.4-5.8-2.5-11.3,0.4-13.8
		c0.5-0.5,0.9-1,1.1-1.7c5.4-16.3,12.7-37.7,7-42.1c-32.8-25.5-67.4-50.1-104.9-67.5c-12.2-5.7-34.7,11-56.6,17.6
		c-0.3,0.1-0.7,0.2-1,0.2c-5.1,0.1-7.8,0.2-10,0.3c-0.9,0.1-1.8-0.3-2.6-0.9c-22.7-19.1-45.6-38.2-76-63.7c-1.3-1.1-3.1-1.2-4.5-0.2
		c-64.6,44.4-138.9,95.6-218.4,150.3c-2.4,1.7-5.8-0.1-5.8-3V402.4c0-3,3.4-4.7,5.8-3c80,56.4,156.4,110.4,222.3,156.8
		c1.2,0.9,2.8,0.9,4.1,0.1c89.7-56.3,175-109.8,265.8-158.2c2.1-1.1,4.7,0,5.3,2.3c6.5,23.7,8.5,43.4,10.3,64.3
		c0.2,1.9,1.8,3.4,3.7,3.4h314.8c2.3,0,4-2.1,3.6-4.4c-6.6-35.3-12.1-65.5-16.7-96.6c-0.2-1.2,0.2-2.4,1.1-3.2
		c0.1-0.1,0.2-0.2,0.2-0.2c1-1,2.5-1.3,3.8-0.8c34.9,12.9,69.9,25.8,106.8,44.1c2,1,2.7,3.6,1.3,5.4
		c-137.1,192.5-136,329.8,6.2,526.2c1.4,2,0.6,4.7-1.6,5.6c-34.9,13.8-69.9,27.5-110.5,41.1c-0.4,0.1-0.9,0.2-1.4,0.2
		c-5.5-0.4-7.3-2.6-5.8-7.4c5.2-23.6,9-42.8,13.2-63.7c0.5-2.3-1.3-4.4-3.6-4.4H884.9c-2,0-3.7,1.7-3.7,3.7c0,29.9,0,54.9-1.1,80.8
		c0,0.9-0.4,1.8-1,2.4c-0.2,0.2-0.5,0.5-0.7,0.7C877.4,998.9,875.9,999.2,874.6,998.8z"/>
	<path class="st1" d="M1199,938.8c-148.5-198.6-148.6-338.1-5.8-529.8c0.9-1.2,7.4,2.5,8.9,2.9c132.9,37.1,215.7,134.7,287.3,243.6
		c7.5,11.4,0.8,39.5-8.7,53.6c-68,101.5-151.6,186.1-271.5,233.2C1207.7,943,1200,940.1,1199,938.8z M1077.2,974.9 M1205.5,604.6
		c-0.5,0.5-0.9,1.2-1,2c-6.5,36.1,8.5,58.9,45.3,51.1c12.9-2.8,32.1-35.9,27.9-48.3C1266,574.1,1239,571.1,1205.5,604.6z"/>
	<path class="st2" d="M771.4,374.4V187.5c0-1.6,1-3,2.5-3.5c111.3-37.6,250.1,21.1,307.3,173.4c0.1,0.2,0.1,0.3,0.2,0.5
		c1,4.4-1.2,6.4-7.2,5.9c-0.1,0-0.3,0-0.4,0c-103.6,4.4-201.1,9.3-298.4,14.3C773.1,378.2,771.4,376.5,771.4,374.4z"/>
	<path class="st3" d="M771.8,380.8c98.7-7.5,195.9-12.5,298.2-15.9c1.6-0.1,3.1,1,3.6,2.5c10.2,31.2,16,61.3,22.5,96.3
		c0.4,2.3-1.3,4.4-3.6,4.4H777.7c-1.9,0-3.5-1.5-3.7-3.4c-2-22.2-3.8-43.1-6.7-69.4c-0.9-4.7,0.2-9.4,1.5-12.4
		C769.3,381.8,770.5,380.9,771.8,380.8z"/>
	<path class="st4" d="M1079.8,988.9c-41.7,75.8-96.7,131.9-198.9,130.1c-2,0-3.6-1.7-3.6-3.7c0-36,0-70-0.3-109.7
		c-0.3-6,1.9-8.3,8.7-8.2c0.1,0,0.2,0,0.3,0c67.9-4.6,129.1-9.3,190.3-14c1.1-0.1,2.2,0.3,3,1.2c0,0,0,0,0,0
		C1080.4,985.8,1080.6,987.5,1079.8,988.9z"/>
	<path class="st5" d="M567.1,842.3c1.6-5.2,4.2-5.4,12.3-1.3c0.1,0,0.2,0.1,0.3,0.2c52.7,32.8,100.1,61.4,147.4,89.9
		c1.1,0.7,1.8,1.8,1.8,3.1c0,1.3,0,3.1,0,4.8c0,1.8-1.2,3.3-3,3.6c-61.4,12-123,21.1-197,31.9c-2.7,0.4-4.9-2.3-4-4.9
		C543.5,917.3,555.8,882.2,567.1,842.3z"/>
	<path class="st6" d="M1070.1,987.2c-61.5,9.3-120.5,10-185.9,13.4c-1.8,0.1-5.4-0.9-5.8-2.7c-4.9-25.5,2.8-54.8,2.8-84
		c0-2,1.6-3.7,3.7-3.7h204.3c2.3,0,4.1,2.1,3.6,4.4c-4,20.2-7.9,48.7-12.8,71.1C1079.6,987.2,1071.6,987,1070.1,987.2z"/>
	<path class="st7" d="M721.9,930.3c-48.8-25.2-104.7-61.1-151.3-92.2c-2.2-1.5,5.8-3.6,8-5.1c15.9-10.7,45.3-19.2,56.5-14
		c37.5,17.4,72.1,42,104.9,67.5c5.4,4.2-2.3,31.8-7.5,47.6C731.9,936.4,723.9,931.4,721.9,930.3z"/>
	<path class="st8" d="M1195.7,611.6c0.8-11.1,6.6-21.1,15.7-27.4c25.5-17.7,55.2-14.2,70.3,14.2c9.9,18.6,18.3,48.5-34.9,64.8
		C1215.6,672.8,1193.4,642.3,1195.7,611.6z"/>
</g>
</svg>
