<?xml version="1.0" encoding="utf-8"?>
<!-- Generator: Adobe Illustrator 28.2.0, SVG Export Plug-In . SVG Version: 6.00 Build 0)  -->
<svg version="1.1" id="Layer_1" xmlns="http://www.w3.org/2000/svg" xmlns:xlink="http://www.w3.org/1999/xlink" x="0px" y="0px"
	 viewBox="0 0 1728 1296" style="enable-background:new 0 0 1728 1296;" xml:space="preserve">
<style type="text/css">
	.st0{fill:#FFFFFF;}
	.st1{fill:#F55376;}
	.st2{fill:#3FD8EA;}
	.st3{fill:#3FD7EA;}
	.st4{fill:#6D1AFE;}
	.st5{fill:#EB0101;}
</style>
<g>
	<path class="st0" d="M713.6,648c26.6,1.1,48.6-9.8,68.4-27c7.5,5.8,14.3,11.2,21.4,18.2c6.5,10.8,12.9,21.7,19.7,32.4
		c12.7,20,16.6,42,9.5,64.1c-5,15.7-14,30.3-22.5,44.7c-17.3,29.2-27,60-28.3,94.3c-1.7,44.9,10.9,84.7,36,121.2
		c24.3,35.4,23.8,70.3,0,105.8c-8.2,12.2-15.6,25.1-21.5,38.5c-10.2,23.5-16.5,48.1-13.4,74c36.4,0,71.6,0,107.8,0
		c-1.8-22.5,8.9-39.7,20.4-56.4c30-44.1,38.3-92.5,30.2-144.5c-4.4-28.1-16.2-52.9-31.8-76.2c-10.7-15.9-18.7-32.5-19.2-52.5
		c-0.5-21.9,7.4-40.1,19.3-57.5c24.4-35.4,35.8-74.4,34.5-117.8c-0.8-28.9-8.4-55.5-17.7-80.2c31.1,22.3,64.4,24.7,100.3,11.9
		c6.6,10.8,13.6,21.3,19.7,32.3c16.3,29.3,15.8,58.6-1.4,87.4c-4.3,7.2-9,14.2-13.4,21.4c-25.7,41.2-31.6,86-25,133.4
		c4.5,32.2,20,59.4,37,86.2c19.2,30.1,19.7,60.8,1.5,91.6c-5.1,8.7-10.9,17-15.9,25.8c-16.7,29.3-26.4,60.5-24.4,95.1
		c36.4,0,71.9,0,108.2,0c-1.9-24.5,11.2-42.5,23.1-60.8c27.9-42.6,34.9-89.2,27.7-138.9c-4.7-32.2-19.8-59.6-37.4-86
		c-9.4-14.1-13.2-29.5-13.8-46.4c-0.7-23.5,10.7-41.8,22.6-60.3c36.2-56.5,40.4-116.3,19.3-179.8c31.7-14.7,51.9-38.4,59.6-74.3
		c43.2,0,86.4,0,131.8,0c-7.1-177.2-78.3-318.2-227.4-410.6C944.2,48.9,764.2,51.1,592,162.5c-143.7,93-212.7,231.7-218.7,405.1
		c39.1,0,76.1,0,113.1,1.9c4.9,28,19.9,49.1,43.4,64.6c17.9,11.8,38,14.3,59.3,15.9c13.4,19.6,24.8,39.5,24.1,64.9
		c-0.6,22.5-11.1,40.2-22.7,57.7c-32,48.2-39.1,101.1-24.8,155.8c6.3,23.8,19.8,46.2,32.6,67.7c13.7,23.2,19.3,47.1,11.5,72.4
		c-4.4,14.1-13.4,27-21.2,39.9c-19.2,31.5-30.8,64.9-28.5,102.9c36.4,0,71.9,0,108.1,0c-1.3-21.9,8.5-39,19.7-55.6
		c33.2-48.8,42.6-102.6,27.5-158.9c-6.6-24.6-20.4-47.7-33.2-70.2c-18.5-32.3-19.9-63.4,0.1-95.1c4-6.4,8.1-12.8,12-19.3
		C725.3,760.3,729.3,705.5,713.6,648z"/>
	<path class="st1" d="M486.3,567.6c-36.9,0-73.8,0-113,0c6-173.4,75-312.1,218.7-405.1C764.2,51.1,944.2,48.9,1118.6,157
		c149.2,92.4,220.3,233.4,227.4,410.6c-45.4,0-88.6,0-133,0c-1.2,0-1.7-0.9-1.4-1.9c0.9-6,2.3-11,2-16c-2.9-51.1-43.4-91.1-95-91.2
		c-179.7-0.5-359.4-0.6-539.1,0c-58.4,0.2-100.1,50.3-92.5,108.5C486.9,567.3,486.3,567.6,486.3,567.6z"/>
	<path class="st2" d="M1153.1,643c22.5,62.4,18.3,122.2-17.9,178.7c-11.9,18.5-23.3,36.8-22.6,60.3c0.5,17,4.4,32.4,13.8,46.4
		c17.6,26.4,32.7,53.8,37.4,86c7.2,49.7,0.3,96.3-27.7,138.9c-12,18.3-25.1,36.3-23.1,60.8c-36.3,0-71.8,0-108.2,0
		c-2-34.7,7.6-65.8,24.4-95.1c5-8.8,10.8-17.1,15.9-25.8c18.2-30.8,17.7-61.5-1.5-91.6c-17-26.7-32.5-53.9-37-86.2
		c-6.6-47.4-0.7-92.2,25-133.4c4.5-7.1,9.1-14.2,13.4-21.4c17.2-28.8,17.7-58.1,1.4-87.4c-6.1-11-13.1-21.6-19.8-33.6
		c8.3-6.9,16.6-12.5,24.5-17.9c9.6,6,19.1,13,29.5,18.1C1104.2,651.5,1128.7,649.2,1153.1,643z"/>
	<path class="st2" d="M924.5,627.6c11.1,26.1,18.7,52.7,19.6,81.5c1.2,43.4-10.2,82.4-34.5,117.8c-12,17.4-19.8,35.6-19.3,57.5
		c0.5,20,8.5,36.5,19.2,52.5c15.6,23.3,27.5,48.2,31.8,76.2c8.1,52-0.2,100.5-30.2,144.5c-11.4,16.8-22.2,34-20.4,56.4
		c-36.2,0-71.4,0-107.8,0c-3.1-25.9,3.2-50.5,13.4-74c5.8-13.4,13.3-26.3,21.5-38.5c23.8-35.5,24.3-70.4,0-105.8
		c-25.1-36.4-37.7-76.3-36-121.2c1.3-34.3,11.1-65.1,28.3-94.3c8.5-14.4,17.5-29,22.5-44.7c7.1-22.1,3.2-44.1-9.5-64.1
		c-6.8-10.7-13.1-21.6-18.9-33.2c41.7,17.6,79,12.1,114.3-19.4C920.7,622.1,922.6,624.8,924.5,627.6z"/>
	<path class="st3" d="M711.3,648.3c18,57.1,14,111.9-17.1,163.9c-3.9,6.5-8,12.9-12,19.3c-20,31.7-18.6,62.8-0.1,95.1
		c12.8,22.4,26.6,45.5,33.2,70.2c15.1,56.3,5.7,110.1-27.5,158.9c-11.3,16.5-21,33.7-19.7,55.6c-36.2,0-71.7,0-108.1,0
		c-2.3-38,9.4-71.4,28.5-102.9c7.8-12.9,16.8-25.7,21.2-39.9c7.8-25.3,2.3-49.2-11.5-72.4c-12.8-21.5-26.3-43.9-32.6-67.7
		c-14.4-54.7-7.2-107.6,24.8-155.8c11.7-17.6,22.1-35.2,22.7-57.7c0.7-25.4-10.7-45.3-23.5-65.9c22.2-4.3,41.2-13.1,57.5-28.9
		C665.3,637.3,686.6,646.9,711.3,648.3z"/>
	<path class="st4" d="M712.5,648.2c-25.9-1.3-47.1-10.9-65.2-28.1c-16.3,15.9-35.3,24.6-57.9,28.2c-21.6,0.1-41.6-2.4-59.5-14.2
		c-23.5-15.5-38.5-36.6-43.4-65.6c-0.1-1,0.5-1.2,1.8-1.5c241.9-0.3,482.5-0.3,723.2-0.4c0,0,0.5,0.9,0.8,1.4
		c-5.7,35.4-25.9,59.1-58.3,74.4c-25.2,6.8-49.7,9-73.1-2.6c-10.4-5.2-20-12.2-29.5-18.1c-7.9,5.3-16.3,11-25,17.2
		c-35.4,14.7-68.6,12.3-100.7-10.6c-2.9-3.4-4.8-6.2-7-9.3c-35.3,31.5-72.6,37-114.4,18.6c-7.8-5.4-14.6-10.7-22.1-16.6
		C762.2,638.2,740.1,649.1,712.5,648.2z"/>
	<path class="st5" d="M1211.6,565.7c-240.9,1.1-481.5,1.1-723.3,1.1c-8.9-57.9,32.9-108.1,91.2-108.2c179.7-0.6,359.4-0.5,539.1,0
		c51.6,0.1,92.1,40.1,95,91.2C1213.9,554.7,1212.5,559.7,1211.6,565.7z"/>
</g>
</svg>
