<?xml version="1.0" encoding="utf-8"?>
<!-- Generator: Adobe Illustrator 28.2.0, SVG Export Plug-In . SVG Version: 6.00 Build 0)  -->
<svg version="1.1" id="Layer_1" xmlns="http://www.w3.org/2000/svg" xmlns:xlink="http://www.w3.org/1999/xlink" x="0px" y="0px"
	 viewBox="0 0 1728 1296" style="enable-background:new 0 0 1728 1296;" xml:space="preserve">
<style type="text/css">
	.st0{fill:#F45477;}
	.st1{fill:#3ED9B4;}
	.st2{fill:#03B46B;}
	.st3{fill:#FAC7D4;}
	.st4{fill:#F9C7D4;}
	.st5{fill:#F9C7D5;}
	.st6{fill:#6E1BFE;}
	.st7{fill:#03B46A;}
	.st8{fill:#03B469;}
	.st9{fill:#40D8B3;}
	.st10{fill:#40D8B2;}
	.st11{fill:#F9AEC0;}
</style>
<g>
	<path class="st0" d="M730.8,810.6c-41-20.4-82.3-40.5-123.1-61.4c-66.8-34.3-136.5-59.4-211.5-67.5c-19.6-2.1-39.4-3.3-59.2-3.5
		c-9.6-0.1-12-3.5-12.3-12.5c-2.6-71,27.7-126.2,81.6-169.7c13.4-10.8,27.8-20.9,43.2-28.2c20.4-9.6,31.6-25.4,39.4-45.3
		c8-20.4,15.9-40.9,25.6-60.4c15.4-31,40.4-52.5,74-60.4c57.4-13.5,92.4-50.5,114.4-102.8c7-16.7,14.3-33.3,21.7-49.8
		c42.6-95.5,154.5-123.9,237.9-60.1c39.3,30.1,63,70.1,63.6,119.7c0.6,55.3,24,96,67.8,127c32.6,23.1,66.4,44.7,98,69.1
		c64,49.5,84.9,117.1,75.9,195.3c-10.2,88.8-62.7,146.4-139.3,185.3c-40.1,20.4-82.8,32.6-127.8,40.6c-0.1-30.6-3.3-59.5-14-87.6
		c0.2-0.4,0.2-1.3,1.1-1.5c6-3,11.4-5.5,16.3-8.7c12.4-8.2,21.8-18.9,22.7-34.5c0.9-15.2-3.7-28.6-17.4-36.8
		c-16.4-9.8-32.8-8.5-49,1.8c-0.3-0.1-1-0.3-1.1-1.4c-4.6-20.7-9-40.3-13.4-60.7c0.1-1.1,0-1.6,0.2-3.1c3.4-30.1,6.6-59.1,10.2-88.6
		c1.7-1.5,3.1-2.5,4.8-2.6c18.4,35.3,32.5,72.6,68.6,93.9c9,5.3,16.5,12.9,24.8,19.5c27.2,21.8,54.4,43.5,82.8,66.2
		c16.9-21.2,33.3-41.7,49.9-62.5c-3.8-3.6-6.4-6.4-9.3-8.7c-26.9-21.6-53.4-43.8-81-64.4c-25.1-18.7-45.5-40-58.4-69.3
		c-11.6-26.5-26.6-51.6-40.6-77.1c-16.2-29.7-40.5-46.6-75.3-46c-9.5,0.2-19,0-28.7,0c-0.4-4.3-0.9-6.8-0.9-9.3
		c-0.1-7.2-0.5-14.4,0.2-21.5c0.4-3.3,2.6-6.9,5-9.2c33.9-31.5,48.2-71.1,47.8-116.6c0-4.2-1.7-10.5-4.6-12.2
		c-21.1-11.9-32.6-31-41.1-53.1c-2,1.2-3.5,2-4.7,3c-31,24.6-64.3,44.4-103.5,53c-3.1,0.7-7,7.2-7,11c0,44.5,13.7,83.4,47.3,114.1
		c2.6,2.3,5.2,6,5.4,9.2c0.7,10,0.3,20,0.3,31.6c-10.5,0-19.7,0-28.8,0c-34.5-0.1-59.3,15.7-75.3,45.9
		c-14.8,27.9-29.1,56.1-44.6,83.6c-8.3,14.8-13.6,31.4-28.7,42.2c-19.5,13.9-37.7,29.6-56.4,44.6c-19.9,16-39.8,32.1-60.3,48.7
		c17.2,21.4,33.7,41.9,50.6,63c40.4-32.3,79.4-63.5,118.4-94.9c8.4-6.8,18.6-12.9,24-21.8c12.5-20.4,22.6-42.3,34.2-63.4
		c1.7,1.3,2.9,2.4,3.9,4.6c3.3,30.1,6.6,59.1,9.9,88.8c0,1.1,0.1,1.6,0,3.1c-4.5,20.7-8.9,40.2-13.7,60c-0.4,0.1-1.2,0.3-1.9-0.4
		c-2.9-1.8-5.1-3.1-7.4-4c-20.7-8.1-42.9-1.4-52.7,15.9c-10.4,18.3-6.2,39.7,11.8,53.7c7.5,5.8,16.5,9.5,24.8,14.5
		c0.2,0.9,0.5,1.4,0.3,2.3C740.3,764.2,735.6,787.4,730.8,810.6z"/>
	<path class="st1" d="M731,811.7c4.6-24.3,9.3-47.5,16-70.7c25,4.9,48,10.8,71.3,14.5c14.5,2.3,29.5,1.2,44.6,2.1
		c1.6,0,2.9-0.4,4.9-0.1c6.1,1.2,11.8,2.7,16.9,1.7c34-6.5,67.8-13.5,101.7-20.3c10.8,27.7,14.1,56.6,13.2,87.3
		c-8.9,50.2-18.4,99.2-27.1,148.4c-6.8,38.2-10.1,76.7-4,115.4c8.8,55.3,52.2,84.6,106.7,69.5c18.7-5.2,35.5-17.1,54.1-26.9
		c9.7-5.9,18.5-10.7,29.6-16.9c-3.2,11.5-6,21.3-8.7,31c-14,23.9-28.2,47.6-50.7,65.1c-36.3,28.3-77.6,37-122.1,32.1
		c-82.8-9.2-136.7-59.1-176.2-128c-35.6-62-55.7-129.6-64.4-200.2C732.8,881.6,733,847,731,811.7z"/>
	<path class="st2" d="M1151,1147.2c2-10.3,4.7-20,8-31.5c-11.1,6.2-19.9,11.1-29.6,16c-46.7-36.7-68.4-85.9-74.3-143.1
		c-3.4-32.8-1.3-64.9,15.6-94.4c14.5-25.4,35.2-43.3,63.9-54.7c0.5,7.9,0.7,14.4,1.2,20.9c2.3,25.6,8.8,50.3,24,71.1
		c34.8,47.5,35.3,98.2,17.4,151.4c-0.5,1.5-0.7,3.1-0.7,3.3c19.4-12.8,38.2-28,59.3-38.7c54-27.6,107.5-28,157.9,9.6
		c17.2,12.9,28.8,30.4,37.6,52c-11.8,1-22.8,1.7-33.7,3.1c-30.9,4-59,16.3-86.3,30.5C1258.8,1169.8,1205.7,1170.5,1151,1147.2z
		 M1159.2,1112.5l0.4,0.3C1159.7,1112.8,1159.6,1112.3,1159.2,1112.5z"/>
	<path class="st3" d="M770.3,501.8c-11.1,21.3-21.2,43.2-33.7,63.6c-5.4,8.9-15.6,15-24,21.8c-38.9,31.4-78,62.6-118.4,94.9
		c-16.9-21.1-33.3-41.5-50.6-63c20.5-16.6,40.4-32.7,60.3-48.7c18.7-15,36.9-30.7,56.4-44.6c15.1-10.8,20.4-27.5,28.7-42.2
		c15.5-27.5,29.8-55.7,44.6-83.6c16-30.3,40.8-46.1,75.3-45.9c9.1,0,18.3,0,28.8,0c0-11.6,0.4-21.7-0.3-31.6
		c-0.2-3.2-2.9-6.8-5.4-9.2c-33.6-30.7-47.3-69.6-47.3-114.1c0-3.8,3.9-10.3,7-11c39.2-8.6,72.5-28.4,103.5-53c1.3-1,2.7-1.7,4.7-3
		c8.5,22.1,20,41.2,41.1,53.1c3,1.7,4.6,8,4.6,12.2c0.4,45.5-13.9,85-47.8,116.6c-2.5,2.3-4.7,6-5,9.2c-0.8,7.1-0.3,14.3-0.2,21.5
		c0,2.5,0.5,4.9,0.9,9.3c9.7,0,19.2,0.1,28.7,0c34.8-0.6,59.1,16.3,75.3,46c13.9,25.5,28.9,50.6,40.6,77.1
		c12.9,29.3,33.3,50.7,58.4,69.3c27.6,20.6,54.1,42.8,81,64.4c2.9,2.3,5.5,5.1,9.3,8.7c-16.6,20.8-33,41.3-49.9,62.5
		c-28.3-22.7-55.5-44.4-82.8-66.2c-8.2-6.6-15.8-14.2-24.8-19.5c-36.1-21.3-50.2-58.6-68.1-94.7c17.9-22.6,14.3-44.5-9.1-58.5
		c-14.5-8.7-30.4-9.8-46.4-7.3c-18.3,2.9-32.2,12.9-40.4,30.5c-16.5-26.3-39-36.4-68.2-30.5C763,442.8,742.7,474.7,770.3,501.8z"/>
	<path class="st4" d="M867.1,756.6c-1.3,0.4-2.5,0.8-4.1,0c-25.9-38.2-53.2-73.4-91.7-98.2c4.4-19.6,8.8-39.2,14.4-59.9
		c54.2-1.1,107.1-1.1,160-1c4.4,19.7,8.9,39.3,12.9,60.6C919.7,684.4,892.5,719.7,867.1,756.6z"/>
	<path class="st5" d="M955.8,505.6c-3.2,29-6.4,58-11,88.1c-54.3,1.1-107.2,1-160.1,1c-3.4-29-6.7-58-9.1-87.9
		c17.3,8.6,34.7,11.3,53,6.5c16.4-4.3,29.3-13.3,36.6-31.2c8.3,19.1,22.2,27.7,39.8,31.8C923.2,518.3,939.7,513.6,955.8,505.6z"/>
	<path class="st6" d="M956.2,505.1c-16.4,8.6-32.9,13.3-51.1,9c-17.6-4.1-31.5-12.8-39.8-31.8c-7.3,17.9-20.3,26.9-36.6,31.2
		c-18.2,4.8-35.7,2-52.9-7.6c-2-1.4-3.2-2.5-4.9-3.8c-28.1-27.3-7.8-59.2,26.4-66.1c29.2-5.9,51.7,4.2,68.2,30.5
		c8.3-17.6,22.2-27.6,40.4-30.5c16-2.5,31.8-1.5,46.4,7.3c23.4,14.1,27.1,36,8.9,57.7C959.3,502.5,957.9,503.5,956.2,505.1z"/>
	<path class="st7" d="M867.9,757.4c24.7-37.7,51.8-73,90.8-98.3c0.6-0.6,1.3-0.4,1.8,0.6c9.1,26.5,17.7,51.9,26.3,77.4
		c0,0-0.1,0.9-0.2,1.3c-34,7.2-67.9,14.3-101.9,20.7C879.6,760.1,874,758.6,867.9,757.4z"/>
	<path class="st8" d="M771,658.5c38.8,24.6,66.1,59.9,91.7,97.7c-14.8,0.5-29.9,1.5-44.3-0.8c-23.3-3.7-46.3-9.5-70.6-15
		c-1.7-0.9-2-1.3-1.9-3.3c1.6-6.7,2.5-12.1,4.1-17.2c6.5-20.4,13.2-40.7,19.8-61C769.7,658.8,770.6,658.6,771,658.5z"/>
	<path class="st9" d="M769,658.1c-5.9,21-12.6,41.3-19.1,61.7c-1.6,5.2-2.5,10.5-4.1,16.9c-8.6-3.6-17.7-7.2-25.2-13
		c-18-14-22.2-35.4-11.8-53.7c9.8-17.3,32-24,52.7-15.9C763.9,655,766.1,656.3,769,658.1z"/>
	<path class="st10" d="M987.8,737c-9.5-25.3-18.1-50.8-26.9-77.1c15.6-11.4,32.1-12.6,48.4-2.8c13.7,8.2,18.3,21.6,17.4,36.8
		c-0.9,15.6-10.2,26.3-22.7,34.5C999.2,731.5,993.8,734,987.8,737z"/>
	<path class="st11" d="M784.7,595.4c53-0.7,105.9-0.6,160-0.7c1.2,0.4,1.2,0.9,1.2,2c-53,0.7-105.9,0.6-159.9,0.6
		C784.7,597,784.7,596.6,784.7,595.4z"/>
	<path class="st1" d="M1159.4,1112.4c0.2-0.1,0.2,0.4,0.2,0.4S1159.2,1112.5,1159.4,1112.4z"/>
</g>
</svg>
