<?xml version="1.0" encoding="UTF-8"?>
<svg xmlns="http://www.w3.org/2000/svg" xmlns:xlink="http://www.w3.org/1999/xlink" viewBox="0 0 1730.77 1320.59">
  <defs>
    <style>
      .cls-1 {
        fill: url(#linear-gradient-13);
      }

      .cls-1, .cls-2, .cls-3, .cls-4, .cls-5, .cls-6, .cls-7, .cls-8, .cls-9, .cls-10, .cls-11, .cls-12, .cls-13, .cls-14, .cls-15, .cls-16, .cls-17, .cls-18, .cls-19, .cls-20, .cls-21, .cls-22, .cls-23, .cls-24, .cls-25, .cls-26, .cls-27, .cls-28, .cls-29, .cls-30, .cls-31, .cls-32, .cls-33, .cls-34, .cls-35, .cls-36, .cls-37, .cls-38, .cls-39, .cls-40, .cls-41, .cls-42, .cls-43, .cls-44, .cls-45, .cls-46, .cls-47, .cls-48, .cls-49, .cls-50, .cls-51, .cls-52, .cls-53, .cls-54, .cls-55 {
        stroke-width: 0px;
      }

      .cls-1, .cls-2, .cls-3, .cls-4, .cls-10, .cls-11, .cls-12, .cls-13, .cls-14, .cls-15, .cls-16, .cls-17 {
        opacity: .02;
      }

      .cls-2 {
        fill: url(#linear-gradient-12);
      }

      .cls-3 {
        fill: url(#linear-gradient-11);
      }

      .cls-4 {
        fill: url(#linear-gradient-10);
      }

      .cls-5 {
        fill: #232626;
        opacity: .75;
      }

      .cls-56 {
        opacity: .08;
      }

      .cls-6 {
        fill: url(#linear-gradient);
      }

      .cls-57 {
        stroke: #0453db;
      }

      .cls-57, .cls-58, .cls-59, .cls-60, .cls-61, .cls-62, .cls-63, .cls-64, .cls-65 {
        stroke-miterlimit: 10;
      }

      .cls-7 {
        fill: #ff937a;
      }

      .cls-7, .cls-55 {
        opacity: .81;
      }

      .cls-8 {
        opacity: .8;
      }

      .cls-8, .cls-50 {
        fill: #000d26;
      }

      .cls-58, .cls-59, .cls-63 {
        stroke: #170809;
        stroke-linecap: round;
      }

      .cls-58, .cls-63, .cls-64, .cls-65 {
        fill: none;
      }

      .cls-59, .cls-28 {
        fill: #2e1012;
      }

      .cls-9 {
        opacity: .42;
      }

      .cls-9, .cls-23 {
        fill: #fff;
      }

      .cls-10 {
        fill: url(#linear-gradient-5);
      }

      .cls-11 {
        fill: url(#linear-gradient-7);
      }

      .cls-12 {
        fill: url(#linear-gradient-4);
      }

      .cls-13 {
        fill: url(#linear-gradient-2);
      }

      .cls-14 {
        fill: url(#linear-gradient-3);
      }

      .cls-15 {
        fill: url(#linear-gradient-6);
      }

      .cls-16 {
        fill: url(#linear-gradient-9);
      }

      .cls-17 {
        fill: url(#linear-gradient-8);
      }

      .cls-18 {
        fill: #0a0a0a;
      }

      .cls-18, .cls-66 {
        opacity: .46;
      }

      .cls-60, .cls-61, .cls-62 {
        stroke: #2e2e2e;
      }

      .cls-60, .cls-26 {
        fill: #4a5859;
      }

      .cls-61, .cls-31 {
        fill: #1c2a2b;
      }

      .cls-62 {
        fill: #2e2e2e;
      }

      .cls-63, .cls-64 {
        stroke-width: 2px;
      }

      .cls-64 {
        stroke: #cf9e86;
      }

      .cls-19 {
        fill: #0c0c0c;
        opacity: .5;
      }

      .cls-20 {
        fill: #141414;
        opacity: .14;
      }

      .cls-65 {
        stroke: #f5bc01;
      }

      .cls-67 {
        opacity: .13;
      }

      .cls-68 {
        opacity: .19;
      }

      .cls-69, .cls-24 {
        opacity: .3;
      }

      .cls-70 {
        opacity: .39;
      }

      .cls-71 {
        opacity: .53;
      }

      .cls-72 {
        opacity: .56;
      }

      .cls-73 {
        opacity: .89;
      }

      .cls-74 {
        opacity: .68;
      }

      .cls-75 {
        opacity: .73;
      }

      .cls-21 {
        fill: #b3ecf5;
        opacity: .55;
      }

      .cls-23 {
        opacity: .61;
      }

      .cls-24 {
        fill: #ff9787;
      }

      .cls-25 {
        fill: #fa7d61;
      }

      .cls-27 {
        fill: #2b1314;
      }

      .cls-29 {
        fill: #15e6e6;
      }

      .cls-30 {
        fill: #1b61e3;
      }

      .cls-32 {
        fill: #141b1c;
      }

      .cls-33 {
        fill: #152036;
      }

      .cls-34 {
        fill: #1e354a;
      }

      .cls-35 {
        fill: #170809;
      }

      .cls-36 {
        fill: #1300bd;
      }

      .cls-37 {
        fill: #de946d;
      }

      .cls-38 {
        fill: #dea273;
      }

      .cls-39 {
        fill: #f5c19a;
      }

      .cls-40 {
        fill: #f5bc01;
      }

      .cls-41 {
        fill: #eb7900;
      }

      .cls-42 {
        fill: #edba93;
      }

      .cls-43 {
        fill: #00222b;
      }

      .cls-44 {
        fill: #00f7f7;
      }

      .cls-45 {
        fill: #010a40;
      }

      .cls-46 {
        fill: #010621;
      }

      .cls-47 {
        fill: #000e78;
      }

      .cls-48 {
        fill: #000842;
      }

      .cls-49 {
        fill: #00041f;
      }

      .cls-51 {
        fill: #000a52;
      }

      .cls-52 {
        fill: #00172b;
      }

      .cls-53 {
        fill: #001b33;
      }

      .cls-54 {
        fill: #001bc7;
      }
    </style>
    <linearGradient id="linear-gradient" x1="864.5" y1="1316.95" x2="864.5" y2="-324.91" gradientUnits="userSpaceOnUse">
      <stop offset="0" stop-color="#000d26"/>
      <stop offset=".51" stop-color="#04104d"/>
      <stop offset=".56" stop-color="#071752"/>
      <stop offset=".64" stop-color="#122b61"/>
      <stop offset=".73" stop-color="#244d79"/>
      <stop offset=".83" stop-color="#3d7b9a"/>
      <stop offset=".94" stop-color="#5cb6c5"/>
      <stop offset="1" stop-color="#6fd8de"/>
    </linearGradient>
    <linearGradient id="linear-gradient-2" x1="2026.48" y1="3.67" x2="2392.38" y2="1269.06" gradientTransform="translate(2795.41) rotate(-180) scale(.73 -1)" gradientUnits="userSpaceOnUse">
      <stop offset="0" stop-color="#c4fdff"/>
      <stop offset="1" stop-color="#001c4f"/>
    </linearGradient>
    <linearGradient id="linear-gradient-3" x1="2098.25" y1="-8.23" x2="2470.31" y2="1278.46" gradientTransform="translate(2795.41) rotate(-180) scale(.73 -1)" gradientUnits="userSpaceOnUse">
      <stop offset="0" stop-color="#d1e1ff"/>
      <stop offset="1" stop-color="#001c4f"/>
    </linearGradient>
    <linearGradient id="linear-gradient-4" x1="2304.78" y1="-5.13" x2="2675.82" y2="1278.06" gradientTransform="translate(2795.41) rotate(-180) scale(.73 -1)" gradientUnits="userSpaceOnUse">
      <stop offset="0" stop-color="#d1e1ff"/>
      <stop offset="1" stop-color="#001d4f"/>
    </linearGradient>
    <linearGradient id="linear-gradient-5" x1="2366.62" y1="3.07" x2="2733.02" y2="1270.19" gradientTransform="translate(2795.41) rotate(-180) scale(.73 -1)" gradientUnits="userSpaceOnUse">
      <stop offset="0" stop-color="#d1e1ff"/>
      <stop offset="1" stop-color="#004161"/>
    </linearGradient>
    <linearGradient id="linear-gradient-6" x1="2392.66" y1="7.47" x2="2761.45" y2="1282.86" gradientTransform="translate(2795.41) rotate(-180) scale(.73 -1)" gradientUnits="userSpaceOnUse">
      <stop offset="0" stop-color="#d1e1ff"/>
      <stop offset="1" stop-color="#001c4f"/>
    </linearGradient>
    <linearGradient id="linear-gradient-7" x1="2457.66" y1="-5.71" x2="2827.08" y2="1271.9" gradientTransform="translate(2795.41) rotate(-180) scale(.73 -1)" gradientUnits="userSpaceOnUse">
      <stop offset="0" stop-color="#d1e1ff"/>
      <stop offset="1" stop-color="#001c4f"/>
    </linearGradient>
    <linearGradient id="linear-gradient-8" x1="2525.06" y1="-3.39" x2="2896.01" y2="1279.48" gradientTransform="translate(2795.41) rotate(-180) scale(.73 -1)" gradientUnits="userSpaceOnUse">
      <stop offset="0" stop-color="#d1e1ff"/>
      <stop offset="1" stop-color="#021e50"/>
    </linearGradient>
    <linearGradient id="linear-gradient-9" x1="2192.82" y1="-.49" x2="2562.53" y2="1278.08" xlink:href="#linear-gradient-5"/>
    <linearGradient id="linear-gradient-10" x1="2245.08" y1="2.38" x2="2611.87" y2="1270.86" gradientTransform="translate(2795.41) rotate(-180) scale(.73 -1)" gradientUnits="userSpaceOnUse">
      <stop offset="0" stop-color="#d1e1ff"/>
      <stop offset="1" stop-color="#001c4f"/>
    </linearGradient>
    <linearGradient id="linear-gradient-11" x1="2586.86" y1="-6.12" x2="2959.11" y2="1281.25" gradientTransform="translate(2795.41) rotate(-180) scale(.73 -1)" gradientUnits="userSpaceOnUse">
      <stop offset="0" stop-color="#d1e1ff"/>
      <stop offset="1" stop-color="#001c4f"/>
    </linearGradient>
    <linearGradient id="linear-gradient-12" x1="2643.7" y1="6.68" x2="3015.25" y2="1291.65" gradientTransform="translate(2795.41) rotate(-180) scale(.73 -1)" gradientUnits="userSpaceOnUse">
      <stop offset="0" stop-color="#d1e1ff"/>
      <stop offset="1" stop-color="#001c50"/>
    </linearGradient>
    <linearGradient id="linear-gradient-13" x1="2159.42" y1="2.7" x2="2527.32" y2="1275.02" gradientTransform="translate(2795.41) rotate(-180) scale(.73 -1)" gradientUnits="userSpaceOnUse">
      <stop offset="0" stop-color="#d1e1ff"/>
      <stop offset="1" stop-color="#001c4f"/>
    </linearGradient>
  </defs>
  <g id="sea_back">
    <rect id="background" class="cls-6" x=".33" y="8.89" width="1728.33" height="1298.28"/>
  </g>
  <g id="sea_front">
    <g id="fish">
      <g id="fish_top">
        <path class="cls-19" d="m296.64,119.52c.55,1.31-.1,2.42-1.35,3.1-12.54,6.87-34.17,4.59-41.84-12.93-.76-1.73.91,2.24-5.28,2.24-5.29,0-7.58-1.78-8.01-3.44-.64-2.4,12.94.05,12.04-2.65-.69-2.07-8.51-6.94-8.32-8.69.23-2.22,8.66.18,12.31,6.86.5.92,29.67-10.28,40.45,15.51Z"/>
        <path class="cls-19" d="m226.79,214.93c.95,1.07.69,2.32-.27,3.37-9.63,10.57-30.83,15.43-43.77,1.36-1.28-1.39,1.59,1.82-4.27,3.83-5,1.72-7.75.77-8.7-.65-1.38-2.07,12.25-4.16,10.53-6.42-1.32-1.74-10.3-3.8-10.7-5.52-.5-2.17,8.24-2.64,13.88,2.49.78.71,24.72-19.36,43.29,1.53Z"/>
        <path class="cls-19" d="m168.56,259.3c1.04.56,1.24,1.6.85,2.68-3.93,10.82-18.33,20.44-32.43,13.15-1.4-.72,1.76.97-2.01,4.14-3.22,2.71-5.57,2.74-6.73,1.91-1.68-1.21,7.9-6.6,5.9-7.87-1.53-.97-8.92-.09-9.75-1.3-1.05-1.54,5.36-4.32,11.19-1.91.8.33,12.52-21.78,32.98-10.79Z"/>
      </g>
      <g id="fish_bottom">
        <path class="cls-19" d="m730.96,902.44c1.36.15,1.54,1.44.92,3.13-6.17,16.96-26.32,38.42-44.72,36.81-1.82-.16,2.29.28-3.04,6.78-4.55,5.55-7.72,6.97-9.21,6.52-2.17-.66,11.17-13.57,8.58-14.11-1.99-.42-11.99,5.1-13.02,3.95-1.29-1.47,7.57-8.99,15.22-9.15,1.06-.02,18.62-36.83,45.26-33.93Z"/>
        <path class="cls-19" d="m674.14,1031.32c1.3.42,1.22,1.72.28,3.25-9.44,15.38-33.5,32.36-51.19,27.09-1.75-.52,2.19.73-4.34,6.03-5.57,4.53-8.96,5.28-10.33,4.54-1.99-1.08,13.66-11.05,11.24-12.11-1.86-.81-12.77,2.6-13.54,1.26-.97-1.7,9.22-7.29,16.75-5.91,1.04.19,25.62-32.35,51.14-24.16Z"/>
        <path class="cls-19" d="m640.98,906c1.63.82,1.82,2.46,1.05,4.2-7.74,17.47-32.36,33.75-54.4,23.13-2.18-1.05,2.74,1.42-3.78,6.72-5.57,4.53-9.41,4.74-11.19,3.49-2.59-1.81,13.67-11.03,10.58-12.91-2.38-1.44-14.5.47-15.7-1.4-1.52-2.37,9.26-7.24,18.45-3.81,1.27.47,23.08-35.48,54.99-19.42Z"/>
        <path class="cls-19" d="m1152.56,836.7c-1.26.66-1.16,1.98-.23,3.38,9.34,14.04,32.89,27.1,50,18.54,1.69-.85-2.11,1.14,4.28,5.39,5.46,3.63,8.76,3.8,10.08,2.8,1.92-1.46-13.39-8.86-11.05-10.37,1.8-1.16,12.43.37,13.16-1.14.93-1.91-9.03-5.81-16.32-3.05-1.01.38-25.25-28.5-49.92-15.56Z"/>
        <path class="cls-19" d="m1092.29,900.5c-1.26.66-1.16,1.98-.23,3.38,9.34,14.04,32.89,27.1,50,18.54,1.69-.85-2.11,1.14,4.28,5.39,5.46,3.63,8.76,3.8,10.08,2.8,1.92-1.46-13.39-8.86-11.05-10.37,1.8-1.16,12.43.37,13.16-1.14.93-1.91-9.03-5.81-16.32-3.05-1.01.38-25.25-28.5-49.92-15.56Z"/>
        <path class="cls-19" d="m564.15,801.24c1.17.59,1.31,1.77.75,3.03-5.57,12.58-23.31,24.31-39.18,16.66-1.57-.76,1.97,1.02-2.72,4.84-4.01,3.26-6.78,3.41-8.05,2.51-1.86-1.31,9.85-7.95,7.62-9.3-1.71-1.04-10.44.34-11.31-1.01-1.1-1.71,6.67-5.21,13.29-2.74.91.34,16.62-25.55,39.6-13.98Z"/>
        <path class="cls-19" d="m727.68,711.73c.81.25.75,1.06.15,2.02-6.01,9.63-21.16,20.35-32.18,17.21-1.09-.31,1.36.44-2.75,3.78-3.51,2.85-5.64,3.35-6.49,2.9-1.23-.66,8.62-6.97,7.11-7.61-1.16-.49-8,1.71-8.47.88-.6-1.05,5.81-4.6,10.5-3.79.65.11,16.25-20.29,32.12-15.39Z"/>
      </g>
    </g>
    <polyline class="cls-53" points="1549.1 8.89 1480.06 247.22 1427.17 343.82 1366.6 805.35 1310.05 1102.15 1632.21 659.44 1727.76 632.64 1727.76 8.89"/>
    <polyline class="cls-50" points="1365.6 808.76 1351.84 810.06 1344.84 777.96 1292.39 856.69 1216.76 1064.82 1256.16 1075.07 1287.29 1107.85 1310.05 1102.59"/>
    <polyline class="cls-50" points="798.26 1307.17 830.17 1257.61 771.57 1130.99 748.79 1177.17 727.09 1144.39 646.8 1102.15 534.17 932.72 421.82 682.34 361.4 632.64 315.84 694.58 276.66 467.87 233.14 448.07 149.85 301.25 117.22 137.34 .33 8.89 .33 441.03 320.87 1302.71"/>
    <polyline class="cls-31" points="1728.67 1307.17 1725.64 632.64 1652.35 628.65 1358.02 1090.79 1287.29 1107.85 1257.6 1076.17 1167.65 1084.3 931.01 1265.45 904.32 1307.17"/>
    <polygon class="cls-26" points="1652.35 628.65 1494.49 838.89 1341.64 1032.09 1284.92 1105.33 1358.02 1090.79 1652.35 628.65"/>
    <polyline class="cls-26" points="1260.16 1074.25 1154.25 1051.24 1071.8 1086.64 898.67 1303.16 926.85 1270.45"/>
    <polygon class="cls-34" points="1480.06 247.22 1403.46 346.18 1377.76 711.02 1433.49 339.17 1480.06 247.22"/>
    <polyline class="cls-34" points="1344.84 777.96 1312.67 790.54 1293.55 853.87"/>
    <polyline class="cls-61" points="732.16 1302.71 693.96 1221.23 624.93 1204.39 523.56 1120.92 389.18 1072.12 249.87 1077.94 .33 1302.71"/>
    <polyline class="cls-26" points="252.2 1098.41 173.51 992.4 327.35 1051.24 443.18 1071.44 524.57 1137.47"/>
    <polyline class="cls-31" points=".33 1072.12 .33 1302.71 252.2 1098.41 173.51 992.4"/>
    <polygon class="cls-26" points="736.8 1307.17 712.96 1222.82 699.78 1210.15 618 1213.24 736.8 1307.17"/>
    <polygon class="cls-26" points="699.78 1210.15 443.18 1071.44 618 1213.24 699.78 1210.15"/>
    <polygon class="cls-53" points="190.41 851.15 179.83 632.99 31.06 392.81 .33 394.31 .33 1072.12 172.08 994.25 190.41 851.15"/>
    <polygon class="cls-53" points=".71 208.19 42.93 256.24 33.3 321.71 31.06 392.81 .33 394.31 .71 208.19"/>
    <polygon class="cls-34" points="42.93 256.24 33.3 321.71 31.06 392.81 53.99 429.82 42.93 256.24"/>
    <polygon class="cls-53" points="190.37 850.89 203.61 802.94 239.37 915.16 262.87 909.71 297.51 919.52 391.89 1062.5 327.35 1051.24 173.51 992.4 161.42 936.2 190.37 850.89"/>
    <polygon class="cls-34" points="203.9 799.43 228.01 818.39 242.36 913.21 238.81 915.49 203.52 804.4 203.9 799.43"/>
    <polyline class="cls-33" points="361.4 632.64 469.94 694.99 534.17 932.72"/>
    <polyline class="cls-33" points="748.79 1177.17 771.61 1131.48 640.66 1091.35 646.31 1102.85 727.09 1144.39"/>
    <path id="stingray" class="cls-8" d="m605.97,312.97l-1.01,9.62c-1.31,12.49,3.14,24.9,12.1,33.71,0,0,3.04,3.3,4.42,5.3,2.41,3.5-16.81,11-16.81,37.18,0,47.33-122.62,292.96-109.51,214.55,13.11-78.41-95.09-175.71-100.29-163.44-5.2,12.27-11.44,12.53-38.75-.26s-106.58,52.65-103.84,44.41c2.42-7.29,75.47-77.18,84.74-101.93,3.88-10.35,18.76,1.82,28.21-7.63,82.18-82.18,2.29-193.69,2.29-193.69,0,0,79.86-10.63,200.35,109.86l38.12,12.32Z"/>
    <g id="seaweed">
      <path id="seaweed-2" data-name="seaweed" class="cls-53" d="m3.28,55.53s50.86,222.37,90,186.49c24.61-22.56-.47-183.95-18.43-219.21,0,0,69.43,126.38,106.46,122.47,29.57-3.13-44.53-128.58-50.88-134.93C127.43,7.35.67,11.17.67,11.17l2.61,44.37Z"/>
      <path id="seaweed-3" data-name="seaweed" class="cls-52" d="m.23,1009.47s26.06-190.29,89.21-193.53-1.43,246.61,6.27,271.71,7.11,26.15,7.11,26.15c0,0,89.25-197.49,139.85-173.96,60.51,28.14-38.24,195.19-108.53,243.89s82.11-63.6,133.4-61.53c51.29,2.07-75.78,157.63-162.75,182.96H.23v-295.7Z"/>
      <path id="seaweed-4" data-name="seaweed" class="cls-52" d="m1730.77,1003.12s-136.4-270.36-160.71-145.23c-5.49,28.26,29.83,161.46,42.04,183.1s-123.11-123.73-87.1-23.31c5.53,15.42,56.12,119.86,94.81,147.5,38.68,27.65-222.61-108.17-112.43,33.15,11.77,15.09,116.02,108.83,116.02,108.83h105.28l2.1-304.05Z"/>
      <path id="seaweed-5" data-name="seaweed" class="cls-43" d="m1730.6,958.73c-2.2-24.94-10.28-51.43-14.5-69.1-4.63-19.38-43.16.45-34.46,47.23,5.5,29.56,25.27,68.71,25.27,68.71,0,0-44.38-51.18-34.02,17.22,4.86,32.08,57.71,68.11,57.71,68.11,0,0-62.69-30.74-48.17,16.26,14.52,47,48.17,61.98,48.17,86.55s-23.2-62.14-33.2-2.42c-10,59.72-4.58,86.79,15.93,111.76,7.35,8.95,17.27,0,17.27,0,0,0,.37-340.19,0-344.33Z"/>
    </g>
    <g id="bubbles">
      <g class="cls-67">
        <circle class="cls-21" cx="1151.62" cy="366.44" r="13.25"/>
        <circle class="cls-23" cx="1154.69" cy="359.85" r="1.87"/>
        <circle class="cls-9" cx="1155.94" cy="363.32" r=".62"/>
      </g>
      <g class="cls-69">
        <circle class="cls-21" cx="1138.68" cy="421.1" r="19.13"/>
        <circle class="cls-23" cx="1131.95" cy="413.05" r="2.71"/>
        <circle class="cls-9" cx="1137.25" cy="413.54" r=".9"/>
      </g>
      <g class="cls-68">
        <circle class="cls-21" cx="798.79" cy="352.14" r="6.63"/>
        <circle class="cls-23" cx="801.08" cy="349.32" r=".94"/>
        <circle class="cls-9" cx="801.27" cy="351.15" r=".31"/>
      </g>
      <g class="cls-70">
        <ellipse class="cls-21" cx="829.52" cy="485.19" rx="9.26" ry="8.98" transform="translate(-128.26 563.75) rotate(-35.01)"/>
        <ellipse class="cls-23" cx="824.56" cy="486.13" rx="1.31" ry="1.27" transform="translate(-129.69 561.07) rotate(-35.01)"/>
        <ellipse class="cls-9" cx="826.05" cy="484.04" rx=".44" ry=".42" transform="translate(-128.23 561.55) rotate(-35.01)"/>
      </g>
      <g class="cls-71">
        <ellipse class="cls-21" cx="1214.44" cy="366.44" rx="15.7" ry="13.09" transform="translate(325.09 1270.99) rotate(-62.28)"/>
        <ellipse class="cls-23" cx="1215.4" cy="358.11" rx="2.22" ry="1.85" transform="translate(332.97 1267.38) rotate(-62.28)"/>
        <ellipse class="cls-9" cx="1212.39" cy="361.18" rx=".74" ry=".62" transform="translate(328.65 1266.36) rotate(-62.28)"/>
      </g>
      <g>
        <circle class="cls-21" cx="1047.25" cy="666.77" r="19.13"/>
        <circle class="cls-23" cx="1056.4" cy="661.62" r="2.71"/>
        <circle class="cls-9" cx="1054.95" cy="666.74" r=".9"/>
      </g>
      <g class="cls-75">
        <circle class="cls-21" cx="1028.12" cy="523.52" r="6.63"/>
        <circle class="cls-23" cx="1025.5" cy="521" r=".94"/>
        <circle class="cls-9" cx="1027.35" cy="520.97" r=".31"/>
      </g>
      <g>
        <circle class="cls-21" cx="967.61" cy="447.02" r="6.79"/>
        <circle class="cls-23" cx="968.32" cy="443.36" r=".96"/>
        <circle class="cls-9" cx="969.37" cy="444.93" r=".32"/>
      </g>
      <g>
        <circle class="cls-21" cx="1047.25" cy="96.34" r="6.63"/>
        <circle class="cls-23" cx="1044.63" cy="93.82" r=".94"/>
        <circle class="cls-9" cx="1046.48" cy="93.79" r=".31"/>
      </g>
      <g class="cls-67">
        <circle class="cls-21" cx="859.97" cy="294.62" r="13.25"/>
        <circle class="cls-23" cx="864.9" cy="289.28" r="1.87"/>
        <circle class="cls-9" cx="865.03" cy="292.96" r=".62"/>
      </g>
      <g class="cls-68">
        <circle class="cls-21" cx="1073.01" cy="143.1" r="6.63"/>
        <circle class="cls-23" cx="1076.05" cy="141.11" r=".94"/>
        <circle class="cls-9" cx="1075.67" cy="142.92" r=".31"/>
      </g>
      <g class="cls-74">
        <ellipse class="cls-21" cx="960.75" cy="313.76" rx="11.38" ry="8.18" transform="translate(31.99 712.36) rotate(-41.31)"/>
        <ellipse class="cls-23" cx="964.2" cy="308.75" rx="1.61" ry="1.16" transform="translate(36.15 713.39) rotate(-41.31)"/>
        <ellipse class="cls-9" cx="961.41" cy="309.9" rx=".54" ry=".39" transform="translate(34.7 711.84) rotate(-41.31)"/>
      </g>
      <g class="cls-74">
        <circle class="cls-21" cx="1097.98" cy="479.98" r="16.42"/>
        <circle class="cls-23" cx="1106.97" cy="480.66" r="2.32"/>
        <circle class="cls-9" cx="1103.98" cy="477.21" r=".77"/>
      </g>
      <g class="cls-74">
        <circle class="cls-21" cx="1073.01" cy="732.47" r="5.69"/>
        <circle class="cls-23" cx="1073.84" cy="729.46" r=".8"/>
        <circle class="cls-9" cx="1072.46" cy="730.24" r=".27"/>
      </g>
      <g class="cls-74">
        <circle class="cls-21" cx="1047.25" cy="421.1" r="11.38"/>
        <circle class="cls-23" cx="1050.32" cy="415.66" r="1.61"/>
        <circle class="cls-9" cx="1047.28" cy="416.52" r=".54"/>
      </g>
      <g class="cls-70">
        <circle class="cls-21" cx="944.4" cy="496.41" r="16.42"/>
        <circle class="cls-23" cx="953.38" cy="497.09" r="2.32"/>
        <circle class="cls-9" cx="950.39" cy="493.63" r=".77"/>
      </g>
      <g class="cls-68">
        <circle class="cls-21" cx="1001.97" cy="370.52" r="5.69"/>
        <circle class="cls-23" cx="1002.8" cy="367.51" r=".8"/>
        <circle class="cls-9" cx="1001.42" cy="368.3" r=".27"/>
      </g>
      <g class="cls-67">
        <circle class="cls-21" cx="875.12" cy="407.66" r="13.25"/>
        <circle class="cls-23" cx="878.42" cy="401.18" r="1.87"/>
        <circle class="cls-9" cx="879.55" cy="404.68" r=".62"/>
      </g>
      <g class="cls-70">
        <circle class="cls-21" cx="1091.35" cy="294.62" r="19.13"/>
        <circle class="cls-23" cx="1084.91" cy="286.34" r="2.71"/>
        <circle class="cls-9" cx="1090.18" cy="287.02" r=".9"/>
      </g>
      <g>
        <circle class="cls-21" cx="1066.38" cy="556.37" r="6.63"/>
        <circle class="cls-23" cx="1068.77" cy="553.63" r=".94"/>
        <circle class="cls-9" cx="1068.89" cy="555.47" r=".31"/>
      </g>
      <g class="cls-73">
        <circle class="cls-21" cx="1158.6" cy="573.92" r="19.13"/>
        <circle class="cls-23" cx="1152.15" cy="565.63" r="2.71"/>
        <circle class="cls-9" cx="1157.43" cy="566.31" r=".9"/>
      </g>
      <g class="cls-71">
        <circle class="cls-21" cx="1001.97" cy="190.55" r="13.25"/>
        <circle class="cls-23" cx="1007.55" cy="195.2" r="1.87"/>
        <circle class="cls-9" cx="1003.88" cy="195.52" r=".62"/>
      </g>
      <g>
        <circle class="cls-21" cx="1091.35" cy="632.64" r="6.63"/>
        <circle class="cls-23" cx="1094.98" cy="632.83" r=".94"/>
        <circle class="cls-9" cx="1093.61" cy="634.06" r=".31"/>
      </g>
    </g>
  </g>
  <g id="mermaid_mixer">
    <g id="mermaid_stuff">
      <g id="mermaid_rock">
        <polygon class="cls-31" points="599.29 1307.17 436.94 1119.58 556.13 968.61 812.98 955.76 887.86 959.08 1185.25 992.4 1154.25 1051.24 1071.8 1086.64 930.32 1307.17 599.29 1307.17"/>
        <polyline class="cls-62" points="944.4 1306.72 893.79 1278.01 851.15 1278.87 842.26 1307.17"/>
        <polyline class="cls-60" points="850.82 1277.53 899.23 1263.82 945.32 1306.72"/>
        <polygon class="cls-26" points="556.13 968.61 1185.25 992.4 1171.88 967.91 945.74 889.42 808.71 890.05 598.78 941.15 556.13 968.61"/>
        <ellipse class="cls-5" cx="846.84" cy="943.52" rx="81.13" ry="36.74"/>
      </g>
      <g id="mermaid">
        <path class="cls-28" d="m1007.42,846.14c6.52,124.49-130.72,134.02-289.21,98.25-79.69-17.99-83.92-92.49-81.06-88.69,87.43,115.95,171.07-81.11,154.72-147.88-15.77-64.41-10.7-118.09,16.95-149.33,38.01-42.94,71.47-4.22,156.89-20.36,31.66-5.98,95.66,17.04,15.72,103.72-27.37,29.68-5.15,49.68,2.57,65.97"/>
        <path class="cls-42" d="m956,798.12c-24.64-.88-44.5-47.21-42.18-69.87,1.21-11.88,8.34-20.49,17.07-20.49,10.5.01,23.57-.86,18.83,21.3-3.32,15.55,7.35,35.32,10.03,60.3.11.98-1.83,8.82-3.74,8.75Z"/>
        <g>
          <path class="cls-39" d="m818.89,826.72l19.77-86.49c4.06-17.74,17.45-29.69,29.92-26.67l23.38,5.65c12.47,3.01,19.29,19.84,15.23,37.58l-19.77,86.49c-4.06,17.74-17.45,29.69-29.92,26.67l-23.38-5.65c-12.47-3.01-19.29-19.84-15.23-37.58Z"/>
          <path class="cls-42" d="m836.92,847.3l23.05-90.3c2.46-9.07,46.24-5.24,53.81-3.12h0c7.57,2.12,11.71,11.19,9.25,20.26l-20.43,75.34c-2.46,9.07-10.59,14.7-18.16,12.58h0c-7.57-2.12-49.99-5.69-47.53-14.76Z"/>
        </g>
        <path class="cls-39" d="m845.57,733.17l.05-.76c1.07-16.37,15.8-28.81,32.9-27.79l44.82,2.66c17.11,1.02,30.12,15.11,29.06,31.49l-.05.76c-1.07,16.37-15.8,28.81-32.9,27.79l-44.82-2.66c-17.11-1.02-30.13-15.12-29.06-31.49Z"/>
        <g>
          <path class="cls-18" d="m946.54,1068.3s-152.03,24.59-109.01,175.95c12.68,44.6-10.5-60.93,50.85-68.4,37.88-4.62,82.65-22.88,86.04-86.22l-27.88-21.32Z"/>
          <path class="cls-18" d="m1006.73,1300.27c40,22.49-51.81-34.14-32.14-69.67,12.15-21.94,12.19-56.47-35.72-99.13,0,0-67.88,92.46,67.87,168.81Z"/>
          <path class="cls-41" d="m965.89,1100.36s-65.47,137.61,53.78,213.16c38.12,24.15-42.92-31.56-12.22-95.04,18.96-39.2,32.34-92.9-10.22-132.71l-31.34,14.59Z"/>
          <path class="cls-41" d="m958.8,1068.3s-134.55,17.23-118.93,173.95c4.99,50.1-2.55-58.93,59.81-66.4,38.5-4.62,84-22.88,87.46-86.22l-28.33-21.32Z"/>
          <g class="cls-66">
            <path class="cls-65" d="m1020.91,1305.82c-19.05-19.51-35.95-66.81-19.34-95.67,40.76-70.8-6.87-115.95-7.48-116.29"/>
            <path class="cls-65" d="m994.09,1294.03c-9.27-17.32-30.2-61.68-6.95-91.51,30.8-39.52,1.88-104.14,1.88-104.14"/>
            <path class="cls-65" d="m960.16,1246.55c-2.87-15.94-10.78-63.26,6.63-78.18,15.69-13.44,3.35-77.33,3.35-77.33"/>
          </g>
          <g class="cls-66">
            <path class="cls-65" d="m840.89,1251.47c7.37-57.11,41.28-111.81,67.49-111.81,44.04,0,58.02-53.17,57.91-53.9"/>
            <path class="cls-65" d="m839.28,1200.88c13.4-47.22,44.49-90.07,68.41-95.55,36.46-8.36,53.39-39.33,53.39-39.33"/>
          </g>
          <g class="cls-72">
            <g>
              <g>
                <path class="cls-32" d="m856.91,979.75l-11.26-.2s4.38.41,11.26.2Z"/>
                <path class="cls-32" d="m1068,923.45s-125.07,22.06-160.08,42.81c-17.99,10.66-38.59,13.11-51.01,13.5l200.72,3.49,10.38-59.8Z"/>
              </g>
              <ellipse class="cls-32" cx="1054.27" cy="952.02" rx="31.21" ry="36.36" transform="translate(44.92 1951.54) rotate(-86.8)"/>
            </g>
            <path class="cls-32" d="m1070.64,926.49c-24.82-13.18-56.02-7.18-69.68,13.39-.4.6-.78,1.22-1.14,1.83l-5.39-2.86s-27.56,101.33-40.96,127.15c-4.04,7.79,34.85-4.15,34.85-4.15l79.83-57.07c8.54-3.04,16.02-8.18,21.33-15.25l.18-.13-.06-.03c.43-.58.85-1.17,1.25-1.77,13.66-20.57,4.62-47.93-20.2-61.11Z"/>
          </g>
          <g>
            <g>
              <path class="cls-40" d="m882.44,860.26c-7.04-3.76-14.97-6.41-23.55-7.6-36.38-5.05-70.54,17.75-76.29,50.92s19.07,64.14,55.45,69.19c2.67.37,5.33.57,7.97.65l-.05.28,233.99,2.77,10.38-59.8-207.9-56.41Z"/>
              <ellipse class="cls-40" cx="1076.61" cy="945.23" rx="31.21" ry="36.36" transform="translate(72.79 1967.44) rotate(-86.8)"/>
            </g>
            <g>
              <path class="cls-40" d="m1092.98,919.7c-24.82-13.18-56.02-7.18-69.68,13.39-.4.6-.78,1.22-1.14,1.83l-5.39-2.86-56.84,133.33,48.34,25.67,97.07-101.49c2.29-1.93,4.37-4.1,6.2-6.48l.45-.47-.06-.03c.43-.58.85-1.17,1.25-1.77,13.66-20.57,4.62-47.93-20.2-61.11Z"/>
              <ellipse class="cls-40" cx="986.5" cy="1074.6" rx="23.35" ry="28.49" transform="translate(-316.4 1730.64) rotate(-74.17)"/>
            </g>
          </g>
        </g>
        <g id="turntable">
          <g id="base">
            <polygon class="cls-46" points="974.42 921.35 974.96 908.59 988.69 897.41 1103.49 898.91 1102.1 925.36 974.42 921.35"/>
            <polygon class="cls-46" points="1004.12 779.48 1016.88 779.48 988 910.37 974.65 909.97 1004.12 779.48"/>
            <polygon class="cls-46" points="1089.29 779.48 1103.51 779.48 1111.55 925.49 1098.19 925.08 1089.29 779.48"/>
            <polygon class="cls-45" points="988.69 897.41 1016.88 779.48 1089.29 779.48 1099.68 900.77 988.69 897.41"/>
          </g>
          <g id="tech">
            <g id="discs">
              <g id="disc_top">
                <ellipse id="outside" class="cls-47" cx="1047.17" cy="802.04" rx="10.86" ry="21.68" transform="translate(-71.96 1500.16) rotate(-69.41)"/>
                <ellipse id="middle" class="cls-36" cx="1047.17" cy="802.04" rx="8.4" ry="16.77" transform="translate(-71.96 1500.16) rotate(-69.41)"/>
                <ellipse id="inside" class="cls-22" cx="1047.17" cy="802.04" rx="2.29" ry="4.58" transform="translate(-71.96 1500.16) rotate(-69.41)"/>
              </g>
              <g id="disc_bottom">
                <ellipse id="outside-2" data-name="outside" class="cls-47" cx="1046.07" cy="866.89" rx="17.29" ry="34.52" transform="translate(-133.38 1541.17) rotate(-69.41)"/>
                <ellipse id="middle-2" data-name="middle" class="cls-36" cx="1046.07" cy="866.89" rx="13.37" ry="26.7" transform="translate(-133.38 1541.17) rotate(-69.41)"/>
                <ellipse id="inside-2" data-name="inside" class="cls-22" cx="1046.07" cy="866.89" rx="3.65" ry="7.29" transform="translate(-133.38 1541.17) rotate(-69.41)"/>
              </g>
            </g>
            <g id="sliders">
              <line id="indent" class="cls-57" x1="1059.32" y1="822.03" x2="1030.22" y2="813.58"/>
              <line id="indent-2" data-name="indent" class="cls-57" x1="1068.62" y1="846.47" x2="1022.28" y2="833.01"/>
              <line id="indent-3" data-name="indent" class="cls-57" x1="1060.88" y1="831.09" x2="1028.95" y2="821.82"/>
              <polygon id="knob" class="cls-44" points="1034.99 813.43 1037.22 814.08 1037.04 817.11 1034.81 816.46 1034.99 813.43"/>
              <polygon id="knob-2" data-name="knob" class="cls-44" points="1051.95 826.96 1054.18 827.61 1053.99 830.63 1051.76 829.99 1051.95 826.96"/>
              <polygon id="knob-3" data-name="knob" class="cls-44" points="1042.05 836.3 1045.6 837.33 1045.3 842.15 1041.75 841.12 1042.05 836.3"/>
              <ellipse id="button" class="cls-29" cx="1084.49" cy="785.41" rx=".89" ry="1.66" transform="translate(-75.08 1455.02) rotate(-65.92)"/>
              <ellipse id="button-2" data-name="button" class="cls-29" cx="1084.14" cy="791.54" rx=".89" ry="1.66" transform="translate(-80.88 1458.34) rotate(-65.92)"/>
              <ellipse id="button-3" data-name="button" class="cls-29" cx="1084.31" cy="788.61" rx=".89" ry="1.66" transform="translate(-78.11 1456.75) rotate(-65.92)"/>
            </g>
            <g id="power_button">
              <polygon class="cls-54" points="1085.73 875.71 1090.55 876.56 1090.96 891.63 1086.15 890.78 1085.73 875.71"/>
              <polygon class="cls-30" points="1086.88 876.02 1093.43 877 1094.41 892.05 1087.86 891.08 1086.88 876.02"/>
            </g>
          </g>
        </g>
        <g id="tail_waist">
          <path class="cls-40" d="m906.62,864.05l-39.97,1.49c-4.14.95-7.57,1.94-9.08-4.03l-.5-1.99c-1.51-5.97,1.14-6.86,5.28-7.81l36.75-17c4.14-.95,9.98,6.57,11.49,12.54l.5,1.99c1.04,5.78-.33,13.86-4.47,14.81Z"/>
          <path class="cls-41" d="m901.2,864.25l-34.56,1.29c-4.14.95-7.57,1.94-9.08-4.03l-.5-1.99c-1.51-5.97,1.14-6.86,5.28-7.81l30.21-13.98"/>
          <path class="cls-40" d="m817.14,834.57l43.2,17.3c4.88,1.11,9.03,1.85,7.57,7.69l-.49,1.94c-1.46,5.84-4.73,5.37-9.61,4.27l-47.72-2.45c-4.88-1.11-7.23-10.29-5.78-16.13l.49-1.94c1.85-5.46,7.45-11.78,12.33-10.67Z"/>
          <path class="cls-41" d="m828.29,839.04l32.05,12.83c4.88,1.11,9.03,1.85,7.57,7.69l-.49,1.94c-1.46,5.84-4.73,5.37-9.61,4.27l-42.37-2.17"/>
        </g>
        <g id="bra">
          <path class="cls-42" d="m876.9,752.52c0-12.97,1.13-20.41,14.91-19.08,9.39.9,19.24,2.53,23.67,15.01s-10.42,22.71-24.26,22.71-14.31-5.67-14.31-18.63Z"/>
          <path class="cls-42" d="m914.58,750.83c0-10.22,7.5-20.87,28.87-19.1,13.97,1.16,7.59,7.78,7.59,18s-9.78,18.5-21.84,18.5-14.62-7.18-14.62-17.4Z"/>
          <ellipse class="cls-49" cx="892.56" cy="750.61" rx="12.22" ry="28.68" transform="translate(-64.46 1417.09) rotate(-74.92)"/>
          <ellipse class="cls-48" cx="890.47" cy="757" rx="13" ry="29.78" transform="translate(4.79 1519.59) rotate(-81.1)"/>
          <ellipse class="cls-51" cx="891.81" cy="761.62" rx="11.41" ry="27.48" transform="translate(55.42 1583.71) rotate(-85)"/>
          <ellipse class="cls-49" cx="933.71" cy="746.48" rx="19.62" ry="11.24" transform="translate(-136.6 214.04) rotate(-12.19)"/>
          <ellipse class="cls-48" cx="933.49" cy="752.52" rx="19.5" ry="9.67" transform="translate(-138.71 215.8) rotate(-12.28)"/>
          <ellipse class="cls-51" cx="930.51" cy="758.74" rx="20.61" ry="10.71" transform="translate(-92.86 130.85) rotate(-7.66)"/>
        </g>
        <g id="arms_hands">
          <path id="left_arm" class="cls-39" d="m926.97,829.07c-20.06,2.2-21.91-.21-26.22-6.4,0,0-58.33-62.98-63.07-89.85-1.26-7.14,4.88-21.34,12.59-25.08,6.01-2.92,26.07-13.36,24.69,11.33-1.04,18.57,31.26,82.23,49.72,105.6.73.92,7.65,3.81,2.29,4.39Z"/>
          <path id="left_forearm" class="cls-39" d="m906.62,829.34c-4.2-3.16,8.89-14.34,8.89-14.34.43-.79,1.65-.97,2.62-.38,3.92,2.39,13.02,7.88,15.77,9.03,16.44,6.88,59.56,31.68,68.14,36.64.85.49,1.22,1.39.85,2.08l-2.67,5.01c-.37.69-1.37.93-2.3.55,0,0-62.66-17.04-91.3-38.59Z"/>
          <path id="right_forearm" class="cls-42" d="m950.96,797.43c-4.33-1.6,3.78-17.2,3.78-17.2.15-.93,1.14-1.54,2.1-1.3,4.29,1.04,71.28,12.57,82.09,14.88.84.18,1.38.93,1.25,1.73l-.95,5.85c-.13.81-.91,1.4-1.79,1.35,0,0-56.94,5.6-86.48-5.31Z"/>
        </g>
        <path class="cls-20" d="m990.74,867.46c-.36-2.42,8.95-8.96,17.57-7.32,8.63,1.64,14.75,7.57,13.67,13.25-1.08,5.68-8.95,8.96-17.57,7.32-8.63-1.64-13.35-11.08-13.67-13.25Z"/>
        <path class="cls-20" d="m1025.77,798.66c-.44-2.41,8.66-9.23,17.34-7.86,8.68,1.37,14.98,7.1,14.08,12.81-.9,5.71-8.66,9.23-17.34,7.86-8.68-1.37-13.69-10.66-14.08-12.81Z"/>
        <path class="cls-42" d="m990.19,863.69c-.38-2.7,9.77-10.05,19.14-8.28,9.37,1.78,15.99,8.36,14.78,14.71-1.2,6.35-9.77,10.05-19.14,8.28-9.37-1.78-14.45-12.29-14.78-14.71Z"/>
        <path class="cls-42" d="m1023.19,796.42c-.45-2.69,9.5-10.31,18.92-8.78,9.41,1.53,16.2,7.94,15.17,14.31-1.03,6.38-9.5,10.31-18.92,8.78-9.41-1.53-14.77-11.91-15.17-14.31Z"/>
        <g id="head_neck">
          <polygon id="neck" class="cls-42" points="893.5 708.79 895.68 675.44 924.37 677.14 922.19 710.49 893.5 708.79"/>
          <path id="neck_shadow" class="cls-37" d="m923.67,689.13c-1.08,11.76-29.42,8.12-29.42,8.12,0,0,.32-14.4-.36-21.25,0,0,31.49-5.59,29.78,13.13Z"/>
          <path id="face_shadow" class="cls-38" d="m862.43,620.13c2.44-35.95,27.66-63.67,56.32-61.9,28.66,1.77,49.92,32.35,47.48,68.3-2.44,35.95-33.88,64.9-56.32,61.9-19.45-2.6-49.92-32.35-47.48-68.3Z"/>
          <path id="face" class="cls-42" d="m865.3,644.93c-5.82-28.22,9-54.75,33.1-59.26,24.1-4.51,48.35,14.7,54.16,42.92,5.82,28.22-18.05,56.89-33.1,59.26s-48.35-14.7-54.16-42.92Z"/>
        </g>
        <g id="bangs">
          <path class="cls-35" d="m880.09,616.25c.4-.31.64.54,1.11,1.95,4.09,12.25-12.51,26.48-30.5,28.46l-9.59,1.06-5.55-6.4s-50.83-5.98-35.19-4.4c49.01,4.97,77.12-18.64,79.72-20.67Z"/>
          <g>
            <path class="cls-59" d="m959.75,581.87c-50.59,11.89-39.14,42.69-74.98,45.39-26.89,2.03-47.33-10.04-47.33-34.3,1.14-42.39,38.4-39.07,42.59-22.73,1.08,4.21,3.66,9.13-4.67,16.93,10.72-.62,41.01-30.06,60.88-28.63"/>
            <path class="cls-28" d="m926.31,559.39s-16.25,6.82-20.86,10.27c-19.82,14.83-29.34,17.4-29.34,17.4,0,0,5.43-4.8,5.43-12.49s24.68-26.94,44.77-15.18Z"/>
          </g>
          <path class="cls-35" d="m931.6,591.23c67.86-28.24,56.59,8.15,34.41,18.81-1.11.53-4.12-14.48-33.66-18.41"/>
          <path class="cls-63" d="m873.06,589.51c-20.32,9.98-24.04.76-25.73-3.18-3.59-8.37,5.93-15.02,12.52-14.2,6.24.78,8.34,8.35.75,9.14"/>
          <path class="cls-58" d="m846.13,584.42c-2.58-6.94,5.95-19.91,19.64-19.91"/>
        </g>
        <g id="face-2" data-name="face">
          <g id="lips">
            <path class="cls-25" d="m902.59,666.95c5.34,8.32,17.62,10.78,27.26,4.35,1.05-.7-7.89-2.72-11.59-2.72-10.08,0-16.23-2.51-15.67-1.63Z"/>
            <path class="cls-7" d="m911.77,673.65c-3.7-.54-5.64-2.93-6.84-4.03"/>
          </g>
          <g class="cls-56">
            <path class="cls-22" d="m902.78,667.24c5.34,8.32,13.56,10.84,27.07,4.06,1.13-.57-7.89-1.97-11.59-1.97-10.08,0-16.04-2.97-15.48-2.09Z"/>
            <path class="cls-55" d="m911.77,674.4c-3.7-.54-5.64-2.93-6.84-4.03"/>
          </g>
          <g id="right_eyelash">
            <path class="cls-27" d="m945.13,629.05c-3.3-.26-4.38-.76-9.98-2.55.24,1.1.28,2.23-1.44,2.28.84,1.7,2.78,1.25,3.73,2.3.98,1.09,2.88.83,3.33,2.96,1.36-2.4,2.88.93,4.58-.88.67-.72,2.99.35,4.21-1.41,1.36,1.24,2.65.47,4-.59-1.15-2.38,1.24-2.28,2.86-3.24-3.17-1.54-8.5,1.35-11.3,1.13Z"/>
          </g>
          <g id="left_eyelash">
            <path class="cls-27" d="m900.94,625.87c8.63,2.57,9.43-.57,13.88.05-.47,1.19-.72,2.46,1.17,2.87-1.24,1.74-3.31.83-4.56,1.82-1.28,1.02-3.34.34-4.23,2.64-1.06-2.99-3.36.45-4.91-1.95-.61-.95-3.37-.22-4.4-2.47-1.74,1.12-3.02-.02-4.32-1.49,1.71-2.44-.95-2.82-2.57-4.24,3.79-1.08,1.26.19,9.94,2.77Z"/>
          </g>
          <ellipse id="left_blush" class="cls-24" cx="889.96" cy="645.48" rx="9.5" ry="15.2" transform="translate(20.73 1318.61) rotate(-73.71)"/>
          <ellipse id="right_blush" class="cls-24" cx="950.46" cy="647.64" rx="11.88" ry="8.59" transform="translate(-161.68 354.47) rotate(-19.5)"/>
          <path id="nose" class="cls-64" d="m926.7,639.38s.98,6.73,2.86,9.76c1.4,2.26-5.19,5.15-5.19,5.15"/>
        </g>
      </g>
    </g>
    <g id="headphones">
      <ellipse id="base-2" data-name="base" class="cls-49" cx="859.89" cy="618.99" rx="22.97" ry="26.49"/>
      <ellipse id="bezel" class="cls-48" cx="859.89" cy="618.99" rx="19.87" ry="16.38" transform="translate(119.45 1376.82) rotate(-81.41)"/>
      <ellipse id="top" class="cls-51" cx="859.84" cy="618.52" rx="13.88" ry="11.61" transform="translate(119.88 1376.38) rotate(-81.41)"/>
      <path id="main_band" class="cls-48" d="m864.06,597.89c-.7-.18-2.93-1.07-3.74-1.12-3.6-.25,19.26-54.5,19.7-55.46.3-.66,7.21-.36,6.85.67-.4,1.14-18.92,56.92-22.81,55.92Z"/>
      <path id="band_cover" class="cls-51" d="m869.98,586.34c-.44.77-7.85-.15-7.67-1.1,4.4-24.21,18.24-44.4,18.77-45.46.36-.73,7.25-.56,6.84.56-.45,1.24-4.48,22.63-17.94,46Z"/>
    </g>
  </g>
  <g id="shimmer">
    <polyline class="cls-13" points="1338.06 0 1068.41 1297.41 1039.92 1297.41 1322.05 .58"/>
    <polyline class="cls-14" points="1322.03 2.31 1042.09 1295.09 949.57 1293.94 1253.86 2.31"/>
    <polyline class="cls-12" points="1162.19 1.44 876.08 1297.44 810.54 1297.44 1096.5 1.44"/>
    <polyline class="cls-10" points="1096.5 1.44 810.54 1297.44 789.96 1297.44 1089.87 1.44"/>
    <polyline class="cls-15" points="1087.91 9.89 789.96 1306.19 759.01 1306.22 1050.46 11.17"/>
    <polyline class="cls-11" points="1052.65 1.44 761.93 1292.87 699.5 1290.59 1000.22 2.31"/>
    <polyline class="cls-17" points="1000.22 2.31 699.5 1290.59 653.03 1299.72 960.12 1.44"/>
    <polyline class="cls-16" points="1237.4 3.72 932.4 1298.14 898.73 1299.72 1186.41 3.72"/>
    <polyline class="cls-4" points="1186.41 1.44 898.73 1297.44 876.08 1297.44 1162.19 1.44"/>
    <polyline class="cls-3" points="960.12 1.44 653.03 1299.72 602.5 1299.72 892.48 3.72"/>
    <polyline class="cls-2" points="892.48 3.72 602.5 1299.72 588.21 1320.59 867.99 3.72"/>
    <polygon class="cls-1" points="1253.53 3.72 1237.4 3.72 932.4 1299.72 949.57 1299.72 1253.53 3.72"/>
  </g>
</svg>