<?xml version="1.0" encoding="utf-8"?>
<!-- Generator: Adobe Illustrator 28.2.0, SVG Export Plug-In . SVG Version: 6.00 Build 0)  -->
<svg version="1.1" id="Layer_1" xmlns="http://www.w3.org/2000/svg" xmlns:xlink="http://www.w3.org/1999/xlink" x="0px" y="0px"
	 viewBox="0 0 1728 1296" style="enable-background:new 0 0 1728 1296;" xml:space="preserve">
<style type="text/css">
	.st0{fill:#FEFEFE;}
	.st1{fill:#F45476;}
	.st2{fill:#2301C3;}
	.st3{fill:#6C1DFD;}
	.st4{fill:#6C1CFD;}
	.st5{fill:#7325CA;}
	.st6{fill:#EB0101;}
	.st7{fill:#FA90AC;}
</style>
<g>
	<path class="st0" d="M1079.6,539.3c0,0-0.4,0.2-0.7-2.2c-0.2-72-0.3-144.1-0.4-218.7c-5.6-121.2-100.4-212.2-219.4-210.5
		c-116,1.6-210.1,96.3-212.1,214.5c-0.1,72.4-0.2,144.8-0.8,217c0,0-0.3,0.4-2.1-0.1c-2.9,0.8-5.8,1.5-10.6,2.2
		c-27.5,8.2-44.9,33.9-40.5,59.8c4.6,27.3,26.6,46.6,53.9,46.5c0.4-0.1,0.9-0.2,3.2,0.1c2.6,0.1,5.1,0.3,9.1,1.5
		c30.8,10.1,43.8,29.6,41.7,65c-2.3,37.1-16.1,68.6-51.2,85.7c-32.8,16-65.7,13.5-95.8-7.5c-30.1-21-41.6-51.5-41.5-87.6
		c0.2-92,0.3-184,0-275.9c-0.2-54-23.5-96.7-66.8-128.3c-36.4-26.5-77.6-31.5-121.1-27.1c0,36.1,0,71,0,107.7
		c12.2,0,23.9-0.4,35.6,0.1c21.2,0.8,39.5,16.9,43.2,37.7c1.2,6.6,1.4,13.4,1.4,20.1c0.1,92-0.6,184,0.3,275.9
		c1.3,144.8,145.3,241.3,279.2,187.5c14.9-6,28.8-14.8,43.9-22.8c0,49.7,0.9,98.6-0.3,147.4c-0.8,31.4-25.4,53.2-55.2,52.3
		c-29.2-0.9-51.4-24.7-52.1-55.9c-0.2-7.9,0-15.8,0-23.9c-36.7,0-71.8,0-107.5,0c-0.3,4.2-0.8,7.5-0.6,10.7
		c0.5,12.6,0.4,25.3,2,37.8c9.8,76.5,75.8,136.3,153.3,139.4c77.9,3.1,148.3-50.8,164.6-126.1c1.2-5.3,2.6-10.8,2.7-16.2
		c0.3-69.2,0.4-138.3,0.5-207.6c0,0,0.1-0.1,2.5-0.2c17.6,0,35.1,0.1,52.8,0.2c0,0,0,0.1-0.5,2.4c0,62.9-0.6,125.7,0,188.6
		c0.6,65,41,124.5,101.4,147.3c64.7,24.4,123.7,12.7,173.8-35.5c39.7-38.3,52.5-86.6,47.6-140.8c-36.1,0-71.2,0-107.4,0
		c0,9.3,0.4,17.7-0.1,26c-1.3,23.6-12.3,41.2-34.4,50c-36.2,14.4-72.6-12-73.2-53.2c-0.5-43-0.1-86.1-0.1-129.1c0-4.4,0-8.9,0-15.1
		c5,3.1,8.2,5,11.2,7c126.6,83.6,301.8-2.8,310.9-154.6c3.4-57.2,1.1-114.7,1.3-172.1c0.1-41.8-0.2-83.5,0.1-125.3
		c0.3-33.8,19.2-52.2,52.8-52.4c9,0,18.1,0,27,0c0-37.4,0-72.6,0-108.7c-9.4,0-17.8,0-26.1,0c-93.9,0.2-161.4,67.8-161.5,162.1
		c-0.1,88.2,0,176.3-0.1,264.5c0,8.8-0.4,17.7-1.3,26.5c-4.4,44.8-42.8,81.1-88.7,84.1c-42.6,2.8-85.7-27.8-95-69.5
		c-9.5-42.4-5.1-76.8,41.6-91.9c2.6-0.2,5.1-0.5,9-0.4c0.4-0.1,0.9-0.2,3.4,0c27.7-1.9,49.4-23.7,50.9-51
		c1.5-26.5-17.2-50.5-44.1-56.5C1086,540.1,1083,539.9,1079.6,539.3z"/>
	<path class="st1" d="M890.4,837.8c-17.6,0-35.1-0.1-54-1.3c-1.3-27.1-1.3-53-1.3-79.1c-36.3,0-71,0-105.5,0c0,27,0,52.9,0,80.5
		c35.9,0,70.7,0,105.6,0c-0.1,69.2-0.2,138.3-0.5,207.5c0,5.4-1.5,10.8-2.7,16.2c-16.3,75.3-86.8,129.2-164.6,126.1
		c-77.5-3.1-143.5-62.9-153.3-139.4c-1.6-12.5-1.5-25.2-2-37.8c-0.1-3.3,0.4-6.6,0.6-10.7c35.7,0,70.8,0,107.5,0
		c0,8.1-0.1,16,0,23.9c0.6,31.2,22.8,55,52.1,55.9c29.8,0.9,54.4-20.9,55.2-52.3c1.2-48.8,0.3-97.7,0.3-147.4
		c-15.1,7.9-28.9,16.7-43.9,22.8c-134,53.8-277.9-42.7-279.2-187.5c-0.9-92-0.2-184-0.3-275.9c0-6.7-0.2-13.6-1.4-20.1
		c-3.7-20.9-22.1-36.9-43.2-37.7c-11.7-0.5-23.3-0.1-35.6-0.1c0-36.7,0-71.7,0-107.7c43.5-4.3,84.8,0.7,121.1,27.1
		c43.4,31.6,66.6,74.2,66.8,128.3c0.4,92,0.3,184,0,275.9c-0.1,36.1,11.4,66.6,41.5,87.6c30.1,21,63,23.5,95.8,7.5
		c35-17.1,48.9-48.5,51.2-85.7c2.2-35.3-10.9-54.8-41.7-66.2c29.5-11.9,45.1-34.4,41.6-61.1c-3.5-26.8-23.6-44.5-53.9-48.7
		c0.2-73.3,0.3-145.4,0.4-217.5c1.7-116.8,95.8-211.4,211.7-213c118.9-1.6,213.7,89.3,219.5,212.7c0.1,74.5,0.2,146.7-0.8,219.1
		c-43.4,2.3-66.2,47.8-45.4,82.1c8.4,13.9,21.7,20.3,35.5,26.6c-44.8,15-49.1,49.3-39.7,91.8c9.3,41.7,52.4,72.3,95,69.5
		c45.9-3,84.3-39.3,88.7-84.1c0.9-8.8,1.2-17.7,1.3-26.5c0.1-88.2,0-176.3,0.1-264.5c0.1-94.3,67.5-161.9,161.5-162.1
		c8.4,0,16.7,0,26.1,0c0,36.1,0,71.3,0,108.7c-8.9,0-17.9,0-27,0c-33.6,0.2-52.5,18.6-52.8,52.4c-0.3,41.8,0,83.5-0.1,125.3
		c-0.2,57.4,2.1,114.9-1.3,172.1c-9.1,151.8-184.4,238.2-310.9,154.6c-3.1-2-6.2-3.9-11.2-7c0,6.2,0,10.6,0,15.1
		c0,43-0.4,86.1,0.1,129.1c0.5,41.2,36.9,67.6,73.2,53.2c22.2-8.8,33.2-26.4,34.4-50c0.4-8.3,0.1-16.7,0.1-26c36.1,0,71.2,0,107.4,0
		c4.9,54.1-7.9,102.5-47.6,140.8c-50,48.2-109.1,59.9-173.8,35.5c-60.5-22.8-100.8-82.3-101.4-147.3c-0.6-62.8-0.1-125.7,1.4-189.9
		c35.8-1.4,70.2-1.4,104.8-1.4c0-28,0-53.9,0-80.2c-35.5,0-70.2,0-105.9,0C890.4,784.9,890.4,811.4,890.4,837.8z M967.1,284.4
		c-10-14.1-25.4-18.3-37.7-10.3c-12.1,7.9-15.8,23.3-8.8,36.2c6.4,11.7,21.2,16.5,33.6,10.8C968.6,314.7,973.9,301.1,967.1,284.4z
		 M804.5,311.7c1.2-3.1,2.5-6.2,3.5-9.4c4-12.6-2.5-21.4-11.7-27.8C787.1,268,776,268,767,275c-8.8,6.8-14.9,15.6-10.8,28.2
		C763.5,325.9,784.3,330.5,804.5,311.7z M880.2,236.4c3.2-5.8,9.6-12.1,8.8-17.2c-1.5-9-5.5-19.3-11.9-25.4c-8-7.6-19.9-6.8-29.1,0
		c-8.3,6.1-14.3,14.4-11.7,25.8C841.1,240.9,857.9,247.9,880.2,236.4z"/>
	<path class="st2" d="M646.9,539.6c30.4,3,50.4,20.7,53.9,47.5c3.5,26.7-12.1,49.1-42.4,60.5c-3.2,0.5-5.8,0.4-9.4-1.1
		c-1-30.8-0.9-60.3-1.2-89.7c0-4.5-1.3-8.9-2-13.8c0.1-0.4,0-1.4,0-1.9c0.1-0.5-0.1-1.5-0.1-1.5s0.3-0.4,0.6-0.2
		C646.7,539.6,646.9,539.6,646.9,539.6z"/>
	<path class="st2" d="M1068.9,648.3c-14.8-6.2-28.1-12.6-36.5-26.5c-20.8-34.3,2-79.8,45.5-82.1c1.1,0,1.3-0.1,1.3-0.1
		s0.4-0.2,0.5,0.5c0.1,0.7,0.2,1.7,0.1,2.1c-0.1,0.5,0.1,1.3-0.5,2.2c-1,35-1.3,69.1-1.7,103.1C1075,647.7,1072.4,648,1068.9,648.3z
		"/>
	<path class="st3" d="M646,541.7c0,0,0.1,0.9-0.1,2.6c-0.2,35.5-0.3,69.4-0.3,103.2c-26,0.4-48-18.9-52.6-46.2
		c-4.4-25.9,13-51.6,42.5-59.7C640.3,541.6,643.1,541.6,646,541.7z"/>
	<path class="st4" d="M1079.9,543.5c0,0-0.2-0.9,0.9-1.4c3.9-0.5,6.7-0.5,9.5-0.5c25.5,4.7,44.2,28.8,42.7,55.2
		c-1.5,27.4-23.2,49.2-51.9,49.7C1080.1,611.3,1080,577.4,1079.9,543.5z"/>
	<path class="st5" d="M647,538.4c-0.1,1.2-0.2,1.3-0.3,1.2c0.1-72.4,0.2-144.9,0.5-218C647.3,393,647.1,465.1,647,538.4z"/>
	<path class="st5" d="M1079,538.3c0.1,1.2,0,1.3-0.1,1.3c-0.2-72.3-0.2-144.6-0.4-217.7C1078.6,393,1078.7,465.1,1079,538.3z"/>
	<path class="st5" d="M646.2,647.6c-0.6-34-0.6-67.8-0.4-102.9c0.8,3.2,2.1,7.6,2.2,12.1c0.2,29.5,0.1,58.9,0.2,89.5
		C647.8,647.6,647.3,647.7,646.2,647.6z"/>
	<path class="st5" d="M1079.2,544.4c0.8,33,0.9,66.9,1,102c-0.4,1.3-0.9,1.4-2,1.3C1077.9,613.4,1078.3,579.3,1079.2,544.4z"/>
	<path class="st5" d="M646,541.2c-2.9,0.5-5.7,0.4-9.6,0.4c1.8-0.8,4.7-1.5,8.5-2.1C645.9,539.7,646.1,540.7,646,541.2z"/>
	<path class="st5" d="M1089.7,540.9c-2.1,0.6-4.9,0.7-8.8,0.7c-1.1,0.1-1.2-0.9-1.1-1.4C1083,539.9,1086,540.1,1089.7,540.9z"/>
	<path class="st6" d="M835.2,838c-34.9,0.1-69.7,0.1-105.6,0.1c0-27.7,0-53.5,0-80.5c34.6,0,69.2,0,105.5,0c0,26,0,52,0.1,79.1
		C835.4,837.8,835.2,837.9,835.2,838z"/>
	<path class="st6" d="M890.5,837.9c-0.1-26.5-0.1-53-0.1-80.5c35.7,0,70.4,0,105.9,0c0,26.3,0,52.2,0,80.2c-34.6,0-69,0-104.5,0.2
		C890.6,838.1,890.5,837.9,890.5,837.9z"/>
	<path class="st7" d="M967.6,285.2c6.3,15.8,1,29.4-13.3,36c-12.4,5.7-27.2,0.9-33.6-10.8c-7.1-13-3.3-28.4,8.8-36.2
		C941.7,266.1,957.1,270.3,967.6,285.2z"/>
	<path class="st7" d="M804,312.5c-19.7,18-40.4,13.4-47.8-9.3c-4.1-12.7,2-21.4,10.8-28.2c9.1-7,20.1-7,29.4-0.5
		c9.1,6.4,15.7,15.3,11.7,27.8C807,305.5,805.7,308.6,804,312.5z"/>
	<path class="st7" d="M879.4,236.9c-21.6,10.9-38.3,3.9-43.1-17.3c-2.6-11.4,3.4-19.7,11.7-25.8c9.2-6.7,21.1-7.6,29.1,0
		c6.4,6.1,10.4,16.4,11.9,25.4C889.8,224.4,883.4,230.7,879.4,236.9z"/>
</g>
</svg>
