<?xml version="1.0" encoding="utf-8"?>
<!-- Generator: Adobe Illustrator 28.2.0, SVG Export Plug-In . SVG Version: 6.00 Build 0)  -->
<svg version="1.1" id="Layer_1" xmlns="http://www.w3.org/2000/svg" xmlns:xlink="http://www.w3.org/1999/xlink" x="0px" y="0px"
	 viewBox="0 0 1728 1296" style="enable-background:new 0 0 1728 1296;" xml:space="preserve">
<style type="text/css">
	.st0{fill:#3ED8EA;}
	.st1{fill:#01B3D7;}
	.st2{fill:#F5BC02;}
	.st3{fill:#F4BC04;}
	.st4{fill:#7EE8F4;}
</style>
<g>
	<g>
		<path class="st0" d="M1024.4,416.9c11.5-24.7,23.4-49.3,34.5-74.2c20.1-44.9,39.6-90.1,59.7-135c19.8-44.5,66-72.2,117.2-70.6
			c46.2,1.4,89.9,33.9,107.8,81.4c9.2,28.3,7.8,54.9,0.6,81.4c-9.2,22.7-22.7,42-42.3,57.2c-3.3,2.6-4.6,9.5-4.6,14.4
			c-0.2,84.8-0.1,169.6,0,254.4c0.1,60.3-20.4,112.4-63.4,154.5c-39.8,39-88.4,58.8-144.3,59.8c-13.9,0.3-27.8,0.2-44,0.1
			c-30,0.2-57.7,0.6-85.4,0.9c-25-0.3-49.9-0.6-77.2-1c-30.2,0.1-58,0.2-85.8,0.4c-34.5-0.1-68.9-1.1-103.4-0.2
			c-86.8,2.3-162.5-28.2-232.1-77.1c-13-9.1-24.7-20.2-36.2-31.2c172.9-0.7,345.1,0,517.3-1.2c21.9-0.2,45.5-6.3,65.3-16
			c64.2-31.6,94.9-86.7,99.5-156.9c1.7-26.5,0.6-53.1,0.2-79.7c-0.3-20.3-9.4-35.9-25.5-48.3
			C1064.8,416.3,1044.5,417.8,1024.4,416.9z M1234.4,298.7c4.7-1.6,9.8-2.5,14.1-4.8c19.6-10.9,26.2-33.1,16.2-53
			c-10.2-20.2-31.3-27.9-51.9-18.9c-17,7.5-27.3,26.9-23.7,44.2C1193.4,286.1,1213.7,302.3,1234.4,298.7z"/>
		<path class="st1" d="M1023.4,417.1c21,0.7,41.3-0.8,58.8,12.8c16,12.5,25.2,28.1,25.5,48.3c0.3,26.6,1.5,53.2-0.2,79.7
			c-4.6,70.1-35.3,125.3-99.5,156.9c-19.7,9.7-43.4,15.8-65.3,16c-172.2,1.2-344.4,0.6-517.7,0.5c-1.1,0.1-1.6,0.1-2.2-0.7
			c-4.9-4.8-9.5-8.5-13.6-12.7c-12.3-12.9-24.4-26-36.6-39c155.9-63.7,311.8-127.6,467.8-191c57.6-23.4,115.6-45.7,173.4-68.4
			C1016.6,418.5,1019.6,418.1,1023.4,417.1z"/>
		<path class="st2" d="M959.9,842.1c28-1.3,55.7-1.6,84.6-1.6c-11.2,31.7-24.2,62.7-35.7,94.3c-3.3,8.9-4.1,19.7-2.9,29.2
			c6.3,47.9,13.6,95.7,20.8,145.2c-25.9,0-51,0.2-76.1-0.3c-2.3,0-6-4.3-6.4-7.1c-8-49.9-15.7-99.8-23-149.7
			c-0.7-4.6,1.3-9.9,3-14.5C935.8,906,947.7,874.5,959.9,842.1z"/>
		<path class="st2" d="M797,841.5c27.9-1.1,55.7-1.2,84.7-1.2c-10.6,30-21.7,59.9-34.3,89.3c-5.6,13.1-6.1,25.4-3.9,39
			c7.5,46.1,14.2,92.3,21.4,139.5c-27.1,0-53.7,0-81.5,0c-4.7-29.2-9.5-58.6-14.2-88.1c-1.9-11.6-2.5-23.6-5.7-34.9
			c-7.4-26-3.5-50.1,7.5-74.4C781.1,888.7,788.4,865.3,797,841.5z"/>
		<path class="st3" d="M1345.2,299.7c6.2-26.4,7.5-52.9-1.2-80.4c24.5-0.8,49.3-0.7,74.1-0.7c44.1,0.1,66.7,22.6,66.9,66.7
			c0,4.2,0,8.3,0,14.3C1438.3,299.5,1392.3,299.5,1345.2,299.7z"/>
		<path class="st4" d="M371.9,679c13,12.9,25.1,26,37.4,38.9c4.1,4.2,8.7,8,13.4,12.7c-56.9,0.7-114.1,0.7-171.4,0.7
			c-0.1-0.6-0.3-1.1-0.4-1.7C290.9,712.7,331,695.9,371.9,679z"/>
		<path class="st1" d="M1233.4,298.7c-19.7,3.5-40-12.6-44.2-32.5c-3.6-17.2,6.7-36.7,23.7-44.2c20.5-9,41.7-1.4,51.9,18.9
			c10,19.8,3.4,42.1-16.2,53C1244.3,296.3,1239.2,297.2,1233.4,298.7z"/>
	</g>
</g>
</svg>
