<?xml version="1.0" encoding="utf-8"?>
<!-- Generator: Adobe Illustrator 28.2.0, SVG Export Plug-In . SVG Version: 6.00 Build 0)  -->
<svg version="1.1" id="Layer_1" xmlns="http://www.w3.org/2000/svg" xmlns:xlink="http://www.w3.org/1999/xlink" x="0px" y="0px"
	 viewBox="0 0 1728 1296" style="enable-background:new 0 0 1728 1296;" xml:space="preserve">
<style type="text/css">
	.st0{fill:#FFFFFF;}
	.st1{fill:#F5BC01;}
	.st2{fill:#EB7900;}
	.st3{fill:#EB7A00;}
</style>
<g>
	<path class="st0" d="M870.3,0C1084.2,0,1298,0,1512,0c0,431.7,0,863.4,0,1296c-203.7,0-407.6,0-612.3-0.8
		c114.9-29,156.2-142.2,149.5-214.2c-34.8,0-69.6,0-105.2,0c-0.3,4.6-0.4,8.8-0.7,12.9c-1.7,22.6-7.2,44-20.5,62.9
		c-34.7,49.3-108.6,45.9-132.6-6c-18.1-39-9.4-86.3,22.9-114.7c15.1-13.2,31.8-25.3,49.5-34.5c46.6-24.3,94.6-46,141.2-70.2
		c44.5-23.1,85.6-51.5,113.6-94.2c14.9-22.7,26.1-48,38-72.6c28.7-59.5,39.3-122.2,24.4-186.9c-31.8-138.3-117-231.1-246.8-284.5
		c-7.1-2.9-14.4-5.3-20.8-7.6c14.3-11,29.1-20.8,41.8-32.8c7.4-7,14.2-9.8,24.1-9.8c64.8,0.4,129.7,0.2,194.5,0.2
		c3.8,0,7.7,0.4,11.3-0.3c29.8-5.8,53.5-31.9,55.6-61.1c2.3-31.8-15.9-59.9-45.2-69.9c-29.4-10-61.2,0.9-78.2,28
		c-4.5,7.1-8.6,8.3-16.1,6.9c-31.4-6.1-62.8-12-94.3-17.3c-7.4-1.2-10-3.7-11.9-11.3C979.2,57.9,942,19.3,881.7,3.9
		C877.8,2.9,874.1,1.3,870.3,0z"/>
	<path class="st1" d="M869.1,0c5,1.3,8.7,2.9,12.5,3.9C942,19.3,979.2,57.9,993.9,118c1.9,7.6,4.5,10.1,11.9,11.3
		c31.5,5.3,62.9,11.2,94.3,17.3c7.5,1.5,11.6,0.2,16.1-6.9c16.9-27,48.8-37.9,78.2-28c29.3,10,47.5,38.1,45.2,69.9
		c-2.1,29.2-25.8,55.3-55.6,61.1c-3.7,0.7-7.6,0.3-11.3,0.3c-64.8,0-129.7,0.2-194.5-0.2c-9.9-0.1-16.7,2.7-24.1,9.8
		c-12.7,12-27.5,21.8-41.8,32.8c6.4,2.4,13.8,4.7,20.8,7.6c129.8,53.4,215.1,146.3,246.8,284.5c14.9,64.7,4.3,127.4-24.4,186.9
		c-11.9,24.6-23.1,49.8-38,72.6c-28,42.7-69.1,71.1-113.6,94.2c-46.6,24.2-94.6,45.9-141.2,70.2c-17.7,9.2-34.5,21.3-49.5,34.5
		c-32.3,28.4-40.9,75.7-22.9,114.7c24,51.9,97.9,55.3,132.6,6c13.3-18.8,18.8-40.3,20.5-62.9c0.3-4.1,0.5-8.2,0.7-12.9
		c35.6,0,70.4,0,105.2,0c6.7,72-34.5,185.2-150.7,214.2c-28.3,0.8-56.1,0.8-85.2,0.8c-8.8-3.2-16.4-6.3-24-9.5
		c-70-29-106.4-82.9-113.7-156.9c-9.4-95.4,35.3-162.8,114.2-210.1c15-9,20.3-18.1,19.9-35.4c-1.3-54.8-0.5-109.7-0.5-164.5
		c0-4.1,0-8.2,0-15c-77.1,44.6-152.3,88-227.4,131.4c-90.2-102.5-90.5-342.7-0.3-465c75.1,43.4,150.3,86.8,226.9,131.1
		c0-71.2,0-140.5,0-208.7c-15.1-8.1-31.1-14.3-44.4-24.2c-50.7-37.7-72.1-88.9-59.1-150.8c13.4-63.5,54.8-101.5,118-115.8
		c1.2-0.3,2.5-0.5,4.1-1.7C840.9,0,854.4,0,869.1,0z M905.6,649.2c25.4-14.9,50.8-29.7,78.4-45.9C924.6,569,868.2,536.5,810.3,503
		c0,67.7,0,133.1,0,200.9C842.4,685.5,873.2,667.8,905.6,649.2z M914.9,137.6c-8.1-21.9-22.4-31.2-45.6-28.6
		c-15.8,1.8-25.3,12-31,26.2c-5.7,14.2-3.1,27.1,7,38.5c10.4,11.8,22.7,18.8,38.8,14.3C908.4,181.2,916.8,168,914.9,137.6z"/>
	<path class="st2" d="M904.8,649.7c-31.6,18.1-62.4,35.8-94.5,54.2c0-67.8,0-133.2,0-200.9c57.9,33.5,114.3,66,173.7,100.3
		C956.4,619.5,931,634.4,904.8,649.7z"/>
	<path class="st3" d="M915.2,138.6c1.6,29.4-6.8,42.6-31.1,49.4c-16.1,4.5-28.4-2.5-38.8-14.3c-10-11.4-12.6-24.3-7-38.5
		c5.7-14.2,15.2-24.4,31-26.2C892.5,106.3,906.8,115.7,915.2,138.6z"/>
</g>
</svg>
