<?xml version="1.0" encoding="utf-8"?>
<!-- Generator: Adobe Illustrator 28.2.0, SVG Export Plug-In . SVG Version: 6.00 Build 0)  -->
<svg version="1.1" id="Layer_1" xmlns="http://www.w3.org/2000/svg" xmlns:xlink="http://www.w3.org/1999/xlink" x="0px" y="0px"
	 viewBox="0 0 1728 1296" style="enable-background:new 0 0 1728 1296;" xml:space="preserve">
<style type="text/css">
	.st0{fill:#FFFFFF;}
	.st1{fill:#3ED9B4;}
	.st2{fill:#3FD7EA;}
	.st3{fill:#7EEAF4;}
	.st4{fill:#01B56A;}
	.st5{fill:#01B4D7;}
	.st6{fill:#02B4D7;}
</style>
<g>
	<path class="st0" d="M1216.3,592.9c-0.6-3.3-1.2-6.7-1.7-12.4c-0.2-58.4,8.5-115.6,24.7-171.7c-21.5-3.2-62.3,12.4-99.2,36.6
		c-64.3,42.3-101.3,100.2-103.4,179.3c-6.3-8.5-11-16.7-15.6-25.1c-31.3-57.4-42.7-117.9-30.3-182.9
		c11.2-58.1,30.2-113.7,49.8-169.2c7.2-20.4,14.7-40.6,22.8-62.8c-79.2,17.1-148.8,47-207.3,101.4c-2.1-3.1-4.2-6.3-6.4-9.3
		c-22.8-30.8-60.8-42.2-96.3-28.8c-34.1,12.9-54.6,46.4-52,85.1c2.3,33.9,30,64.1,65.9,71.9c5.2,1.1,10.3,2.8,14.9,6.2
		c-3.5,21.5-8,43-10.2,64.6c-6.9,66.2,1.3,130.6,30.3,190.8c23.5,48.9,48.8,97,74.5,144.8c52,96.8,61.4,199,39.6,305.2
		c-4.8,23.3-11.6,46.1-18.1,71.4c27.2-4.4,53.4-7.4,79.1-13c85.3-18.4,154.4-64.7,212.7-128.1c52.5-57.1,78-124.8,76.8-202.7
		c-0.7-40.3-8.6-79.3-18.2-118.6c11.6-9.9,25.9-17.9,34.1-30c15.1-22.2,13.7-47.1-0.7-69.9C1267.1,602.1,1244.8,591.9,1216.3,592.9z
		 M830.2,1161c1.3,7.9,2.6,15.7,4.3,25.7c17.8-43.3,28.2-86.2,30.1-130.5c4.3-102.3-33.6-185.1-118.2-244.3
		c-42-29.4-86.1-55.9-128.2-85.2c-46.3-32.2-80.4-74.5-93.2-130.7c-11.1-48.7-7-98.1-2.2-147.2c3.1-32.1,8.3-64,12.8-97.4
		c-9.1,4.5-17.8,8.3-25.9,13.1c-30.7,18.1-64,33.3-91.2,55.7c-66.2,54.4-94.8,127.6-94.4,212.9c0.2,49.8,12.8,96.8,39.2,137.9
		c39.9,62,92.8,111.5,161.8,140.2c40.6,17,82.8,30.3,124.2,45.2c47.6,17.1,90.8,40.8,120.5,83.4C795.3,1076.6,816.2,1116,830.2,1161
		z M1261.5,137.3c-22.6-5.2-43.7-4.8-61,14.1c-14.8,16.1-19,43.3-8.6,61.9c11.8,21.1,37,33.3,57.9,28.2
		c33.8-8.2,41.5-24.9,44.9-49.6C1298.1,166.9,1284.3,149.9,1261.5,137.3z"/>
	<path class="st1" d="M1247.1,726.4c11.2,38.5,19.2,77.5,19.8,117.8c1.3,77.9-24.3,145.6-76.8,202.7
		c-58.3,63.5-127.4,109.7-212.7,128.1c-25.7,5.5-51.9,8.6-79.1,13c6.5-25.2,13.3-48.1,18.1-71.4c21.8-106.2,12.3-208.3-39.6-305.2
		c-25.7-47.8-51-95.9-74.5-144.8c-29-60.3-37.2-124.6-30.3-190.8c2.2-21.7,6.8-43.1,11-65.9c1.3-1.8,1.7-2.5,2.9-3.1
		c20.5-2.3,38.9-8.4,52.9-22.6c26.4-26.7,33-58.1,18.9-94c0.1-1.4,0-2.2-0.1-3c57-55.5,126.6-85.5,205.8-102.5
		c-8.1,22.2-15.6,42.5-22.8,62.8c-19.6,55.5-38.6,111.1-49.8,169.2c-12.5,65-1.1,125.5,30.3,182.9c4.5,8.3,9.3,16.6,15.6,25.1
		c2.1-79.1,39.2-137.1,103.4-179.3c36.9-24.3,77.7-39.8,99.2-36.6c-16.1,56.1-24.9,113.3-24.8,173.9c-0.2,5.6-0.2,9-1.1,12.4
		c-24.5,6.4-43.2,19.7-51.6,43c-9.2,25.4-5.4,50.3,13.7,70c18.8,19.3,42.3,26.2,69.7,18.4C1246.2,726.4,1246.6,726.4,1247.1,726.4z
		 M1035.2,1003.8c-29.4,68.4-76.6,124.1-126.8,178.4c37.8-17.4,75.1-34.9,110.4-55.8c82.7-49.2,122.9-124.7,126.7-219.4
		c2.8-69.7-14.3-135.1-53-194c-16.7-25.5-33.3-51-50-76.5c-2.6,3.8-2.9,6.6-2.6,9.3c3.7,28.7,7.3,57.4,11.5,86.1
		c6.6,45.2,13.8,90.2,12,136.4C1061.6,914.5,1052.6,958.9,1035.2,1003.8z"/>
	<path class="st1" d="M829.9,1160c-13.7-44-34.6-83.4-60.2-120.2c-29.7-42.6-72.9-66.3-120.5-83.4c-41.5-14.9-83.6-28.3-124.2-45.2
		c-69-28.8-121.9-78.2-161.8-140.2c-26.4-41.1-39-88.2-39.2-137.9c-0.4-85.3,28.2-158.4,94.4-212.9c27.3-22.4,60.5-37.5,91.2-55.7
		c8.1-4.8,16.9-8.5,25.9-13.1c-4.5,33.4-9.7,65.3-12.8,97.4c-4.7,49.1-8.9,98.5,2.2,147.2c12.8,56.2,46.9,98.4,93.2,130.7
		c42.1,29.3,86.2,55.8,128.2,85.2c84.5,59.2,122.5,142,118.2,244.3c-1.9,44.3-12.3,87.2-30.1,130.5
		C832.8,1176.7,831.5,1168.9,829.9,1160z"/>
	<path class="st2" d="M784.9,406.7c-0.2,0.7-0.6,1.4-1.6,2.2c-5.6-1.1-10.7-2.8-16-3.9c-36-7.8-63.7-37.9-65.9-71.9
		c-2.6-38.7,17.9-72.2,52-85.1c35.5-13.4,73.5-2.1,96.3,28.8c2.2,3,4.3,6.2,7.2,9.9c0.9,1.4,0.9,2.2,0,3.7
		C845,303,833,314.2,823.4,327.1C805.6,351.1,791,376.9,784.9,406.7z"/>
	<path class="st3" d="M1262.4,137.7c22,12.2,35.7,29.2,32.3,54.2c-3.4,24.7-11.1,41.4-44.9,49.6c-20.9,5.1-46.1-7.1-57.9-28.2
		c-10.4-18.6-6.2-45.8,8.6-61.9C1217.7,132.5,1238.9,132.1,1262.4,137.7z"/>
	<path class="st2" d="M1247.9,726c-1.2,0.3-1.6,0.3-2.7-0.8c-1.9-6.3-2.9-11.6-4.6-16.7c-11.8-36.9-23.7-73.8-24.6-113.2
		c0.2-0.2,0.7-0.7,0.7-0.7c28-2.7,50.4,7.4,65.4,31.1c14.4,22.8,15.8,47.6,0.7,69.9C1274.5,707.8,1260.2,715.8,1247.9,726z"/>
	<path class="st2" d="M1214.3,595c0-3.4,0.1-6.8,0.2-11.1c0.7,2.4,1.3,5.7,2.1,9.9c0.2,0.9-0.2,1.3-0.8,1.4
		C1215.1,595.2,1214.3,595,1214.3,595z"/>
	<path class="st4" d="M1035.6,1002.9c17-44,26-88.4,27.8-134.8c1.8-46.2-5.4-91.1-12-136.4c-4.2-28.6-7.7-57.4-11.5-86.1
		c-0.4-2.7,0-5.5,2.6-9.3c16.7,25.5,33.2,51.1,50,76.5c38.7,58.9,55.8,124.3,53,194c-3.8,94.7-44,170.2-126.7,219.4
		c-35.3,21-72.6,38.5-110.4,55.8C958.6,1127.9,1005.8,1072.2,1035.6,1002.9z"/>
	<path class="st5" d="M1213.3,595c0.9,0,1.7,0.2,2.1,0.4c1.5,39.4,13.3,76.3,25.2,113.2c1.6,5.1,2.6,10.4,3.9,16.7
		c-26.7,8.9-50.3,1.9-69.1-17.3c-19.1-19.6-22.9-44.6-13.7-70C1170.2,614.7,1188.8,601.4,1213.3,595z"/>
	<path class="st6" d="M785.9,406.9c5.1-29.9,19.7-55.8,37.5-79.7C833,314.2,845,303,856.8,291c14.9,35.2,8.3,66.6-18.1,93.3
		C824.8,398.5,806.4,404.6,785.9,406.9z"/>
</g>
</svg>
