<?xml version="1.0" encoding="utf-8"?>
<!-- Generator: Adobe Illustrator 28.2.0, SVG Export Plug-In . SVG Version: 6.00 Build 0)  -->
<svg version="1.1" id="Layer_1" xmlns="http://www.w3.org/2000/svg" xmlns:xlink="http://www.w3.org/1999/xlink" x="0px" y="0px"
	 viewBox="0 0 1728 1296" style="enable-background:new 0 0 1728 1296;" xml:space="preserve">
<style type="text/css">
	.st0{fill:#FADB00;}
	.st1{fill:#F5BC00;}
	.st2{fill:#F5BC01;}
	.st3{fill:#EB7A00;}
	.st4{fill:#FADA01;}
	.st5{fill:#FADB03;}
	.st6{fill:#EB7B00;}
</style>
<g>
	<g>
		<path class="st0" d="M736.6,154.2c31.7-5.1,63.3-12.2,95.2-14.9c54.1-4.6,107.9,0.8,160.9,15c-1.2,13.8-2.5,26.2-3.6,38.7
			c-1.9,21.7-3.5,43.4-5.5,65c-3.1,34.1-6.6,68.2-9.6,102.4c-2.1,23.3-3.5,46.7-5.6,70.1c-3,33.3-6.5,66.5-9.5,99.8
			c-2.1,22.9-3.4,45.9-5.5,68.8c-3.9,42-8.2,84-12.2,126c-2.7,28.3-5,56.6-7.6,84.9c0,0,0,0-1.2,0c-46.7,0-92.3-0.1-137.8-0.1
			c0,0,0,0,0-1.1c-1-15.3-1.7-29.6-2.9-43.7c-3.1-35.4-6.5-70.8-9.7-106.2c-1.9-21.3-3.5-42.5-5.5-63.8
			c-3.2-34.6-6.6-69.1-9.6-103.6c-2-22.9-3.5-45.9-5.6-68.8c-3-33.7-6.5-67.4-9.6-101.1c-2-22.5-3.4-45.1-5.5-67.6
			C743.2,220.7,739.8,187.5,736.6,154.2z"/>
		<path class="st1" d="M933.5,810.1c2.5-28.3,4.9-56.6,7.5-84.9c4-42,8.3-84,12.2-126c2.1-22.9,3.4-45.9,5.5-68.8
			c3-33.3,6.5-66.5,9.5-99.8c2.1-23.3,3.5-46.7,5.6-70.1c3-34.1,6.5-68.2,9.6-102.4c2-21.7,3.6-43.4,5.5-65
			c1.1-12.5,2.4-24.9,4.4-38.1c40.6,7,77.7,22.2,113.8,40.2c49.9,25,94.8,57.2,134,98c-2.6,7.2-5,13-6.8,18.9
			c-29.1,94.1-58.2,188.3-87.3,282.4c-20.1,64.9-40.2,129.8-60.6,194.5c-3.3,10.6-8,20.9-13.1,31.3c-19.7-3.4-38.4-8.7-57.2-9.8
			C988.7,808.8,961.1,810.1,933.5,810.1z"/>
		<path class="st1" d="M735.6,154.1c4.3,33.4,7.6,66.6,10.6,99.9c2,22.5,3.4,45.1,5.5,67.6c3,33.7,6.5,67.4,9.6,101.1
			c2.1,22.9,3.5,45.9,5.6,68.8c3.1,34.6,6.5,69.1,9.6,103.6c1.9,21.3,3.6,42.5,5.5,63.8c3.2,35.4,6.6,70.8,9.7,106.2
			c1.2,14.2,2,28.4,1.8,43.7c-6.2,1.1-11.2,1.2-16.3,1.1c-41.8-0.2-83.7-2.4-124,12c-25-80.7-49.9-160.5-74.8-240.3
			c-30-96.2-60-192.5-90-288.7c43-45.3,93.8-80,150.6-105.2C669.7,174.1,702.6,165.1,735.6,154.1z"/>
		<path class="st0" d="M1074.4,820.3c4.1-10.4,8.8-20.6,12.1-31.3c20.4-64.8,40.5-129.7,60.6-194.5c29.1-94.1,58.2-188.3,87.3-282.4
			c1.8-6,4.2-11.7,7.2-18.1c63.4,59,106.7,130.6,134.5,212.1c0.4,1.2,0.9,2.4,0.8,4.9c-20.5,36.3-40.5,71.2-60.3,106.2
			c-23.9,42.4-47.7,84.8-71.4,127.3c-26.4,47.2-52.8,94.4-79.8,141.7c-0.6,0-1.9,0.1-2.2-0.7c-3.3-4.8-5.8-9.3-9.4-12.7
			c-23-21.7-49-38.8-78.9-50.6C1074.7,821.5,1074.4,820.3,1074.4,820.3z"/>
		<path class="st0" d="M487.6,293.3c30.7,95.8,60.7,192.1,90.7,288.3c24.9,79.8,49.8,159.6,74.8,240.9c0.1,1.5,0,2.7-1,2.7
			c-34.9,10.9-61,33.6-87.1,58.3c-2.8-4.4-5-7.4-6.8-10.6c-19.9-35.6-39.7-71.3-59.7-106.8c-39-69.2-78.2-138.3-117.4-207.4
			c-9.1-16-18.8-31.7-28.2-47.5C379.6,427.7,424.6,355.4,487.6,293.3z"/>
		<path class="st1" d="M352.4,512.1c9.9,15,19.6,30.7,28.7,46.7c39.2,69.1,78.4,138.2,117.4,207.4c20,35.5,39.8,71.2,59.7,106.8
			c1.8,3.2,4,6.2,6.8,10.6c26-24.7,52.2-47.5,87.8-57.7c23.5,71,45.4,141.4,67.2,211.8c11.3,36.4,22.5,72.8,32.9,109.1
			c-27.1-21.9-53.3-43.7-79.5-66.4c-0.6-3-0.7-5.2-1.7-6.9c-16.9-30-33.9-60-50.9-90c-18.2-32-36.4-64-55.4-97.5
			c-18.5,21.8-32.4,44.3-39.2,71.1c-0.6,0-1.7,0-1.7,0C460.6,902.2,396.7,847.6,333,792.7c-3.3-2.8-6.1-8.3-6.1-12.6
			c0.6-54.7-0.7-109.5,3.6-163.9C333.3,581.4,344.5,547.3,352.4,512.1z"/>
		<path class="st2" d="M1165.9,886c26.4-47.2,52.8-94.5,79.2-141.6c23.8-42.4,47.5-84.9,71.4-127.3c19.8-35,39.8-69.9,60.4-105.3
			c8.4,34.3,20.1,68.7,23,103.9c4.5,54.4,3.1,109.3,3.6,164c0,4.9-3.6,11.1-7.5,14.4c-62.7,54.2-125.6,108-189.8,162.4
			c-1.3,0.4-2.3,0.4-2.4-0.5C1196.6,928.9,1181.8,907.1,1165.9,886z"/>
		<path class="st3" d="M1073.4,820.3c1,0,1.3,1.2,1.4,2.8c0,2.8-0.1,4.1-0.4,5.3c-27.7,88.4-55.5,176.7-83,265.1
			c-5.7,18.3-10.2,37.1-15.7,56.3c-4.2,4.7-8,8.6-11.8,12.5c-1.2,0.7-2.4,1.4-5.5,2c-19.5-0.1-37.2-0.2-55-1.4
			c0.8-14.5,1.5-27.9,2.7-41.2c3.1-33.4,6.6-66.7,9.6-100c2.9-33,5.2-66,8-99c3.2-37.6,6.6-75.1,9.9-112.6c0,0,0,0,0,0
			c27.6,0,55.2-1.3,82.6,0.4C1035,811.6,1053.6,816.9,1073.4,820.3z"/>
		<path class="st3" d="M753.7,1146.8c-11.2-36.4-22.4-72.8-33.7-109.2c-21.8-70.4-43.7-140.8-66.2-211.8c-0.7-0.6-0.6-1.8-0.5-2.3
			c40.2-15.9,82.2-13.7,123.9-13.5c5,0,10.1,0,16.3,0c1.2,0,1.2,0,1.2,1.1c0.9,9.8,1.7,18.6,2.5,27.4c1.9,21.7,3.6,43.5,5.6,65.2
			c3.1,34.2,6.5,68.4,9.6,102.6c2.1,23.4,3.9,46.8,5.7,70.2c2.3,29.2,4.4,58.5,5.5,87.7c-18.6,0.1-36.1,0.1-53.6,0.1
			c-0.8-0.3-1.6-0.5-3.1-2.1C761.9,1156.2,757.8,1151.5,753.7,1146.8z"/>
		<path class="st4" d="M752.8,1146.7c4.9,4.8,9,9.5,13.4,15.1c-38.9,0.9-78.1,1.6-117.2,0.8c-82.1-1.8-143.8-73.6-133.9-155.3
			c2-16.2,6-32.2,9.2-49.3c0.1-1,1.2-1,2.5-0.6c49.7,41.6,98.1,82.8,146.5,124C699.5,1103,725.8,1124.8,752.8,1146.7z"/>
		<path class="st4" d="M965.1,1162.5c2.7-4.1,6.5-8.1,11.5-13c26.9-22.8,52.6-44.6,78.8-66.5c1.3-0.7,1.7-1.3,1.9-2.1
			c-0.1,0,0,0.2,0.7-0.2c49.1-41.5,97.5-82.6,145.9-123.7c0,0,1.1,0,1.6,0c3.5,17,7.4,33.8,9.4,50.9
			c9.4,82.9-51.9,153.2-135.1,154.9C1041.9,1163.3,1004.1,1162.7,965.1,1162.5z"/>
		<path class="st5" d="M770.2,1165c17.1-0.7,34.5-0.8,54.4-0.7c27.9,0,53.4-0.1,79-0.2c17.7,0.1,35.4,0.2,54.2,0.5
			c-14.8,13.7-30.1,28.3-47.1,40.6c-28,20.4-66.3,19.2-94.1-2C800.9,1191.1,785.9,1178.2,770.2,1165z"/>
		<path class="st1" d="M903.4,1163c-25.4,1.2-50.9,1.2-77.7,1.2c-3.4-29.3-5.6-58.6-7.8-87.8c-1.8-23.4-3.6-46.8-5.7-70.2
			c-3.1-34.2-6.4-68.4-9.6-102.6c-2-21.7-3.7-43.4-5.6-65.2c-0.8-8.8-1.7-17.5-2.5-27.4c45.5-1.1,91.1-1.1,137.8-1
			c-2.1,37.6-5.5,75.1-8.7,112.7c-2.8,33-5.1,66-8,99c-2.9,33.4-6.5,66.7-9.6,100C904.9,1135.1,904.2,1148.5,903.4,1163z"/>
		<path class="st1" d="M1054.8,1083.2c-25.7,21.8-51.3,43.5-77.8,65.6c4.2-18.2,8.7-37,14.4-55.3c27.5-88.4,55.3-176.7,83-265.1
			c0.4-1.2,0.4-2.5,0.6-4.7c29.7,10.2,55.7,27.2,78.7,49c3.6,3.4,6.1,7.9,9.3,13.6c-27.5,51.2-55.3,100.7-82.9,150.3
			c-8.1,14.6-15.3,29.6-22.9,44.5c0,0,0-0.1-0.5,0.1C1055.6,1081.8,1055.1,1082.4,1054.8,1083.2z"/>
		<path class="st6" d="M1058,1080.6c6.8-14.4,14-29.5,22.1-44.1c27.5-49.6,55.4-99.1,83.2-149.5c0.1-0.9,1.3-1,2-1
			c16.6,21.1,31.4,42.9,38.6,69.9C1155.5,998,1107.1,1039.1,1058,1080.6z"/>
		<path class="st3" d="M673.3,1080.3c-48.4-40.2-96.8-81.4-145.9-123c5.5-27.2,19.4-49.7,37.9-71.5c19,33.5,37.3,65.5,55.4,97.5
			c17,30,34,60,50.9,90C672.6,1075.1,672.7,1077.3,673.3,1080.3z"/>
		<path class="st6" d="M1055.4,1083c-0.3-0.6,0.2-1.2,1.5-1.9C1057.1,1081.6,1056.6,1082.2,1055.4,1083z"/>
	</g>
</g>
</svg>
