<?xml version="1.0" encoding="utf-8"?>
<!-- Generator: Adobe Illustrator 28.2.0, SVG Export Plug-In . SVG Version: 6.00 Build 0)  -->
<svg version="1.1" id="Layer_1" xmlns="http://www.w3.org/2000/svg" xmlns:xlink="http://www.w3.org/1999/xlink" x="0px" y="0px"
	 viewBox="0 0 1728 1296" style="enable-background:new 0 0 1728 1296;" xml:space="preserve">
<style type="text/css">
	.st0{fill:#FFFFFF;}
	.st1{fill:#6C19FF;}
	.st2{fill:#3DD9EB;}
	.st3{fill:#3ED8EB;}
	.st4{fill:#7DEAF4;}
	.st5{fill:#9BA4BF;}
	.st6{fill:#9CA5BF;}
	.st7{fill:#01B3D7;}
</style>
<g>
	<path class="st0" d="M918.5,159.2c0-40.9-0.2-81.8,0.2-122.7c0.1-8.8-2.5-11.7-11.5-11.6c-29.5,0.5-59,0.6-88.4,0
		c-10.1-0.2-11.7,3.8-11.7,12.7c0.4,41.3,0.1,82.7-2.3,124.2c-52.7,0-105.4,0-159.4,0c0,55.3,0,108.6-2.3,162
		c-43.5,0-87.1,0-130.7,0c-0.3,4.3-0.5,6.3-0.5,8.4c0,84.3,0,168.6,0.1,252.9c0,3.2,1.2,6.4,1.1,11.2c-35.9,17-71.9,33.9-108.8,51.4
		c4.5,12.2,8.5,23.6,12.7,34.9c35.2,95.1,70.4,190.3,104,286.5c-13.9-4.2-29-6.3-41.4-13.2c-14.8-8.3-26.2-8.5-41.4-0.2
		c-37.7,20.6-77.1,20.8-116.2,2.8c-8.3-3.8-16.2-8.3-24.8-12.8c0,81.2,0,161.3,1,243.2c3.3,0.3,6.7,0.7,10,0.7
		c369.7,0,739.3,0,1109-0.1c3.8,0,7.6-1.6,11.8-4.8c0-79.4,0-158.8,0-239.4c-8.1,4.3-14.6,8-21.3,11.3c-40,19.7-80.3,20.3-119.5-0.8
		c-15-8-26.2-8.7-41.3-0.4c-12.9,7.1-28.9,8.6-42.9,10.5c39.2-106,78.5-212,117.9-318.3c-6.3-3-11.2-5.3-16-7.6
		c-31.1-15.1-62.3-30.3-92.2-47.1c0.1-88.1,0.3-176.2,0.4-264.3c0-1.2-0.6-2.3-1.4-5c-43.9,0-88,0-132.2-2.3c0-52.8,0-105.6,0-159.7
		C1025,161.5,971.8,161.5,918.5,159.2z"/>
	<path class="st1" d="M1212.3,594.6c31.1,15.1,62.3,30.3,93.4,45.4c4.8,2.4,9.7,4.6,16,7.6c-39.4,106.4-78.6,212.4-118.6,319.6
		c-1.8,2.3-2.8,3.3-5,4.3c-31.5,1.7-59-7.2-85.1-22c-3.7-2.1-10.5-2.5-13.9-0.4c-49.8,29.7-99.1,29.6-148.8-0.1
		c-3.2-1.9-9.6-1.9-12.8,0c-49.7,29.8-99.1,29.7-148.8,0.1c-3.3-1.9-9.6-2-12.8-0.1c-49.7,29.8-99,29.9-148.8,0.2
		c-3.3-2-9.6-2.1-12.8-0.3c-27.1,15.9-56,24.4-88,22.4c-1.5-1.3-2.5-2.3-3.6-3.3c-35.2-95.1-70.4-190.3-105.6-285.4
		c-4.2-11.3-8.3-22.7-12.7-34.9c36.9-17.4,72.8-34.4,110.1-52.2c6.4-2.9,11.6-4.6,16.5-6.9c107.3-50.6,214.7-101.1,321.9-151.9
		c7.1-3.4,12.7-3.8,20-0.3c84.7,40.3,169.6,80.3,254.5,120.1C1155.4,569.5,1183.9,581.9,1212.3,594.6z"/>
	<path class="st2" d="M1199.3,971.6c1-1,2.1-2.1,3.5-3.4c15.1-4.2,31-5.7,44-12.8c15.1-8.3,26.4-7.7,41.3,0.4
		c39.2,21.1,79.6,20.5,119.5,0.8c6.7-3.3,13.2-7,21.3-11.3c0,80.6,0,160-1.3,240.6c-377.7,1.2-754.1,1.2-1130.4,1.1
		c0-80.1,0-160.2,0-241.4c8.6,4.5,16.5,9,24.8,12.8c39.2,18,78.5,17.8,116.2-2.8c15.2-8.3,26.5-8.1,41.4,0.2
		c12.4,6.9,27.5,9,42.2,12.7c1.8,0.5,2.9,1.4,4.4,3.8c11.7,32.6,23.4,63.6,34,95.1c3.6,10.6,8.9,13.7,19.9,13.6
		c188.5-0.4,376.9-0.3,565.4,0c10.6,0,17.5-1.6,20.1-13.2c1.9-8.1,6-15.7,8.7-23.6C1182.6,1020,1190.9,995.8,1199.3,971.6z"/>
	<path class="st3" d="M1212.9,593.8c-28.9-11.9-57.5-24.2-85.6-37.4c-85-39.8-169.8-79.9-254.5-120.1c-7.3-3.5-12.9-3.1-20,0.3
		c-107.2,50.8-214.5,101.4-321.9,151.9c-4.9,2.3-10.1,4.1-16.2,6.1c-1.6-3.1-2.8-6.3-2.8-9.5c-0.1-84.3-0.1-168.6-0.1-252.9
		c0-2.1,0.2-4.2,0.5-8.4c43.6,0,87.2,0,133.1,0c146.6-0.1,290.7-0.1,434.9-0.2c44.1,0,88.1,0,132,0c0.8,2.7,1.4,3.9,1.4,5
		C1213.7,416.7,1213.6,504.8,1212.9,593.8z"/>
	<path class="st4" d="M1080.3,322.4c-144.1,1.2-288.3,1.3-433.7,1.3c-1.2-53.4-1.2-106.7-1.2-162c54.1,0,106.8,0,161.3,0
		c2.2,0,2.6,0,4.3,0c35.8,0,70.5,0,105.7,0c1.1,0,1.5-0.1,1.9-0.1c53.2,0,106.4,0,161.6,0C1080.2,215.7,1080.2,268.5,1080.3,322.4z"
		/>
	<path class="st5" d="M297.7,1188c375.9-0.9,752.2-0.9,1129.8-0.9c-2.7,0.8-6.5,2.5-10.3,2.5c-369.7,0.1-739.3,0.1-1109,0.1
		C304.9,1189.6,301.5,1189.2,297.7,1188z"/>
	<path class="st6" d="M918.5,160.4c-0.4,1.2-0.8,1.2-1.9,0.1c-0.7-44.8-0.7-88.4-0.7-132c-36.4,0-70.6,0-106.2,0
		c0,45,0,89.1,0,133.2c-0.4,0-0.8,0-1.9-0.1c-0.6-41.4-0.4-82.7-0.7-124.1c-0.1-8.8,1.6-12.9,11.7-12.7c29.5,0.6,59,0.5,88.4,0
		c8.9-0.1,11.5,2.8,11.5,11.6C918.3,77.4,918.5,118.3,918.5,160.4z"/>
	<path class="st7" d="M1198.1,971.5c-7.2,24.2-15.4,48.4-23.9,72.6c-2.8,7.9-6.9,15.5-8.7,23.6c-2.6,11.6-9.5,13.2-20.1,13.2
		c-188.5-0.3-376.9-0.3-565.4,0c-11,0-16.3-3-19.9-13.6c-10.5-31.4-22.2-62.5-33.5-94.7c31.6,0.7,60.4-7.8,87.5-23.7
		c3.2-1.9,9.6-1.7,12.8,0.3c49.7,29.7,99.1,29.6,148.8-0.2c3.2-1.9,9.6-1.8,12.8,0.1c49.7,29.7,99.1,29.7,148.8-0.1
		c3.2-1.9,9.6-1.9,12.8,0c49.7,29.7,99,29.8,148.8,0.1c3.4-2.1,10.3-1.7,13.9,0.4C1139.1,964.3,1166.5,973.2,1198.1,971.5z"/>
	<path class="st2" d="M810.9,161.7c-1.2-44.2-1.2-88.3-1.2-133.3c35.6,0,69.9,0,106.2,0c0,43.7,0,87.3,0,132
		C881.4,161.7,846.8,161.7,810.9,161.7z"/>
</g>
</svg>
