<?xml version="1.0" encoding="utf-8"?>
<!-- Generator: Adobe Illustrator 28.2.0, SVG Export Plug-In . SVG Version: 6.00 Build 0)  -->
<svg version="1.1" id="Layer_1" xmlns="http://www.w3.org/2000/svg" xmlns:xlink="http://www.w3.org/1999/xlink" x="0px" y="0px"
	 viewBox="0 0 1728 1296" style="enable-background:new 0 0 1728 1296;" xml:space="preserve">
<style type="text/css">
	.st0{fill:#F5BC01;}
	.st1{fill:#F45477;}
	.st2{fill:#FADB01;}
	.st3{fill:#FADA01;}
	.st4{fill:#F55476;}
	.st5{fill:#EB7901;}
	.st6{fill:#EB7A01;}
	.st7{fill:#F891AC;}
	.st8{fill:#FADB02;}
	.st9{fill:#FADB03;}
	.st10{fill:#EA7B04;}
	.st11{fill:#FA90AC;}
	.st12{fill:#EB7900;}
	.st13{fill:#F5BB02;}
	.st14{fill:#E6C34C;}
	.st15{fill:#EB0202;}
	.st16{fill:#EB7A00;}
	.st17{fill:#2602C2;}
	.st18{fill:#EB0100;}
</style>
<g>
	<path class="st0" d="M606,724.4c-1.9-12.2-3.8-24.4-5.8-38.7c-2-30.2-3.8-58.4-5.7-86.5c0.9-9.1,1.9-18.1,2.8-29.5
		c5-37.2,9.9-72.1,14.9-107c6.5-20.8,13.2-41.5,19.2-62.4c1-3.4,0-8.2-1.7-11.4c-15.1-28.7,0.6-58.1,32.7-62
		c4.7-0.6,9.6-3.7,13.3-6.8c14.3-12.1,28.3-24.7,43.7-38c5.7-2.2,10.1-3.5,14.4-4.8c23-6.9,44.8-4.9,65.2,8.6
		c13.3,11.3,26.4,22.8,39.9,33.8c3.8,3.1,8.5,6.7,13.2,7.2c33.7,3.4,49.7,33.5,33.4,63.2c-1.7,3.2-2.6,8-1.6,11.4
		c5.8,20.1,12.3,40.1,19,61.9c5.5,36.7,10.5,71.5,15.3,107.5c-0.9,36.6-1.6,72.1-2.7,108.1c-1.9,1.5-3.3,2.4-5.7,3.7
		c-41.7,23.1-74.8,54.2-100.5,93.1c-42.9,64.8-58.3,135.8-47.9,212.8c4.8,35.5,17.5,68.2,32.1,99.9c-36.7-9.3-70.8-3.6-103.8,11
		c-16,7.1-15.7,7.4-9.4,23.3c18.2,45.3,43.5,86.2,76.4,122.2c-52.9,0-105.7,0-159.5,0c-2.1-22.1,3.2-42.2,11.3-61.6
		c11.9-28.7,30.9-52,56.5-69.5c7.1-4.8,9-8.6,6.2-17.2c-17.3-52.1-23.1-105.8-20.6-162.9c2-18.7,4.1-35.2,5.8-51.7
		c0.4-3.4,0.2-7.3-1.2-10.3c-3.8-8.3-8.4-16.3-12.7-24.4c-5.2-12.4-10.4-24.7-16.3-38.6C618.9,779.7,612.4,752,606,724.4z
		 M666.1,376.4c-5.2,8.9-10.4,17.9-15.5,26.8c15.4,9,34.1,3.4,46.3-13.1c10.7-14.5,9.4-35.2-4.9-49.4
		C683.5,352.3,675.3,363.6,666.1,376.4z M846.2,372.4c-7.5-10.4-14.9-20.8-22.6-31.4c-11.7,12-14.7,27.8-9.1,40.9
		c7,16.3,21.7,26,38.3,25.8c9.6-0.1,12.8-2.9,7.1-12C855.5,388.6,851.4,381.2,846.2,372.4z"/>
	<path class="st1" d="M910.7,682.2c1.5-0.9,2.9-1.9,5.7-3.5c46.9-24.3,95.6-35,146.9-35c71.4,0,142.8-0.6,214.2-0.7
		c38.6,0,77.2,0.4,115.8,1.3c-0.1,1-0.2,1.5-1.4,1.6c-41.2-0.3-81.3-0.3-121.4-0.3c0,18.4,0,34.9,0,52.3c39,0,77.1,0,115.3,0.8
		c0,1.3,0,1.8,0.1,2.3c-10.1,49.9-34.8,91.9-71.2,126.7c-50.1,47.8-110.5,70.7-179.6,70.4c-25.7-0.1-51.3,0.4-77-0.2
		c-18.4-0.4-34.9,4.2-50.7,14.9c-39.6-40-78-79.6-116.6-119.1c-2.7-2.8-6.7-4.4-9.9-7.4c2.9-7,6.4-12.9,8.1-19.3
		C896.4,738.8,903.4,710.5,910.7,682.2z M1161.2,706.8c1.1,3.6,1.7,7.5,3.5,10.7c5.4,9.5,13.7,14.6,24.9,14.1
		c11.7-0.5,19.7-6.7,24.1-17.3c4.3-10.3,2-19.9-5.3-28.1c-7.9-8.8-18-11-28.7-7.3C1167.7,682.9,1161.7,692.1,1161.2,706.8z"/>
	<path class="st2" d="M611.1,462.7c-3.8,34.9-8.7,69.8-13.7,105.9c-67.8,1-135.6,0.7-203.4,1c-9.8,0-14.7-2.5-18.7-11.8
		c-30.8-70.6-62.3-141-93.1-213.1c3.9-4.6,7.7-7.4,10.9-10.6c86.5-86.6,173-173.2,259.4-259.9c2.9-2.9,5.2-6.5,7.7-9.8
		c2.7,19.3,7.3,38.7,7.8,58.1c1.6,70-20.2,130.9-73.9,178c-26.8,23.5-58.4,37.7-93.8,46.1c1.2,3.6,1.9,6.7,3.1,9.6
		c14.3,32.3,28.8,64.5,42.7,97c3.1,7.2,7,9.9,15,9.8C510.7,462.6,560.3,462.8,611.1,462.7z"/>
	<path class="st3" d="M918.4,569.6c-5.1-34.8-10.1-69.7-15.1-105.5c50.1-1.1,100.1-1.5,150.2-1.1c9.1,0.1,13.1-3,16.5-11.2
		c14.4-34.9,29.5-69.5,44.6-104.8c-13.8-4.7-27.1-8.3-39.6-13.8c-74.2-32.5-114.6-90.6-126.6-169.7c-4.7-31.1-3-62.1,3.7-94
		c4.9,2.2,9,5.1,12.5,8.6c83,83.1,165.9,166.2,248.9,249.2c3.8,3.8,8.5,6.5,13.1,10.4c2.6,2.6,4.9,4.6,7.1,6.6
		c-24.8,56-49.7,112-75.2,169.2c-1.2,1.7-1.8,2.2-3.7,2.5c-61-0.1-120.8-0.1-181.1-0.1c0,19.2,0,36.3-1.2,53.7
		C953.8,569.6,936.1,569.6,918.4,569.6z"/>
	<path class="st4" d="M1090.3,1044.9c90.6,9.4,166.5,83.5,176.8,175c-0.1,8.7-0.1,15.3-0.1,21.8c-71.9,0-141.7,0-212.4,0
		c0-63.5,0.1-125.9-0.1-188.2c0-7,3.4-8.5,9.4-8.4C1072.7,1045.4,1081.5,1045,1090.3,1044.9z"/>
	<path class="st5" d="M559.2,63.8c-1.6,3.9-3.9,7.5-6.8,10.4C466,160.9,379.5,247.5,293,334.1c-3.2,3.2-7,6-10.9,9.7
		c-3-24.1-8.2-49-7.6-73.8c2.1-101.2,65.2-180.7,161.4-205.2C476.4,54.4,517.3,55,559.2,63.8z"/>
	<path class="st6" d="M1234.2,343.3c-2.6-1-4.9-3-7.7-6.5c-3.8-4.8-6.9-8.3-10.1-11.5C1132.9,241.6,1049.4,158,966,74.3
		c-3.5-3.6-6.7-7.4-10.1-11.2c126.7-28.4,258.9,32.8,281.4,177.3C1242.5,274.6,1241.1,308.5,1234.2,343.3z"/>
	<path class="st7" d="M1089.5,1044.3c-8,0.7-16.8,1.1-25.6,0.9c-6-0.1-9.4,1.3-9.4,8.4c0.2,62.3,0.1,124.6,0.1,188.2
		c70.7,0,140.5,0,212.4,0c0-6.5,0-13,0.2-20.7c1.2,6.6,2.1,14.4,3.2,23.7c-6.1,0.3-10.5,0.7-15,0.7c-72.4,0-144.8,1.2-217.1-0.5
		c-42.7-1-82.9-15-122.5-35.1c-2.2-1.8-3-3-3.3-5.1c-7.1-31.2-24.1-55.8-44.9-78.7c14.9-16.3,29.3-32.1,44.2-47.3
		c21.9-22.5,44.2-44.5,66.2-67c3.4-3.5,5.7-7.9,8.6-11.9c16.6,31.6,43.1,45,78.1,43.1C1072.7,1042.4,1080.7,1043.4,1089.5,1044.3z"
		/>
	<path class="st1" d="M1156.1,516c0.6-0.4,1.2-0.9,2.2-1.8c8.4-0.1,16.3,0.5,24.3,0.5c73.2,0.1,146.3,0.1,219.5,0
		c33.6,0,63.4,8.8,83.7,37.8c20.8,29.7,24,61.7,8.2,94.4c-15.7,32.4-43,48.5-78.5,50.9c-8.4,0.6-16.8,0.2-26.7,0.1
		c-1.5-0.2-2.1-0.7-1.7-1.7c2.2-17.3,4-33.8,5.8-50.2c0.1-0.4,0.1-0.8,1.4-2c5.9-0.7,10.5-0.7,15.1-0.8
		c22.3-0.4,38.7-15.6,39.1-36.3c0.4-19.6-16.8-36.9-38.4-37.3c-31.5-0.6-63-0.1-94.6-0.2c-60.1-0.1-120.2-0.3-180.2-1.4
		C1142.3,550.1,1149.2,533.1,1156.1,516z"/>
	<path class="st8" d="M641.6,847.7c5.1,7.8,9.7,15.8,13.6,24.1c1.4,3,1.6,6.9,1.2,10.3c-1.7,16.5-3.8,32.9-5.8,50.4
		c-28.4,13.5-57.9,24-85,38.9c-43.8,24.1-89.5,34.2-139,29.4c-14.5-1.4-29.3-0.2-44.9-0.2c0-26.7,0-52.6,0-79.9
		c25.5,0,50.6-0.6,75.7,0.2c16,0.5,30.3-2.7,44.8-9.6C548,889.7,594.5,869,641.6,847.7z"/>
	<path class="st9" d="M605.9,725.3c6.5,26.7,12.9,54.4,19.4,83c-40.6,19.4-81.1,37.9-121.7,56.3c-2.6,1.2-5.6,2.5-8.4,2.5
		c-37.8,0.2-75.6,0.1-114.3,0.1c0-26.7,0-52.6,0-80.4c12.1,0,24.6-1.1,36.9,0.2c43.2,4.5,82.9-5.1,120.7-26.3
		c18.6-10.5,39-17.8,58.4-26.9C600.2,732.1,602.8,728.8,605.9,725.3z"/>
	<path class="st8" d="M593.6,599.4c2.7,27.9,4.6,56,6.4,85.2c-28.8,13.8-57.4,27.1-86.6,39c-10.2,4.2-21.6,6.8-32.6,7
		c-33.1,0.9-66.3,0.3-100.2,0.3c0-27.1,0-53.1,0-80.7c18.4,0,36.8-1.1,55.1,0.3c30.6,2.3,58.7-3.9,85.9-18.4
		C544.6,619.9,569,610.4,593.6,599.4z"/>
	<path class="st10" d="M798.9,284.9c-20.3-12.6-42.1-14.5-65.1-7.7c-4.4,1.3-8.7,2.6-14,4.1c-30.7-38.5-60.4-77.2-90.8-116.7
		c14.5-11.1,28-21.5,42.7-32.8c28.8,37.9,57.3,75.3,86.6,113.9c24.7-37.1,48.9-73.3,73.8-110.8c14.9,9.8,29.2,19.2,44.7,29.4
		c-5.6,8.6-10.9,16.5-16.1,24.5C840.1,220.5,819.5,252.2,798.9,284.9z"/>
	<path class="st11" d="M880.5,787.2c3.4,2.2,7.4,3.8,10.1,6.6c38.6,39.5,77,79.1,115.8,119.5c-7.6,13.8-15.5,26.9-24.8,39.8
		c-5.9-0.5-10.5-1.2-15-1.2c-33.8-0.1-67.5-0.2-101.4-1.3c-4.5-33.5-9-65.8-13.1-98.2c-0.6-4.6-0.4-10,1.6-14
		C862.2,821.1,871.5,804.3,880.5,787.2z"/>
	<path class="st12" d="M757.3,1245c-33.5-36.2-58.8-77.1-77-122.4c-6.4-15.9-6.7-16.2,9.4-23.3c33-14.6,67.2-20.2,104.5-10.5
		c13.1,17,24.5,33.5,35.1,50.4c-13.1,21.7-24.7,43.4-38.1,64c-9.5,14.7-21.3,27.8-32.1,41.6C759,1244.8,757.9,1245.2,757.3,1245z"/>
	<path class="st4" d="M865.4,951.7c33.8,0.1,67.5,0.1,101.3,0.2c4.5,0,9.1,0.7,14.3,1.8c2.3,15.2,3.8,29.6,5.5,45
		c-2.6,5-5,9.4-8.3,12.9c-22,22.4-44.3,44.5-66.2,67c-14.9,15.3-29.2,31-44.9,47c-9.4-6-17.6-12.5-26.4-19.3
		C857.9,1056.3,866.2,1004.7,865.4,951.7z"/>
	<path class="st13" d="M760.2,1245c9.6-14,21.5-27.1,31-41.7c13.3-20.6,24.9-42.3,38.8-63.5c24.4,27,51.7,48.5,82.3,65.9
		c0.7,1.2,1.5,2.4,2.8,3.9c1.8,11.5,3,22.7,4.3,35.6C865.8,1245.1,813.6,1245.1,760.2,1245z"/>
	<path class="st14" d="M955.1,63.2c4.2,3.7,7.4,7.6,10.9,11.2c83.4,83.6,166.9,167.3,250.3,250.9c3.3,3.3,6.4,6.7,9.8,10.9
		c-4-2.4-8.7-5.2-12.5-9c-83-83-165.9-166.2-248.9-249.2c-3.5-3.5-7.6-6.4-12.3-9.6C952.4,66.6,953.3,64.9,955.1,63.2z"/>
	<path class="st1" d="M1386.2,700.6c-0.5-0.2-0.5-0.7-0.3-2.2c0.2-1,0.8-1.3,0.8-1.3s0.6,0.6,0.9,0.9
		C1387.6,699.1,1387.2,699.8,1386.2,700.6z"/>
	<path class="st15" d="M912.6,1204.7c-31-16.4-58.3-38-81.9-65.4c-12-17-23.4-33.5-35.5-50.4c-16.3-32.3-29-65-33.8-100.4
		c-10.4-77,5-148,47.9-212.8c25.8-38.9,58.8-70,100.5-93.1c-6.4,27.9-13.5,56.2-21.1,84.4c-1.7,6.4-5.3,12.3-8.1,19.3
		c-9.2,17.9-18.5,34.8-27,52.1c-2,4-2.1,9.4-1.6,14c4.1,32.4,8.6,64.7,13.1,98.2c1,54.2-7.3,105.8-24.6,155.7
		c8.8,6.8,17,13.3,26,20.1C888.6,1148.9,905.5,1173.5,912.6,1204.7z"/>
	<path class="st16" d="M666.6,375.6c8.7-12.1,16.9-23.3,25.3-34.9c14.3,14.2,15.7,34.8,4.9,49.4c-12.1,16.4-30.8,22.1-46.3,13.1
		C655.7,394.3,660.9,385.3,666.6,375.6z"/>
	<path class="st16" d="M846.7,373.1c4.7,8,8.8,15.4,13.3,22.5c5.7,9,2.5,11.8-7.1,12c-16.6,0.2-31.4-9.5-38.3-25.8
		c-5.6-13.1-2.5-28.9,9.1-40.9C831.3,351.6,838.7,362,846.7,373.1z"/>
	<path class="st15" d="M1387.1,696.3c-0.4,0.9-1,1.3-1.2,1.4c-38.4,0.2-76.5,0.2-115.5,0.2c0-17.4,0-34,0-52.3
		c40.1,0,80.2,0,121.4,0.3C1391.1,662.5,1389.3,678.9,1387.1,696.3z"/>
	<path class="st17" d="M1161.1,705.8c0.5-13.6,6.6-22.9,18.5-26.9c10.7-3.6,20.9-1.5,28.7,7.3c7.3,8.2,9.6,17.7,5.3,28.1
		c-4.4,10.6-12.4,16.8-24.1,17.3c-11.2,0.5-19.5-4.6-24.9-14.1C1162.9,714.3,1162.3,710.4,1161.1,705.8z"/>
	<path class="st18" d="M1135.3,568.1c-53.1,1.1-106.1,1.3-160.3,1.3c-1.2-17.3-1.2-34.5-1.2-53.6c60.3,0,120.1,0,181.1,0.1
		C1149.2,533.1,1142.3,550.1,1135.3,568.1z"/>
</g>
</svg>
