<?xml version="1.0" encoding="utf-8"?>
<!-- Generator: Adobe Illustrator 28.2.0, SVG Export Plug-In . SVG Version: 6.00 Build 0)  -->
<svg version="1.1" id="Layer_1" xmlns="http://www.w3.org/2000/svg" xmlns:xlink="http://www.w3.org/1999/xlink" x="0px" y="0px"
	 viewBox="0 0 1728 1296" style="enable-background:new 0 0 1728 1296;" xml:space="preserve">
<style type="text/css">
	.st0{fill:#EB0000;}
	.st1{fill:#F45476;}
	.st2{fill:#EB0202;}
	.st3{fill:#EB0102;}
	.st4{fill:#F55275;}
	.st5{fill:#EB0101;}
	.st6{fill:#FFFFFF;}
</style>
<g>
	<path class="st0" d="M867.7,982.1c-1.1,0-2.2,0-4.4-0.9c-2.4-2-3.5-3.2-4.9-4.2c-89.7-65.3-179.3-130.8-269.3-195.8
		c-7.7-5.6-10-10.1-6.9-19.6c23.6-72.3,46.4-144.9,69.8-217.3c11.7-36.4,24.1-72.6,36.3-108.8c0,0,0.1,0,1.2,0.1
		c118.1,0.1,235,0.1,351.9,0.1c0,0,0.3,0.1,0.4,1.2c2.8,9.5,5.5,17.9,8.3,26.2c32.5,99.9,65,199.8,97.2,299.7
		c1.4,4.3,0.3,9.4-0.5,14.3c-86,62.1-171.1,124-256.2,186C882.6,968.9,875.3,975.7,867.7,982.1z M864.2,759
		c4.6-0.6,9.1-1.1,13.7-1.9c45.1-7.5,76.2-51.2,66.9-94c-10.7-49-55.5-76.5-102.9-63.1c-43.3,12.2-67.9,59.9-52.7,103.6
		C801.1,737.9,826.9,754.8,864.2,759z"/>
	<path class="st1" d="M687.3,435.4c-11,36.2-23.4,72.4-35.2,108.7c-23.4,72.4-46.2,145-69.8,217.3c-3.1,9.5-0.9,14,6.9,19.6
		c89.9,65,179.6,130.4,269.3,195.8c1.4,1,2.5,2.2,4,4.2c-16.1,12.4-32.3,24.3-48.9,35.6c-75.7,51.6-151.6,103-228.1,153.7
		c20.4-33.9,8.5-73.2-26-84.8c-24.2-8.1-44.9-0.7-64.9,23.4c13.7-55.6,27.4-111.1,41.2-166.7c13.1-52.7,26.3-105.4,40-157.9
		c2.2-8.4,0.6-12.7-6.2-17.8C482,700.8,394.7,634.8,308.1,567.9c2.3-0.6,4-0.4,5.6,0c26.9,6.3,55.5-9.2,63.6-34.6
		c8.9-27.8-4-57.6-30.7-67.5c-9-3.3-19.7-2.2-29.7-3.2c13.7-1.2,27.3-2.7,41-3.7c89.7-6.2,179.5-12.3,269.2-18.5
		C646.8,439.1,666.5,437.2,687.3,435.4z M602.6,1000.5c22.4,36.8,73.9,36.9,94.1,0.1c12.7-23.1,7.8-49.5-12.6-67.4
		c-17.8-15.6-47.5-16.6-66.7-2.3C596.6,946.6,590.5,973.3,602.6,1000.5z M515.3,623c30.8-1.1,54.1-24.2,54-53.6
		c-0.1-29.5-24.2-53.2-54.2-53.3c-29.5-0.1-53.5,22.9-54.1,51.8C460.5,598,482.7,621.6,515.3,623z"/>
	<path class="st1" d="M1041.3,434.7c-116.7,0.9-233.6,0.8-351.7,0.7c33.1-97.4,67.3-194.7,101.9-291.8c7.2-20.1,16-39.7,24.9-58.9
		c0,3-0.9,5.4-1.7,7.7c-8.2,25.1,1.4,51.6,23.3,64.6c22.6,13.4,49.2,9.2,67.4-10.8c17.1-18.9,16-40.3,7.9-62.4
		c3.8,6.9,8.6,13.3,11.2,20.6C963.5,214.1,1002.2,324,1041.3,434.7z M908.9,330.7c13.2-20.6,13.2-44.6,0.1-62.7
		c-13.2-18.1-36.1-26.6-56.8-20.9c-21.8,6-38.7,25.1-40.1,45.3c-2,27.7,9.8,47.6,33.9,57.3C868.1,358.7,890.2,352.5,908.9,330.7z"/>
	<path class="st1" d="M1147.7,776.8c-0.1-4.7,1-9.8-0.3-14.1c-32.2-100-64.7-199.8-97.2-299.7c-2.7-8.4-5.4-16.8-8.2-26.1
		c123.3,7.6,246.6,16.1,369.6,25.5c-2.4,0.8-4.5,0.8-6.6,0.6c-22.1-1.5-38,7.9-48.2,27.3c-10.6,20.2-9,40,4.7,57.9
		c15.9,20.8,37.6,24.7,62,18.8c-33,25.3-65.9,50.8-99.1,75.9c-54.7,41.4-109.6,82.5-164.3,123.9c-3.3,2.5-5.1,7-8.3,11.2
		C1150,778.1,1148.8,777.4,1147.7,776.8z M1253.2,607.7c18.7-20.4,21.7-45.6,7.9-67.1c-12.8-20-38-29.5-60.6-22.8
		c-22.1,6.5-37.4,25.5-39.3,49c-1.5,18.3,11.5,41.1,28.5,50.1C1210.5,627.8,1232.9,624.9,1253.2,607.7z"/>
	<path class="st1" d="M1146.9,777c2,0.4,3.1,1,4.8,2c13.7,51.2,26.9,102.1,40,153c14.9,58.3,29.7,116.6,43.8,175.5
		c-16.9-22.2-41.1-30.5-65.7-21.6c-23.6,8.6-37.3,30.8-33.9,58.1c1.2,9.6,6.4,18.7,9.8,28c-17.9-11.6-36-23-53.6-35
		c-74.7-51-149.2-102.2-224.1-154.2c7.4-7.2,14.7-14,22.7-19.8C975.7,901,1060.9,839.2,1146.9,777z M1096.3,923
		c-45.3-12.3-77.5,29.5-67.8,64.5c7.3,26.3,28.5,41.5,56.5,40.4c25-1,44.8-19.8,49.6-47.3C1138.6,958.3,1122.9,933.7,1096.3,923z"/>
	<path class="st2" d="M316,462.9c10.9,0.8,21.6-0.3,30.6,3.1c26.7,9.9,39.6,39.6,30.7,67.5c-8.1,25.3-36.7,40.9-63.6,34.6
		c-1.6-0.4-3.3-0.6-6-0.8c-21.8-11.3-35.3-27.9-35.6-52.5C271.8,489.8,288.6,470.1,316,462.9z"/>
	<path class="st2" d="M494.2,1109.9c20.4-25,41-32.4,65.3-24.3c34.6,11.6,46.4,50.9,25.2,84.9c-12.2,7.1-23.8,16.6-36.6,18.8
		C507.6,1196.2,474.7,1153.9,494.2,1109.9z"/>
	<path class="st2" d="M1424.3,566.6c-25.1,6.3-46.9,2.4-62.8-18.4c-13.7-17.9-15.3-37.7-4.7-57.9c10.2-19.4,26.1-28.8,48.2-27.3
		c2.1,0.1,4.2,0.2,7.4,0c23.7,3.9,38.2,17.4,43.8,39.3c5.8,22.6-1.9,41.5-19.7,56.2C1433,561.5,1428.9,563.7,1424.3,566.6z"/>
	<path class="st3" d="M1146.2,1172.7c-4-9.9-9.2-19-10.4-28.6c-3.4-27.4,10.2-49.6,33.9-58.1c24.6-8.9,48.8-0.6,65.6,22.6
		c14.6,38.4,1.2,70.5-33,79.8C1181.1,1194.1,1162.8,1187.5,1146.2,1172.7z"/>
	<path class="st2" d="M912.7,83c8.6,22.9,9.6,44.3-7.5,63.2c-18.2,20.1-44.8,24.2-67.4,10.8c-21.9-13-31.5-39.5-23.3-64.6
		c0.8-2.4,1.7-4.7,2.5-8.1C844.3,48.1,884.5,47.6,912.7,83z"/>
	<path class="st4" d="M863.1,759c-36.2-4.1-62.1-21.1-74-55.3c-15.2-43.7,9.4-91.4,52.7-103.6c47.4-13.4,92.2,14.2,102.9,63.1
		c9.3,42.7-21.8,86.5-66.9,94C873.3,757.8,868.8,758.4,863.1,759z"/>
	<path class="st5" d="M602.2,999.6c-11.7-26.3-5.6-53,15.3-68.6c19.1-14.3,48.9-13.3,66.7,2.3c20.4,17.8,25.4,44.3,12.6,67.4
		C676.5,1037.4,625.1,1037.3,602.2,999.6z"/>
	<path class="st5" d="M514.2,623c-31.5-1.4-53.7-25-53.1-55.1c0.6-28.8,24.6-51.9,54.1-51.8c29.9,0.1,54.1,23.9,54.2,53.3
		C569.4,598.8,546.1,621.8,514.2,623z"/>
	<path class="st5" d="M908.4,331.5c-18.2,21-40.4,27.2-62.5,18.3c-24.1-9.8-35.9-29.7-33.9-57.3c1.4-20.2,18.3-39.3,40.1-45.3
		c20.6-5.7,43.6,2.8,56.8,20.9C922.2,286.1,922.1,310.1,908.4,331.5z"/>
	<path class="st5" d="M1252.6,608.4c-19.7,16.5-42.1,19.4-62.8,8.6c-17.1-9-30.1-31.7-28.5-50.1c2-23.5,17.2-42.5,39.3-49
		c22.6-6.7,47.8,2.8,60.6,22.8C1274.9,562.1,1271.9,587.4,1252.6,608.4z"/>
	<path class="st5" d="M1097.3,923.3c25.7,10.4,41.3,34.9,37.3,57.3c-4.9,27.5-24.6,46.3-49.6,47.3c-28,1.1-49.2-14.1-56.5-40.4
		C1018.8,952.5,1050.9,910.7,1097.3,923.3z"/>
	<path class="st6" d="M962.5,1267.7c-2.5,22.2,71.6,226,52.7,209.7"/>
</g>
</svg>
