<?xml version="1.0" encoding="utf-8"?>
<!-- Generator: Adobe Illustrator 28.2.0, SVG Export Plug-In . SVG Version: 6.00 Build 0)  -->
<svg version="1.1" id="Layer_1" xmlns="http://www.w3.org/2000/svg" xmlns:xlink="http://www.w3.org/1999/xlink" x="0px" y="0px"
	 viewBox="0 0 1728 1296" style="enable-background:new 0 0 1728 1296;" xml:space="preserve">
<style type="text/css">
	.st0{fill:#FFFFFF;}
	.st1{fill:#6C1AFE;}
	.st2{fill:#2303C4;}
	.st3{fill:#A64AFF;}
	.st4{fill:#2402C5;}
</style>
<g>
	<path class="st0" d="M583.2,847.7c-84.7,110.9-169.4,221.8-254.1,332.7c0.8,0.8,1.5,1.5,2.3,2.3c4.3-3.1,8.6-6.1,12.9-9.2
		c33.2-24.4,66.4-48.7,99.6-73.1c76.5-56.3,152.9-112.7,231.3-168.8c87.2,25.2,176.7,36.3,267,39.7c110.7,4.2,221.1-1.2,330.2-22.4
		c42-8.2,83.4-18.4,121.9-38c7.1-3.6,10.1-6.9,7.7-16.4c-53-204.6-105.5-409.2-157.8-614c-2.4-9.2-7.4-12.6-15.7-14.7
		C1026.5,214.5,824.6,163,622.8,111.2c-12-3.1-16.3-0.4-20.3,11.1c-27.6,77.8-48.1,157.4-55.2,239.8c-5,57.8-9,116.1-7.7,174
		c1.4,59.6,7.5,119.3,15.8,178.3C561.7,759,574.7,802.7,583.2,847.7z"/>
	<path class="st1" d="M584.7,846.8c-10-44.1-23-87.8-29.3-132.4c-8.3-59-14.5-118.8-15.8-178.3c-1.3-57.9,2.7-116.2,7.7-174
		c7.1-82.3,27.6-161.9,55.2-239.8c4.1-11.5,8.3-14.2,20.3-11.1c201.8,51.9,403.7,103.3,605.6,154.7c8.3,2.1,13.4,5.5,15.7,14.7
		c52.3,204.7,104.8,409.4,157.8,614c2.5,9.6-0.6,12.8-7.7,16.4c-38.5,19.6-79.9,29.8-121.9,38c-109.1,21.2-219.5,26.5-330.2,22.4
		c-90.3-3.4-179.8-14.6-268.8-40.2c-17.3-6-32.9-11.4-47.3-17.1c18.2,1.4,35.3,4.6,52.4,4.4c59.2-0.9,118.5-1.5,177.6-5
		c53.4-3.2,105.1-16.2,155.1-35.3c76.9-29.4,137-78,172.4-153.9c30.3-65,43.4-134.3,45.2-205.2c1.3-49.9-2-100.1-4.9-150
		c-1.4-24.1-6.6-47.9-10.2-72.8c-31.1-3.5-60.9-9-90.9-9.7c-44.9-1.1-90,0.1-134.9,2c-53.1,2.2-104.6,13.7-154.5,32.3
		c-41.8,15.6-80,37.1-112.5,68.1c-40.8,39-66.6,87.3-85.1,139.9c-28.9,81.9-36.2,167.2-37.6,253c-0.7,41.4,4.3,83,6.1,123.8
		C597.3,885.5,591,866.2,584.7,846.8z"/>
	<path class="st2" d="M624.9,914.2c15.5,5.5,31,11,47.4,16.8c-75.6,56.7-152,113.1-228.5,169.4c-33.2,24.4-66.4,48.8-99.6,73.1
		c-4.3,3.1-8.6,6.2-12.9,9.2c-0.8-0.8-1.5-1.5-2.3-2.3c84.7-110.9,169.4-221.8,254.9-333.2c7.1,18.9,13.4,38.3,20.5,59.3
		C611.8,910.1,618.4,912.2,624.9,914.2z"/>
	<path class="st3" d="M626,914c-7.7-1.9-14.2-3.9-20.9-6.8c-2.6-42.4-7.6-84-6.9-125.4c1.4-85.8,8.7-171.1,37.6-253
		c18.6-52.6,44.3-100.9,85.1-139.9c32.5-31,70.7-52.5,112.5-68.1c49.9-18.6,101.3-30,154.5-32.3c44.9-1.9,90-3.2,134.9-2
		c30,0.8,59.8,6.2,90.9,9.7c3.6,24.8,8.9,48.7,10.2,72.8c2.9,50,6.1,100.1,4.9,150c-1.8,71-14.9,140.3-45.2,205.2
		c-35.4,75.9-95.6,124.5-172.4,153.9c-50,19.1-101.8,32.1-155.1,35.3c-59.1,3.5-118.4,4.1-177.6,5C661.3,918.6,644.2,915.5,626,914z
		 M1038.4,347.1c15,6.3,27.4,3.4,35.4-8.3c6.6-9.6,5.6-24-2.2-32.8c-10.6-12-27.5-12.6-39-1.4
		C1020.6,316.4,1022.3,333.3,1038.4,347.1z M1206.5,476.8c9.6-15.3,9.1-27.1-1.6-37.3c-9.4-8.9-24.5-9.8-34.6-2
		c-12.3,9.5-14.5,25.6-5.1,37.9C1174.7,487.9,1190.1,489,1206.5,476.8z"/>
	<path class="st4" d="M1037.6,346.7c-15.3-13.4-17-30.3-5-42c11.5-11.2,28.4-10.6,39,1.4c7.8,8.8,8.7,23.1,2.2,32.8
		C1065.8,350.5,1053.4,353.4,1037.6,346.7z"/>
	<path class="st4" d="M1205.8,477.5c-15.7,11.5-31.1,10.5-40.7-2.1c-9.4-12.4-7.2-28.4,5.1-37.9c10.1-7.8,25.2-6.9,34.6,2
		C1215.6,449.7,1216.1,461.5,1205.8,477.5z"/>
</g>
</svg>
