<?xml version="1.0" encoding="utf-8"?>
<!-- Generator: Adobe Illustrator 28.2.0, SVG Export Plug-In . SVG Version: 6.00 Build 0)  -->
<svg version="1.1" id="Layer_1" xmlns="http://www.w3.org/2000/svg" xmlns:xlink="http://www.w3.org/1999/xlink" x="0px" y="0px"
	 viewBox="0 0 1728 1296" style="enable-background:new 0 0 1728 1296;" xml:space="preserve">
<style type="text/css">
	.st0{fill:#3DD9EB;}
	.st1{fill:#00B3D7;}
	.st2{fill:#3ED8EA;}
	.st3{fill:#3ED8EB;}
	.st4{fill:#849BC4;}
	.st5{fill:#3FD8EA;}
	.st6{fill:#9AA4C0;}
	.st7{fill:#4EB3DD;}
	.st8{fill:#01B3D7;}
</style>
<g>
	<path class="st0" d="M725.7,999.9c-25.9-1.8-51.7-3.6-78.3-5.5c-2.1,10-4.2,19.7-7.3,30.8c-1.4,3.6-1.7,5.7-1.9,7.9
		c-1.6,5.4-3.3,10.8-5.9,17.4c-1.3,2.4-1.6,3.6-1.9,4.8c-10.4,17.7-20.7,35.3-32.4,53.6c-1.9,1.8-2.4,2.9-2.9,4.1
		c0,0-0.3,0.8-0.9,1.2c-1,0.7-1.2,1-1.3,1.5c-19.8,23.7-44.4,41-73.9,53.9c-2.6,0.8-3.6,1.4-4.6,2.1c-2.2,1-4.3,1.9-8.1,3
		c-3.5,0.8-5.3,1.6-7.1,2.4c0,0-0.2,0.3-1.1,0.3c-2.8,0.7-4.6,1.4-6.4,2.1c-0.4,0.2-0.8,0.4-2.6,0.5c-3.5,0.7-5.5,1.4-7.5,2.1
		c0,0-1.1,0.6-2.6,0.5c-3.4,0.5-5.4,1.2-7.4,1.8c-1.1,0.3-2.2,0.5-5.2,0.7c-5.4,0.6-8.9,1.2-12.5,1.8c-2.7,0.3-5.5,0.6-10.3,0.8
		c-9.2,0.4-10.2-3.8-10.2-9.7c0.2-87.3,0.3-174.6,1.2-261.7c26.4,12.9,51.6,26.5,77.6,38.2c42.1,19,86.5,30.5,134.1,37.1
		c0-33.9,0-66.7,0-99.3c-71.9,0-143.1,0-214.7,0c0,7.8,0,14.5-0.2,21.3c-0.2,0.1-0.5,0.5-0.5,0.5c-38.8-24.8-74.9-53-105.9-87
		c-47.2-51.7-81-111-97.3-179.8c5.1,0,9.2,0.9,13.3,0.9c121.6,0.1,243.3,0.1,364.9,0c4.5,0,8.9-0.4,13.6-0.6c0-27.2,0-53.1,0-80.4
		c-135.1,0-269.2,0-403.4,0c0-17.8,0-35.6,0-54.5c3.4-17,6.1-32.9,10.2-48.6C264,318.5,354.1,220.7,497.7,178
		c130.6-38.9,251.6-12.5,357.6,73.3c74,59.9,119.9,138.2,135.7,232.5c5.2,30.8,4.7,62.7,5.3,94.1c0.2,9.8,2.9,15,11.3,19.8
		c57.4,32.7,113.5,25.1,153.7-22c19.2-22.5,30.8-49.3,37.3-77.9c5.6-24.9,8.7-50.4,13.8-77.6c0.8-14.3,0.8-26.8,0.8-40.4
		c46.6,0,90.6,0,134.6,0c0.6,125.6-30.1,242.4-99.3,347.7c-74.2,112.9-177,189.8-304.1,235.1c-0.9-23.9-0.9-46.9-0.9-70.4
		c-72.3,0-143.1,0-214.7,0c0,33.2,0.1,65.2-0.1,97.3c0,7.2,3.8,8,9.6,8.1c40.9,1.1,81.3-2.8,121.2-11.6c28.2-6.2,56-14.3,83.9-21.6
		c-0.8,40.6,3.8,81.4-7.4,121.6c-22.7,81.5-101.8,149.3-184.1,154.5c-8.8,0-15.3,0-23,0c0-6.7,0-11.6,0-16.6
		c0-70.1,0.1-140.3-0.1-210.4C728.8,1009.1,726.8,1004.5,725.7,999.9z M700.3,537.5c6.6,0.6,13.3,2.1,19.9,1.7
		c22.7-1.7,38-24,33.9-48.6c-3.3-19.5-27.1-35.2-46.6-30.5c-19,4.5-32.8,18.4-33.5,37.4C673.4,515,682,528.7,700.3,537.5z"/>
	<path class="st1" d="M216,568.3c134.2-1.2,268.3-1.2,403.4-1.2c0,27.3,0,53.1,0,80.4c-4.7,0.2-9.1,0.6-13.6,0.6
		c-121.6,0-243.3,0-364.9,0c-4.1,0-8.2-0.9-13.3-1.8c-3.9-17-6.9-33.6-10.7-50.7C216,586.5,216,577.9,216,568.3z"/>
	<path class="st2" d="M1199.1,377.1c-61.6-3.6-104-36.1-127.9-91.1c-10.3-23.7-12.9-50.8-18.9-78.6c0.1-7,0.1-11.9,0.1-17.8
		c54.5,0,106.8,0,159.7,0.1c0.6,0.1,1.8,0.4,1.9,1.6c0,62.7,0.1,124.3-1,185.8C1207.6,377.1,1203.4,377.1,1199.1,377.1z"/>
	<path class="st3" d="M1509.2,190c0.8,57.8-14.4,109.7-57.6,150.3c-24.7,23.2-54.5,35.4-90.7,36.9c-5.8-0.2-9.5-0.2-13-1.5
		c0.1-62.7,0.1-124.1,1.3-185.7C1403.2,190,1456.2,190,1509.2,190z"/>
	<path class="st4" d="M1508.7,189.1c-52.5,0.9-105.4,0.9-160.8,0.8c-46.2,0-90.1,0.1-134,0.2c0,0-1.2-0.3-1.8-0.8
		c-0.6-0.6-0.5-1.5-0.5-1.5c59.7-0.1,119.5-0.3,179.2-0.3C1429.9,187.5,1469.1,187.9,1508.7,189.1z"/>
	<path class="st5" d="M433.6,916.1c-0.1,87.3-0.2,174.6-0.3,261.9c0,5.9,0.9,10.1,9.1,9.6c-2.5,0.7-6,1.3-11.4,2.3
		c0-92.1,0-182.8-0.1-274.6c-0.1-1.2,0.3-1.5,0.9-1.2C432.8,914.8,433.3,915.4,433.6,916.1z"/>
	<path class="st6" d="M726,1001.1c0.8,3.4,2.8,8,2.8,12.6c0.2,70.1,0.1,140.3,0.1,210.4c0,5,0,9.9,0,16.6c7.7,0,14.2,0,22,0.1
		c-6.8,1.1-14.8,2.1-24.6,3.3C726.2,1161.9,726.2,1082.1,726,1001.1z"/>
	<path class="st7" d="M1347.7,376.9c3.6,0.1,7.3,0.1,12,0.3c-2.6,0.8-6.3,1.5-10.9,2.5c-44.9,0.3-88.9,0.3-135.6,0.3
		c0,13.6,0,26.1-0.6,39.3c-0.6-12.1-0.6-25-0.6-38.6c-4.3-0.9-7.8-1.7-12.1-3c3.5-0.6,7.7-0.6,14.2-0.5
		C1260.2,377.1,1304,377,1347.7,376.9z"/>
	<path class="st6" d="M1210.4,187.6c1.2,0.2,1.1,1.1,1.1,1.5c-52.4,0.5-104.7,0.5-159.1,0.5c0,6,0,10.8-0.1,16.7
		c-1-4.9-1.9-10.8-3-18.8C1103.8,187.4,1156.5,187.4,1210.4,187.6z"/>
	<path class="st5" d="M454.6,1187c2.6-0.8,6.2-1.4,10.7-2C462.7,1185.9,459.1,1186.5,454.6,1187z"/>
	<path class="st5" d="M638.8,1032.5c-0.3-1.6-0.1-3.8,0.8-6.5C639.9,1027.7,639.6,1029.8,638.8,1032.5z"/>
	<path class="st5" d="M499.9,1177.1c1-0.8,2.8-1.6,5.4-2.3C504.3,1175.6,502.4,1176.4,499.9,1177.1z"/>
	<path class="st5" d="M492.3,1179.5c1-0.8,2.9-1.5,5.5-2.2C496.7,1178.1,494.9,1178.8,492.3,1179.5z"/>
	<path class="st5" d="M482.2,1182.2c1.2-0.8,3.2-1.5,6-2.1C487.1,1180.8,485.1,1181.5,482.2,1182.2z"/>
	<path class="st5" d="M472.2,1184.5c1.2-0.8,3.2-1.4,6-1.9C477,1183.3,475,1184,472.2,1184.5z"/>
	<path class="st5" d="M630.9,1055c-0.2-0.8,0.1-2,0.9-3.7C632,1052.2,631.8,1053.4,630.9,1055z"/>
	<path class="st5" d="M595.6,1112.8c0-0.9,0.5-2,1.7-3.4C597.3,1110.3,596.7,1111.4,595.6,1112.8z"/>
	<path class="st5" d="M515,1171.8c0.4-0.7,1.4-1.3,3-2C517.6,1170.4,516.6,1171.1,515,1171.8z"/>
	<path class="st5" d="M593.2,1115.7c-0.3-0.4-0.1-0.8,0.6-1.2C594.2,1114.9,594,1115.4,593.2,1115.7z"/>
	<path class="st1" d="M943.6,964.6c-28.1,7.3-55.9,15.4-84.1,21.6c-39.8,8.7-80.3,12.6-121.2,11.6c-5.8-0.2-9.6-0.9-9.6-8.1
		c0.2-32,0.1-64.1,0.1-97.3c71.6,0,142.4,0,214.7,0c0,23.4,0,46.5,0,70.7C943.7,964.3,943.7,964.5,943.6,964.6z"/>
	<path class="st8" d="M434.5,916.3c-1.2-0.9-1.6-1.5-2.6-2.4c-0.4-7.1-0.4-13.8-0.4-21.5c71.6,0,142.9,0,214.7,0
		c0,32.6,0,65.4,0,99.3c-47.6-6.6-92-18.1-134.1-37.1C486.1,942.8,460.9,929.2,434.5,916.3z"/>
	<path class="st8" d="M699.4,537.1c-17.4-8.3-26-22.1-25.4-39.7c0.7-19,14.5-32.9,33.5-37.4c19.4-4.6,43.3,11,46.6,30.5
		c4.1,24.6-11.1,46.9-33.9,48.6C713.6,539.6,706.9,538.1,699.4,537.1z"/>
	<path class="st1" d="M1347.8,375.8c-43.9,1.3-87.6,1.3-132.6,1.3c-1.2-61.6-1.2-123.2-1.3-185.9c43.9-1.3,87.7-1.3,132.8-1.3
		C1347.9,251.6,1347.9,313.1,1347.8,375.8z"/>
</g>
</svg>
